<?xml version="1.0" encoding="utf-8"?>
<!-- Generator: Adobe Illustrator 15.0.0, SVG Export Plug-In . SVG Version: 6.00 Build 0)  -->
<!DOCTYPE svg PUBLIC "-//W3C//DTD SVG 1.1//EN" "http://www.w3.org/Graphics/SVG/1.1/DTD/svg11.dtd">
<svg version="1.1" id="图层_1" xmlns="http://www.w3.org/2000/svg" xmlns:xlink="http://www.w3.org/1999/xlink" x="0px" y="0px"
	 width="30px" height="30px" viewBox="0 0 30 30" enable-background="new 0 0 30 30" xml:space="preserve">
<path display="none" fill="#333333" d="M23.967,10.481l0.226-0.357l0.132,0.489L23.967,10.481L23.967,10.481z M14.322,13.666
	l-0.303,0.114l-1.487-0.528l0.113-0.302L14.322,13.666L14.322,13.666z M12.118,13.137l-0.924-0.188l0.095-0.452l0.942,0.282
	L12.118,13.137L12.118,13.137z M12.118,12.29v-0.414l0.471,0.659L12.118,12.29L12.118,12.29z M3.79,18.242l0.548,0.66l-0.416,0.227
	l-0.545-0.357L3.79,18.242L3.79,18.242z M4.751,19.072l0.527,0.357L4.92,19.787L4.394,19.43L4.751,19.072L4.751,19.072z
	 M24.2,16.869l-0.8-0.943l0.359-0.245l-0.829-0.528l-1.657-0.056l-0.962-0.848l-0.056-1.827l2.146-1.846l1.188-0.114l0.3,0.339
	l-0.075,0.302l0.962,0.3l0.472-0.414l0.357,0.301l0.068,0.003c-0.062-0.202-0.142-0.394-0.217-0.591l-0.098-0.071l-0.054-0.349
	c-0.097-0.229-0.209-0.449-0.32-0.672l-0.529-0.618l-0.15,0.151l0.64,0.884l-0.413,0.604l-0.171-0.716l-0.716-0.528l-0.414,0.358
	l-0.245-0.132l-1.356,1.263l-0.489-1.319l0.96,0.056l0.17-0.415l-0.357-0.358l0.604-0.471l0.357-0.056l0.658-0.602l-0.188-0.473
	l0.094-0.042c-0.092-0.111-0.194-0.211-0.291-0.318l-0.029,0.003l0.004-0.034c-1.049-1.171-2.318-2.134-3.747-2.831l-0.551,0.85
	l-1.715,0.527l-0.414,1.018l-0.772-0.058L15.037,4.98L14.68,3.153l-0.488-0.372c-0.057,0-0.109-0.008-0.166-0.008
	c-0.233,0-0.465,0.022-0.696,0.035l-0.138,0.044l-0.027-0.036c-0.456,0.031-0.903,0.085-1.345,0.166l2.37,1.941L13.36,5.81
	l-1.544-0.283l0.188-0.96h-0.545l-0.227,0.659l0.171,0.584l-1.188-0.112L9.612,6.525l0.433,0.358l0.83,0.245l0.772,0.884
	l0.282-0.884L11.76,6.939V6.055l1.846,0.3l1.487,1.791l-2.091,1.185v0.641l-0.357-0.056l-0.358,0.358l0.076,0.472l-0.847,0.716
	l0.246,0.772h-0.417l-0.357-0.528h-1.3l-0.489,0.886l0.489,0.47h0.227l0.471-0.282l0.302,0.17l-0.115,0.66l0.473,0.057l0.112,0.715
	h0.848l0.83-0.357l0.584,0.226l1.11,0.038l0.076,0.735h0.724l0.258,0.595l0.035,0.252h0.077l1.282,2.934l-3.374,3.604
	c0.125,0.227,0.164,0.482,0.112,0.771l-0.47,0.473l0.414,0.525l-0.357,0.416l-0.942-1.057v-1.732l0.584-3.391l-0.772-0.357
	l-0.83-2.073l0.358-0.527v-0.604h-0.828l-0.358-0.713l-0.471,0.056l-1.676-0.942l-0.528-0.66h-0.66l-1.79-2.374L5.467,9.03
	L4.864,8.146L4.45,8.259L4.197,7.751c-1.499,2.028-2.396,4.53-2.396,7.247c0,6.751,5.474,12.226,12.225,12.226
	c2.164,0,4.19-0.568,5.951-1.555l0.729,1.666c-1.985,1.078-4.261,1.691-6.68,1.691C6.28,29.027,0,22.748,0,14.999
	C0,7.253,6.28,0.973,14.025,0.973c7.747,0,14.026,6.28,14.026,14.026c0,1.134-0.15,2.232-0.404,3.289L24.2,16.869L24.2,16.869z
	 M4.35,7.546C4.319,7.588,4.288,7.629,4.256,7.672l0.25,0.041L4.35,7.546L4.35,7.546z M19.258,5.281l1.186-0.301l0.528,0.49
	l-1.073,0.772L19.258,5.281L19.258,5.281z M20.802,7.957l0.34-0.602l0.435,0.546l-0.359,0.414L20.802,7.957L20.802,7.957z
	 M21.857,6.713l0.244,0.584l0.528,0.417l-0.056,0.489h-0.83l0.245-0.489l-0.548-0.585L21.857,6.713L21.857,6.713z M29.989,20.674
	l-4.371,1.719l2.807,2.805l-1.604,1.605l-2.761-2.76l-1.576,4.135l-5.64-12.917L29.989,20.674L29.989,20.674z"/>
<path display="none" fill-rule="evenodd" clip-rule="evenodd" fill="#333333" d="M28.617,23.626c0,3.518-6.135,6.369-13.707,6.369
	c-7.569,0-13.708-2.852-13.708-6.369c0-3.47,5.974-6.285,13.398-6.362l1.428-5.22c-1.975-1.097-3.31-3.199-3.31-5.616
	c0-3.547,2.875-6.422,6.423-6.422c3.546,0,6.42,2.875,6.42,6.422c0,3.546-2.874,6.421-6.42,6.421c-0.046,0-0.087-0.004-0.13-0.006
	l-1.246,4.555C23.967,18.009,28.617,20.563,28.617,23.626L28.617,23.626z M18.277,4.161c0-0.774-0.628-1.403-1.403-1.403
	c-0.773,0-1.403,0.628-1.403,1.403c0,0.776,0.63,1.403,1.403,1.403C17.649,5.564,18.277,4.937,18.277,4.161L18.277,4.161z
	 M17.301,19.09l-0.475,1.731c2.225,0.308,3.817,1.127,3.817,2.091c0,1.224-2.566,2.219-5.732,2.219
	c-3.166,0-5.731-0.995-5.731-2.219c0-1.058,1.91-1.939,4.467-2.162l0.479-1.751C8.48,19.16,4.02,20.985,4.02,23.224
	c0,2.34,4.876,4.235,10.891,4.235c6.015,0,10.89-1.896,10.89-4.235C25.8,21.203,22.165,19.515,17.301,19.09L17.301,19.09z"/>
<path display="none" fill-rule="evenodd" clip-rule="evenodd" fill="#333333" d="M26.067,21.211c-0.206,0-0.403-0.031-0.601-0.061
	c-2.104,3.541-5.954,5.92-10.372,5.92c-4.418,0-8.27-2.379-10.374-5.92c-0.197,0.029-0.395,0.061-0.601,0.061
	c-2.218,0-4.016-1.798-4.016-4.016c0-1.883,1.302-3.451,3.05-3.887C3.98,7.445,9.003,2.93,15.095,2.93
	c6.092,0,11.111,4.515,11.938,10.379c1.751,0.436,3.052,2.003,3.052,3.887C30.084,19.413,28.287,21.211,26.067,21.211L26.067,21.211
	z M26.067,14.929c-0.404,0-0.781,0.115-1.109,0.301c0.001-0.078,0.013-0.152,0.013-0.23c0-3.759-2.101-7.026-5.19-8.695
	c0.02,0.085,0.024,0.173,0.039,0.259h0.03c-0.003,0.039-0.01,0.073-0.013,0.11c0.002,0.03,0.013,0.057,0.013,0.085
	c0,0.228-0.042,0.448-0.113,0.66c-0.541,3.192-2.288,4.103-2.288,4.103c0.298-0.929-0.183-1.432-0.183-1.432
	c-0.868,3.542-4.549,3.813-4.549,3.813c1.943-1.607,1.029-4.686,0.799-3.389c-0.239,1.36-2.034,1.976-2.034,1.976
	s1.646-1.104-0.068-2.848c-1.715-1.743-1.053-3.04-1.053-3.04h0.004c0.013-0.099,0.023-0.199,0.044-0.298
	C7.317,7.974,5.217,11.241,5.217,15c0,0.078,0.01,0.152,0.012,0.23c-0.33-0.187-0.703-0.301-1.108-0.301
	c-1.251,0-2.264,1.015-2.264,2.266c0,1.25,1.013,2.266,2.264,2.266c0.724,0,1.364-0.347,1.778-0.877
	c1.435,3.68,5.008,6.293,9.196,6.293s7.761-2.613,9.196-6.293c0.414,0.529,1.052,0.877,1.776,0.877c1.251,0,2.266-1.016,2.266-2.266
	C28.333,15.944,27.318,14.929,26.067,14.929L26.067,14.929z M14.729,24.146c-1.616,0-2.927-1.312-2.927-2.927
	c0-0.855,0.374-1.617,0.959-2.152c-0.141-0.225-0.227-0.488-0.227-0.773c0-0.809,0.654-1.465,1.463-1.465h1.463
	c0.807,0,1.462,0.656,1.462,1.465c0,0.285-0.084,0.547-0.226,0.772c0.585,0.535,0.958,1.298,0.958,2.153
	C17.655,22.834,16.345,24.146,14.729,24.146L14.729,24.146z M16.046,19.651c-0.234,0.494-0.734,0.836-1.317,0.836
	c-0.584,0-1.083-0.344-1.317-0.836c-0.449,0.379-0.741,0.936-0.741,1.567c0,1.136,0.922,2.058,2.058,2.058
	c1.136,0,2.058-0.922,2.058-2.058C16.786,20.587,16.495,20.028,16.046,19.651L16.046,19.651z"/>
<path display="none" fill-rule="evenodd" clip-rule="evenodd" fill="#333333" d="M7.44,16.117l2.377-2.377l3.608-0.287L12,14.879
	l14.123,3.783L22.339,4.539l-4.57,4.57l-3.747,0.425L23.556,0l5.899,22.015L7.44,16.117z M23.223,9.306l-3.159,6.997l-2.343-0.582
	l1.657-3.67L4.827,13.504l8.532,11.873l2.816-6.235l2.308,0.662l-4.64,10.274L0.544,11.569L23.223,9.306z"/>
<path display="none" fill-rule="evenodd" clip-rule="evenodd" fill="#333333" d="M28.146,20.09c-1.131,0.652-2.46,0.619-3.531,0.043
	l-6.27,5.076c0.389,1.535-0.252,3.201-1.69,4.031c-1.736,1.004-3.958,0.408-4.961-1.33c-0.515-0.889-0.603-1.906-0.337-2.82
	l-5.761-3.742c-0.051,0.033-0.093,0.072-0.147,0.105c-1.738,1.004-3.958,0.406-4.961-1.33s-0.409-3.957,1.33-4.961
	c0.385-0.222,0.795-0.353,1.209-0.424l2.019-7.534C4.722,6.936,4.432,6.617,4.209,6.231C3.207,4.496,3.801,2.273,5.538,1.272
	C7.275,0.269,9.498,0.863,10.5,2.6c0.12,0.208,0.213,0.423,0.29,0.643l7.054-0.371c0.256-0.859,0.819-1.63,1.657-2.114
	c1.738-1.003,3.958-0.409,4.961,1.329c0.909,1.573,0.497,3.537-0.88,4.637l2.537,6.609c1.326-0.078,2.646,0.565,3.356,1.794
	C30.478,16.867,29.883,19.088,28.146,20.09L28.146,20.09z M13.545,26.842c0.412,0.715,1.327,0.959,2.042,0.547
	c0.715-0.412,0.958-1.326,0.547-2.041c-0.413-0.715-1.327-0.959-2.043-0.547C13.375,25.213,13.132,26.127,13.545,26.842
	L13.545,26.842z M4.891,17.58c-0.4-0.695-1.29-0.934-1.985-0.531c-0.696,0.4-0.933,1.289-0.533,1.986
	c0.403,0.691,1.292,0.932,1.987,0.531C5.054,19.164,5.293,18.275,4.891,17.58L4.891,17.58z M8.638,3.676
	c-0.41-0.709-1.315-0.951-2.025-0.543c-0.708,0.411-0.95,1.315-0.542,2.023c0.41,0.709,1.316,0.953,2.024,0.543
	C8.805,5.291,9.046,4.384,8.638,3.676L8.638,3.676z M22.575,3.176c-0.401-0.695-1.289-0.932-1.985-0.533
	c-0.695,0.403-0.933,1.292-0.532,1.986c0.403,0.696,1.291,0.934,1.986,0.533C22.738,4.761,22.976,3.873,22.575,3.176L22.575,3.176z
	 M21.422,7.516c-1.29,0.036-2.56-0.6-3.249-1.796c-0.091-0.158-0.153-0.322-0.217-0.485l-7.189,0.377
	c-0.276,0.792-0.813,1.496-1.596,1.95C8.584,7.901,7.945,8.041,7.313,8.032l-1.908,7.121c0.55,0.308,1.034,0.753,1.373,1.337
	c0.544,0.945,0.604,2.029,0.277,2.984l5.675,3.686c0.099-0.07,0.186-0.148,0.292-0.211c1.33-0.77,2.941-0.594,4.074,0.311
	l5.947-4.814c-0.678-1.486-0.287-3.223,0.937-4.261L21.422,7.516L21.422,7.516z M27.612,16.205
	c-0.408-0.709-1.314-0.951-2.023-0.542c-0.706,0.408-0.95,1.314-0.542,2.023c0.41,0.709,1.316,0.951,2.023,0.543
	C27.778,17.818,28.022,16.912,27.612,16.205L27.612,16.205z"/>
<path display="none" fill-rule="evenodd" clip-rule="evenodd" fill="#333333" d="M15.084,30.014c-6.868,0-13.72-1.021-12.437-8.032
	C3.839,15.459,9.18,10.926,15.148,10.62c-0.195-1.261-0.808-3.688-2.593-3.392l0.003-0.015c-0.656,0.323-1.406,0.522-2.216,0.522
	c-2.484,0-4.497-1.734-4.497-3.875c0-2.138,2.012-3.873,4.497-3.873c1.502,0,2.716,0.611,3.335,1.296s3.16,3.782,2.953,9.349
	c5.763,0.453,10.102,5.518,10.893,11.349C28.473,28.98,21.953,30.014,15.084,30.014L15.084,30.014z M22.372,25.978l1.406-1.168
	l-0.461-0.519l-1.404,1.169L22.372,25.978L22.372,25.978z M7,26.278l1.404-1.166l-0.459-0.518l-1.405,1.167L7,26.278L7,26.278z
	 M5.79,26l1.405-1.17l-0.459-0.517L5.33,25.481L5.79,26L5.79,26z M4.384,25.978L5.79,24.81L5.33,24.291L3.924,25.46L4.384,25.978
	L4.384,25.978z M19.58,12.712c-1.855,0-3.491,0.971-4.496,2.457c-1.006-1.485-2.643-2.457-4.498-2.457
	c-3.056,0-5.534,2.627-5.534,5.868c0,3.24,2.478,5.866,5.534,5.866c1.855,0,3.492-0.97,4.498-2.456
	c1.005,1.486,2.641,2.456,4.496,2.456c3.058,0,5.536-2.626,5.536-5.866C25.116,15.339,22.638,12.712,19.58,12.712L19.58,12.712z
	 M24.725,24.313l-1.407,1.168L23.778,26l1.403-1.17L24.725,24.313L24.725,24.313z M25.936,24.595l-1.405,1.167l0.459,0.517
	l1.402-1.166L25.936,24.595L25.936,24.595z M17.159,21.015c-0.955,0-1.729-0.772-1.729-1.729s0.773-1.73,1.729-1.73
	s1.73,0.774,1.73,1.73S18.114,21.015,17.159,21.015L17.159,21.015z M16.813,18.248c-0.382,0-0.691,0.31-0.691,0.692
	s0.31,0.69,0.691,0.69c0.383,0,0.692-0.308,0.692-0.69S17.195,18.248,16.813,18.248L16.813,18.248z M13.007,21.015
	c-0.954,0-1.728-0.772-1.728-1.729s0.774-1.73,1.728-1.73c0.957,0,1.73,0.774,1.73,1.73S13.963,21.015,13.007,21.015L13.007,21.015z
	 M12.662,18.248c-0.383,0-0.692,0.31-0.692,0.692s0.31,0.69,0.692,0.69c0.382,0,0.693-0.308,0.693-0.69S13.044,18.248,12.662,18.248
	L12.662,18.248z"/>
<path display="none" fill-rule="evenodd" clip-rule="evenodd" fill="#333333" d="M25.581,27.108c-3.914,3.914-10.263,3.914-14.177,0
	L3.74,19.444c-3.469-3.469-1.152-6.143,2.143-9.43C5.544,9.489,5.578,8.797,6.038,8.335C5.363,7.62,4.315,6.148,5.25,4.597
	C6.554,2.43,4.771,0.765,4.771,0.765L5.537,0c0,0,2.206,2.153,0.9,4.32C5.554,5.788,6.256,6.966,6.801,7.572l0.005-0.006
	c0.461-0.46,1.157-0.496,1.682-0.156c3.287-3.296,5.961-5.612,9.431-2.144l7.663,7.664C29.495,16.846,29.495,23.194,25.581,27.108
	L25.581,27.108z M7.826,10.503c-3.111,3.083-5.345,5.258-2.145,8.459l1.763,1.762l5.301-5.3l-0.902-0.903
	c-0.667,0.236-1.439,0.092-1.972-0.441l-0.767-0.765c-0.534-0.535-0.677-1.306-0.441-1.975L7.826,10.503L7.826,10.503z
	 M11.788,12.164l-0.767-0.765c-0.317-0.319-0.833-0.319-1.149,0c-0.318,0.317-0.318,0.831,0,1.148l0.765,0.767
	c0.317,0.317,0.833,0.317,1.15,0C12.105,12.998,12.105,12.481,11.788,12.164L11.788,12.164z M17.431,7.215
	c-3.2-3.2-5.374-0.972-8.455,2.139l0.837,0.837c0.669-0.236,1.44-0.093,1.975,0.441l0.765,0.767
	c0.533,0.533,0.678,1.304,0.441,1.971l0.902,0.902l5.295-5.296L17.431,7.215L17.431,7.215z M24.076,13.861l-3.735-3.736
	L8.593,21.873l3.735,3.734c3.396,3.396,8.626,3.67,12.022,0.273C27.744,22.487,27.471,17.255,24.076,13.861L24.076,13.861z"/>
<path fill-rule="evenodd" clip-rule="evenodd" fill="#333333" d="M28.616,26.006h-3.668v-3.668h3.668
	c0.404,0,0.733-0.328,0.733-0.734V6.929c0-0.406-0.329-0.734-0.733-0.734h-3.668V4.728h3.668c0.811,0,1.468,0.657,1.468,1.467
	v18.344C30.084,25.35,29.427,26.006,28.616,26.006L28.616,26.006z M22.012,28.207H8.072c-1.216,0-2.201-0.985-2.201-2.201V3.994
	c0-1.216,0.985-2.201,2.201-2.201h13.94c1.217,0,2.201,0.985,2.201,2.201v22.012C24.213,27.222,23.229,28.207,22.012,28.207
	L22.012,28.207z M15.043,26.739c1.014,0,1.833-0.82,1.833-1.834c0-1.013-0.819-1.835-1.833-1.835s-1.835,0.822-1.835,1.835
	C13.208,25.919,14.029,26.739,15.043,26.739L15.043,26.739z M18.711,2.526h-7.336c-0.205,0-0.368,0.166-0.368,0.368
	S11.17,3.26,11.375,3.26h7.336c0.203,0,0.366-0.165,0.366-0.367S18.914,2.526,18.711,2.526L18.711,2.526z M22.747,4.728
	c0-0.406-0.329-0.734-0.735-0.734H8.072c-0.405,0-0.733,0.328-0.733,0.734V20.87c0,0.404,0.328,0.733,0.733,0.733h13.94
	c0.406,0,0.735-0.329,0.735-0.733V4.728L22.747,4.728z M0,24.539V6.195c0-0.81,0.657-1.467,1.467-1.467h3.669v1.467H1.467
	c-0.404,0-0.733,0.328-0.733,0.734v14.674c0,0.406,0.329,0.734,0.733,0.734h3.669v3.668H1.467C0.657,26.006,0,25.35,0,24.539
	L0,24.539z"/>
</svg>
