<?xml version="1.0" encoding="utf-8"?>
<!-- Generator: Adobe Illustrator 15.0.0, SVG Export Plug-In . SVG Version: 6.00 Build 0)  -->
<!DOCTYPE svg PUBLIC "-//W3C//DTD SVG 1.1//EN" "http://www.w3.org/Graphics/SVG/1.1/DTD/svg11.dtd">
<svg version="1.1" id="图层_1" xmlns="http://www.w3.org/2000/svg" xmlns:xlink="http://www.w3.org/1999/xlink" x="0px" y="0px"
	 width="30px" height="30px" viewBox="0 0 30 30" enable-background="new 0 0 30 30" xml:space="preserve">
<path display="none" fill="#333333" d="M23.967,10.481l0.227-0.357l0.133,0.489L23.967,10.481L23.967,10.481z M14.322,13.666
	l-0.303,0.114l-1.487-0.528l0.113-0.302L14.322,13.666L14.322,13.666z M12.118,13.137l-0.924-0.188l0.095-0.452l0.942,0.282
	L12.118,13.137L12.118,13.137z M12.118,12.29v-0.414l0.471,0.659L12.118,12.29L12.118,12.29z M3.79,18.242l0.548,0.66l-0.416,0.227
	l-0.545-0.357L3.79,18.242L3.79,18.242z M4.751,19.072l0.527,0.357L4.92,19.787L4.394,19.43L4.751,19.072L4.751,19.072z
	 M24.2,16.869l-0.8-0.943l0.357-0.244l-0.828-0.529l-1.656-0.056l-0.963-0.848l-0.057-1.827l2.146-1.846l1.188-0.114l0.301,0.339
	l-0.074,0.302l0.961,0.3l0.473-0.414l0.357,0.301l0.066,0.003c-0.063-0.202-0.143-0.394-0.217-0.591l-0.1-0.071l-0.053-0.349
	c-0.098-0.229-0.209-0.449-0.32-0.672l-0.528-0.618l-0.149,0.151l0.641,0.884l-0.413,0.604l-0.171-0.716l-0.717-0.528L23.23,9.745
	l-0.244-0.132l-1.356,1.263l-0.489-1.319l0.961,0.056l0.17-0.415L21.914,8.84l0.604-0.471l0.357-0.056l0.658-0.602l-0.188-0.473
	l0.094-0.042c-0.092-0.111-0.194-0.211-0.291-0.318l-0.029,0.003l0.004-0.034c-1.049-1.171-2.318-2.134-3.747-2.831l-0.551,0.85
	l-1.716,0.527l-0.414,1.018l-0.771-0.058L15.037,4.98L14.68,3.153l-0.488-0.372c-0.057,0-0.109-0.008-0.166-0.008
	c-0.233,0-0.465,0.022-0.696,0.035l-0.138,0.044l-0.027-0.036c-0.456,0.031-0.903,0.085-1.345,0.166l2.37,1.941L13.36,5.81
	l-1.544-0.283l0.188-0.96h-0.545l-0.227,0.659l0.171,0.584l-1.188-0.112L9.612,6.525l0.433,0.358l0.83,0.245l0.772,0.884
	l0.282-0.884L11.76,6.939V6.055l1.846,0.3l1.487,1.791l-2.091,1.185v0.641l-0.357-0.056l-0.358,0.358l0.076,0.472l-0.847,0.716
	l0.246,0.772h-0.417l-0.357-0.528h-1.3l-0.489,0.886l0.489,0.47h0.227l0.471-0.282l0.302,0.17l-0.115,0.66l0.473,0.057l0.112,0.715
	h0.848l0.83-0.357l0.584,0.226l1.11,0.038l0.076,0.735h0.724l0.258,0.595l0.035,0.252H15.7l1.282,2.934l-3.375,3.604
	c0.125,0.228,0.164,0.481,0.112,0.771l-0.47,0.473l0.414,0.525l-0.357,0.416l-0.942-1.057v-1.732l0.584-3.391l-0.772-0.357
	l-0.83-2.072l0.358-0.526v-0.604h-0.828l-0.358-0.713l-0.471,0.056l-1.676-0.942l-0.528-0.66h-0.66l-1.79-2.374l0.073-1.19
	L4.864,8.146L4.45,8.259L4.197,7.751c-1.499,2.028-2.396,4.53-2.396,7.247c0,6.751,5.474,12.227,12.225,12.227
	c2.164,0,4.19-0.567,5.951-1.556l0.729,1.666c-1.985,1.078-4.261,1.69-6.68,1.69C6.28,29.027,0,22.748,0,14.999
	C0,7.253,6.28,0.973,14.025,0.973c7.747,0,14.026,6.28,14.026,14.026c0,1.134-0.15,2.231-0.404,3.289L24.2,16.869L24.2,16.869z
	 M4.35,7.546C4.319,7.588,4.288,7.629,4.256,7.672l0.25,0.041L4.35,7.546L4.35,7.546z M19.258,5.281l1.186-0.301l0.529,0.49
	l-1.074,0.772L19.258,5.281L19.258,5.281z M20.803,7.957l0.34-0.602l0.436,0.546l-0.359,0.414L20.803,7.957L20.803,7.957z
	 M21.857,6.713l0.244,0.584l0.526,0.417L22.57,8.203h-0.828l0.244-0.489l-0.549-0.585L21.857,6.713L21.857,6.713z M29.988,20.674
	l-4.37,1.719l2.807,2.805l-1.604,1.605l-2.76-2.76l-1.576,4.135l-5.641-12.917L29.988,20.674L29.988,20.674z"/>
<path display="none" fill="#333333" d="M28.617,23.626c0,3.519-6.135,6.369-13.707,6.369c-7.569,0-13.708-2.853-13.708-6.369
	c0-3.47,5.974-6.285,13.398-6.362l1.427-5.22c-1.974-1.097-3.311-3.199-3.311-5.616c0-3.547,2.875-6.422,6.424-6.422
	c3.547,0,6.42,2.875,6.42,6.422c0,3.546-2.873,6.421-6.42,6.421c-0.045,0-0.086-0.004-0.129-0.006l-1.246,4.556
	C23.967,18.009,28.617,20.563,28.617,23.626L28.617,23.626z M18.277,4.161c0-0.774-0.629-1.403-1.403-1.403
	c-0.772,0-1.403,0.628-1.403,1.403c0,0.776,0.63,1.403,1.403,1.403C17.648,5.564,18.277,4.937,18.277,4.161L18.277,4.161z
	 M17.301,19.09l-0.475,1.73c2.225,0.309,3.816,1.127,3.816,2.092c0,1.225-2.565,2.219-5.731,2.219S9.18,24.137,9.18,22.912
	c0-1.059,1.91-1.939,4.467-2.162l0.479-1.751C8.48,19.16,4.02,20.984,4.02,23.225c0,2.34,4.876,4.234,10.891,4.234
	c6.015,0,10.89-1.896,10.89-4.234C25.8,21.203,22.165,19.516,17.301,19.09L17.301,19.09z"/>
<path display="none" fill="#333333" d="M26.066,21.211c-0.205,0-0.402-0.031-0.602-0.061c-2.104,3.541-5.953,5.92-10.372,5.92
	c-4.418,0-8.27-2.379-10.374-5.92c-0.197,0.029-0.395,0.061-0.601,0.061c-2.218,0-4.016-1.798-4.016-4.016
	c0-1.883,1.302-3.451,3.05-3.887C3.98,7.445,9.003,2.93,15.095,2.93s11.111,4.515,11.938,10.379
	c1.751,0.436,3.052,2.003,3.052,3.886C30.084,19.413,28.287,21.211,26.066,21.211L26.066,21.211z M26.066,14.929
	c-0.403,0-0.78,0.115-1.108,0.301c0.001-0.078,0.013-0.152,0.013-0.23c0-3.759-2.101-7.026-5.188-8.695
	c0.021,0.085,0.022,0.173,0.038,0.259h0.029c-0.002,0.039-0.01,0.073-0.013,0.11c0.002,0.03,0.013,0.057,0.013,0.085
	c0,0.228-0.041,0.448-0.113,0.66c-0.541,3.192-2.286,4.103-2.286,4.103c0.298-0.929-0.185-1.432-0.185-1.432
	c-0.867,3.542-4.549,3.813-4.549,3.813c1.943-1.607,1.029-4.686,0.799-3.389c-0.239,1.36-2.034,1.976-2.034,1.976
	s1.646-1.104-0.068-2.848c-1.715-1.743-1.053-3.04-1.053-3.04h0.004c0.013-0.099,0.023-0.199,0.044-0.298
	C7.317,7.974,5.217,11.241,5.217,15c0,0.078,0.01,0.152,0.012,0.23c-0.33-0.187-0.703-0.301-1.108-0.301
	c-1.251,0-2.264,1.014-2.264,2.266c0,1.25,1.013,2.266,2.264,2.266c0.724,0,1.364-0.348,1.778-0.877
	c1.435,3.68,5.008,6.293,9.196,6.293s7.76-2.613,9.196-6.293c0.414,0.529,1.052,0.877,1.775,0.877c1.252,0,2.267-1.016,2.267-2.266
	C28.333,15.943,27.318,14.929,26.066,14.929L26.066,14.929z M14.729,24.146c-1.616,0-2.927-1.313-2.927-2.929
	c0-0.854,0.374-1.616,0.959-2.151c-0.141-0.226-0.227-0.487-0.227-0.772c0-0.81,0.654-1.465,1.463-1.465h1.463
	c0.808,0,1.462,0.655,1.462,1.465c0,0.285-0.084,0.547-0.227,0.772c0.586,0.535,0.959,1.297,0.959,2.151
	C17.654,22.834,16.346,24.146,14.729,24.146L14.729,24.146z M16.046,19.65c-0.233,0.494-0.734,0.836-1.317,0.836
	c-0.584,0-1.083-0.344-1.317-0.836c-0.449,0.379-0.741,0.937-0.741,1.566c0,1.137,0.922,2.059,2.058,2.059s2.058-0.922,2.058-2.059
	C16.786,20.587,16.495,20.027,16.046,19.65L16.046,19.65z"/>
<path display="none" fill="#333333" d="M7.44,16.117l2.377-2.377l3.608-0.287L12,14.879l14.123,3.783L22.339,4.539l-4.569,4.57
	l-3.748,0.425L23.557,0l5.898,22.016L7.44,16.117z M23.223,9.306l-3.158,6.997l-2.344-0.582l1.657-3.67L4.827,13.504l8.532,11.873
	l2.816-6.234l2.308,0.662l-4.64,10.273L0.544,11.569L23.223,9.306z"/>
<path display="none" fill="#333333" d="M28.146,20.09c-1.131,0.652-2.461,0.619-3.531,0.043l-6.27,5.076
	c0.389,1.535-0.254,3.201-1.691,4.031c-1.735,1.004-3.958,0.408-4.96-1.33c-0.515-0.889-0.603-1.906-0.337-2.82l-5.761-3.742
	c-0.051,0.033-0.093,0.072-0.147,0.105c-1.738,1.004-3.958,0.406-4.961-1.33c-1.003-1.736-0.409-3.957,1.33-4.961
	c0.385-0.222,0.795-0.353,1.209-0.424l2.019-7.534C4.722,6.936,4.432,6.617,4.209,6.231C3.207,4.496,3.801,2.273,5.538,1.272
	C7.275,0.269,9.498,0.863,10.5,2.6c0.12,0.208,0.213,0.423,0.29,0.643l7.054-0.371c0.256-0.859,0.819-1.63,1.657-2.114
	c1.737-1.003,3.958-0.409,4.961,1.329c0.909,1.573,0.497,3.537-0.88,4.637l2.537,6.609c1.326-0.078,2.646,0.565,3.355,1.794
	C30.479,16.867,29.883,19.088,28.146,20.09L28.146,20.09z M13.545,26.842c0.412,0.715,1.327,0.959,2.042,0.547
	c0.716-0.412,0.958-1.326,0.547-2.041c-0.413-0.715-1.327-0.959-2.043-0.547C13.375,25.213,13.132,26.127,13.545,26.842
	L13.545,26.842z M4.891,17.58c-0.4-0.695-1.29-0.934-1.985-0.531c-0.696,0.4-0.933,1.289-0.533,1.986
	c0.403,0.691,1.292,0.932,1.987,0.531C5.054,19.164,5.293,18.275,4.891,17.58L4.891,17.58z M8.638,3.676
	c-0.41-0.709-1.315-0.951-2.025-0.543c-0.708,0.411-0.95,1.315-0.542,2.023c0.41,0.709,1.316,0.953,2.024,0.543
	C8.805,5.291,9.046,4.384,8.638,3.676L8.638,3.676z M22.575,3.176c-0.401-0.695-1.289-0.932-1.985-0.533
	c-0.695,0.403-0.933,1.292-0.531,1.986c0.402,0.696,1.291,0.934,1.985,0.533S22.977,3.873,22.575,3.176L22.575,3.176z M21.422,7.516
	c-1.29,0.036-2.561-0.6-3.249-1.796c-0.091-0.158-0.153-0.322-0.217-0.485l-7.189,0.377c-0.276,0.792-0.813,1.496-1.596,1.95
	c-0.587,0.339-1.226,0.479-1.858,0.47l-1.908,7.121c0.55,0.308,1.034,0.753,1.373,1.337c0.544,0.945,0.604,2.029,0.277,2.984
	l5.675,3.686c0.099-0.07,0.186-0.148,0.292-0.211c1.33-0.77,2.941-0.594,4.074,0.311l5.947-4.814
	c-0.678-1.484-0.287-3.221,0.938-4.259L21.422,7.516L21.422,7.516z M27.611,16.205c-0.407-0.709-1.313-0.951-2.022-0.542
	c-0.706,0.407-0.95,1.313-0.542,2.022c0.41,0.709,1.316,0.951,2.023,0.543C27.777,17.818,28.021,16.912,27.611,16.205L27.611,16.205
	z"/>
<path display="none" fill="#333333" d="M15.084,30.014c-6.868,0-13.72-1.021-12.437-8.031C3.839,15.459,9.18,10.926,15.148,10.62
	c-0.195-1.261-0.808-3.688-2.593-3.392l0.003-0.015c-0.656,0.323-1.406,0.522-2.216,0.522c-2.484,0-4.497-1.734-4.497-3.875
	c0-2.138,2.012-3.873,4.497-3.873c1.502,0,2.716,0.611,3.335,1.296c0.619,0.685,3.16,3.782,2.953,9.349
	c5.763,0.453,10.103,5.519,10.894,11.349C28.473,28.98,21.953,30.014,15.084,30.014L15.084,30.014z M22.372,25.979l1.405-1.168
	l-0.461-0.52l-1.403,1.169L22.372,25.979L22.372,25.979z M7,26.277l1.404-1.166l-0.459-0.519L6.54,25.762L7,26.277L7,26.277z
	 M5.79,26l1.405-1.17l-0.459-0.518L5.33,25.48L5.79,26L5.79,26z M4.384,25.979l1.406-1.168l-0.46-0.52L3.924,25.46L4.384,25.979
	L4.384,25.979z M19.58,12.712c-1.855,0-3.491,0.971-4.496,2.457c-1.006-1.485-2.643-2.457-4.498-2.457
	c-3.056,0-5.534,2.627-5.534,5.868c0,3.24,2.478,5.865,5.534,5.865c1.855,0,3.492-0.969,4.498-2.455
	c1.005,1.486,2.641,2.455,4.496,2.455c3.059,0,5.536-2.625,5.536-5.865C25.116,15.339,22.639,12.712,19.58,12.712L19.58,12.712z
	 M24.725,24.313l-1.406,1.168L23.777,26l1.404-1.17L24.725,24.313L24.725,24.313z M25.936,24.596l-1.403,1.166l0.459,0.518
	l1.401-1.166L25.936,24.596L25.936,24.596z M17.159,21.016c-0.955,0-1.729-0.771-1.729-1.729s0.773-1.729,1.729-1.729
	s1.729,0.772,1.729,1.729S18.113,21.016,17.159,21.016L17.159,21.016z M16.813,18.248c-0.381,0-0.689,0.311-0.689,0.691
	c0,0.383,0.311,0.689,0.689,0.689c0.383,0,0.692-0.309,0.692-0.689S17.195,18.248,16.813,18.248L16.813,18.248z M13.007,21.016
	c-0.954,0-1.728-0.771-1.728-1.729s0.774-1.729,1.728-1.729c0.957,0,1.73,0.772,1.73,1.729S13.963,21.016,13.007,21.016
	L13.007,21.016z M12.662,18.248c-0.383,0-0.692,0.311-0.692,0.691c0,0.383,0.31,0.689,0.692,0.689c0.382,0,0.693-0.309,0.693-0.689
	S13.044,18.248,12.662,18.248L12.662,18.248z"/>
<path display="none" fill="#333333" d="M25.581,27.107c-3.914,3.914-10.263,3.914-14.177,0L3.74,19.443
	c-3.469-3.469-1.152-6.144,2.143-9.429C5.544,9.489,5.578,8.797,6.038,8.335C5.363,7.62,4.315,6.148,5.25,4.597
	C6.554,2.43,4.771,0.765,4.771,0.765L5.537,0c0,0,2.206,2.153,0.9,4.32C5.554,5.788,6.256,6.966,6.801,7.572l0.005-0.006
	C7.267,7.106,7.963,7.07,8.488,7.41c3.287-3.296,5.961-5.612,9.431-2.144l7.663,7.664C29.495,16.846,29.495,23.193,25.581,27.107
	L25.581,27.107z M7.826,10.503c-3.111,3.083-5.345,5.259-2.145,8.459l1.763,1.763l5.301-5.301l-0.902-0.903
	c-0.667,0.236-1.439,0.092-1.972-0.441l-0.767-0.765C8.57,12.78,8.427,12.009,8.663,11.34L7.826,10.503L7.826,10.503z
	 M11.788,12.164l-0.767-0.765c-0.317-0.319-0.833-0.319-1.149,0c-0.318,0.317-0.318,0.831,0,1.148l0.765,0.767
	c0.317,0.317,0.833,0.317,1.15,0C12.105,12.998,12.105,12.481,11.788,12.164L11.788,12.164z M17.432,7.215
	c-3.201-3.2-5.375-0.972-8.456,2.139l0.837,0.837c0.669-0.236,1.44-0.093,1.975,0.441l0.765,0.767
	c0.533,0.533,0.678,1.304,0.441,1.971l0.902,0.902l5.295-5.296L17.432,7.215L17.432,7.215z M24.076,13.861l-3.735-3.736
	L8.593,21.873l3.735,3.734c3.396,3.396,8.626,3.67,12.021,0.271C27.744,22.486,27.471,17.255,24.076,13.861L24.076,13.861z"/>
<path display="none" fill="#333333" d="M28.616,26.006h-3.669v-3.668h3.669c0.403,0,0.733-0.328,0.733-0.734V6.929
	c0-0.406-0.33-0.734-0.733-0.734h-3.669V4.728h3.669c0.812,0,1.468,0.657,1.468,1.467v18.344
	C30.084,25.35,29.428,26.006,28.616,26.006L28.616,26.006z M22.012,28.207H8.072c-1.216,0-2.201-0.984-2.201-2.201V3.994
	c0-1.216,0.985-2.201,2.201-2.201h13.94c1.217,0,2.201,0.985,2.201,2.201v22.012C24.213,27.223,23.229,28.207,22.012,28.207
	L22.012,28.207z M15.043,26.738c1.014,0,1.833-0.819,1.833-1.834c0-1.012-0.819-1.834-1.833-1.834c-1.014,0-1.835,0.822-1.835,1.834
	C13.208,25.919,14.029,26.738,15.043,26.738L15.043,26.738z M18.711,2.526h-7.336c-0.205,0-0.368,0.166-0.368,0.368
	S11.17,3.26,11.375,3.26h7.336c0.203,0,0.366-0.165,0.366-0.367S18.914,2.526,18.711,2.526L18.711,2.526z M22.747,4.728
	c0-0.406-0.329-0.734-0.735-0.734H8.072c-0.405,0-0.733,0.328-0.733,0.734V20.87c0,0.403,0.328,0.733,0.733,0.733h13.94
	c0.406,0,0.735-0.33,0.735-0.733V4.728L22.747,4.728z M0,24.539V6.195c0-0.81,0.657-1.467,1.467-1.467h3.669v1.467H1.467
	c-0.404,0-0.733,0.328-0.733,0.734v14.674c0,0.404,0.329,0.732,0.733,0.732h3.669v3.668H1.467C0.657,26.006,0,25.35,0,24.539
	L0,24.539z"/>
<path display="none" fill="#333333" d="M26.686,23.549c1.844,2.446,3.605,4.76,1.674,6.159c-1.043,0.757-2.276-0.269-3.854-1.86
	c-2.095-2.105-7.101-8.775-7.101-8.775s-2.083,1.005-3.381,2.849c-0.873,1.233,0.287,1.947,1.5,4.071
	c0.621,1.08,0.692,2.715-0.197,3.156c-1.356,0.678-2.252-0.517-4.438-4.275c-0.593-1.021-1.828-3.393-0.976-4.253
	c2.539-2.575,4.813-4.745,4.813-4.745l-2.638-3.024c0,0-1,0.536-2.272,1.201c-1.083,0.567-2.314,1.27-3.767,1.344
	c-1.579,0.08-2.703-1.775-4.343-4.067C0.43,9.551,0.659,8.298,1.45,7.918c1.125-0.543,2.198-0.213,2.83,0.918
	c1.425,2.569,2.087,2.719,2.087,2.719s3.733-1.294,4.391-3.202c0.378-1.098,5.125-0.557,5.125-0.557s6.196,0.581,6.684,1.03
	c0.488,0.449-1.578,7.854-1.578,7.854s-0.314-0.131,1.074,1.438C23.366,19.587,25.238,21.634,26.686,23.549L26.686,23.549z
	 M16.816,10.875l2.942,3.199l0.04-2.518L16.816,10.875L16.816,10.875z M11.485,6.399c-1.767,0-3.198-1.434-3.198-3.2
	C8.288,1.432,9.718,0,11.485,0s3.199,1.432,3.199,3.199C14.684,4.965,13.252,6.399,11.485,6.399L11.485,6.399z"/>
<path display="none" fill="#333333" d="M11.859,29.938c-4.991,0.07-9.098-2.412-9.179-5.549c-0.078-3.136,3.903-5.738,8.893-5.81
	c4.99-0.073,9.099,2.411,9.179,5.548C20.83,27.264,16.85,29.861,11.859,29.938L11.859,29.938z M19.708,25.084
	c-0.696,0.163-1.396-0.271-1.56-0.969L13.669,1.741c-0.164-0.7,0.271-1.397,0.968-1.561c0.698-0.161,1.397,0.271,1.558,0.971
	l4.479,22.375C20.839,24.223,20.406,24.922,19.708,25.084L19.708,25.084z M25.875,14.598c0,0-0.497-4.1-2.438-5.815
	c-1.941-1.72-5.982,0.008-5.982,0.008l-2.563-8.644c0,0,10.377,2.094,12.062,7.862C28.197,12.274,25.875,14.598,25.875,14.598
	L25.875,14.598z"/>
<path display="none" fill="#333333" d="M15.042,15.31c-2.767,0-5.012-2.776-5.012-6.199c0-3.425,2.245-6.2,5.012-6.2
	c2.767,0,5.011,2.774,5.011,6.2C20.053,12.533,17.809,15.31,15.042,15.31L15.042,15.31z M21.305,27.861H8.985
	c0,0-4.019,0.418-4.019-3.6c0-4.688,1.276-8.814,3.475-8.814c2.994,0,2.946,2.441,2.946,2.441h7.281c0,0,0.709-2.533,2.77-2.533
	c3.521,0,3.625,6.135,3.625,8.849C25.063,28.229,21.305,27.861,21.305,27.861L21.305,27.861z M25.051,11.588
	c-2.076,0-3.758-1.961-3.758-4.379s1.682-4.376,3.758-4.376c2.073,0,3.756,1.958,3.756,4.376S27.124,11.588,25.051,11.588
	L25.051,11.588z M30.021,19.092h-3.681c0,0,0.019-2.279-0.698-3.527c-0.945-1.644-4.326-1.468-4.326-1.468l0.008-1.268
	c0,0,0.713-0.147,0.984-0.703c0.342-0.703,0.262-1.853,0.262-1.853h3.771c0,0-0.231,2.078,0.781,2.504
	c0.771,0.325,2.022,0.638,2.419,1.723C30.255,16.436,30.021,19.092,30.021,19.092L30.021,19.092z M5.007,11.588
	c-2.073,0-3.754-1.961-3.754-4.379s1.681-4.376,3.754-4.376c2.075,0,3.757,1.958,3.757,4.376S7.082,11.588,5.007,11.588
	L5.007,11.588z M4.416,15.564c-0.718,1.248-0.699,3.526-0.699,3.526H0.036c0,0-0.231-2.655,0.477-4.593
	c0.398-1.085,1.651-1.398,2.419-1.723c1.017-0.426,0.785-2.504,0.785-2.504h3.771c0,0-0.081,1.15,0.263,1.853
	c0.27,0.556,0.982,0.703,0.982,0.703l0.007,1.268C8.74,14.095,5.36,13.921,4.416,15.564L4.416,15.564z"/>
<path display="none" fill="#333333" d="M29.932,8.238l-5.92,16.334c-0.197,0.488-0.748,0.721-1.232,0.525
	c-0.485-0.193-0.721-0.746-0.525-1.23l5.922-16.333c0.194-0.484,0.746-0.721,1.229-0.527C29.893,7.201,30.125,7.754,29.932,8.238
	L29.932,8.238z M18.979,25.143H1.934c-1.044,0-1.894-0.847-1.894-1.893L7.871,2.609c0.395-0.953,0.848-1.895,1.895-1.895h17.044
	c1.519,0,2.111,1.328,1.896,1.895c-0.218,0.567-7.521,19.604-7.831,20.641S20.025,25.143,18.979,25.143L18.979,25.143z
	 M24.499,6.121c0-0.752-0.608-1.361-1.36-1.361H12.235c-0.749,0-1.358,0.609-1.358,1.361c0,0.751,0.609,1.361,1.358,1.361h10.902
	C23.891,7.482,24.499,6.873,24.499,6.121L24.499,6.121z M22.982,10.892c0-0.368-0.299-0.669-0.668-0.669H8.838
	c-0.371,0-0.669,0.301-0.669,0.669c0,0.371,0.298,0.672,0.669,0.672h13.477C22.684,11.563,22.982,11.263,22.982,10.892
	L22.982,10.892z M1.379,26.527h19.063c0.762,0,1.379,0.617,1.379,1.377c0,0.768-0.617,1.383-1.379,1.383H1.379
	C0.617,29.287,0,28.672,0,27.904C0,27.145,0.617,26.527,1.379,26.527L1.379,26.527z"/>
<path display="none" fill="#333333" d="M29.99,21.896h-2.404c-0.023,2.765-2.273,5-5.045,5c-2.775,0-5.023-2.234-5.047-5.006
	l-4.944-0.002c-0.015,2.771-2.257,5.008-5.028,5.008s-5.021-2.246-5.031-5.014H0.034c0,0-0.891-18.713,6.398-18.713
	c3.899,0,8.183-0.594,11.312,1.749c2.689,2.014,1.816,4.272,3.324,5.779c1.507,1.506,1.839,1.329,3.935,1.329
	C30.988,12.027,29.99,21.896,29.99,21.896L29.99,21.896z M7.526,24.404c1.384,0,2.509-1.12,2.509-2.506
	c0-1.385-1.125-2.51-2.509-2.51c-1.384,0-2.506,1.125-2.506,2.51C5.02,23.284,6.143,24.404,7.526,24.404L7.526,24.404z
	 M13.888,6.308H7.002c-1.271,0-2.298,1.027-2.298,2.295S5.731,10.9,7.002,10.9h6.886c1.27,0,2.297-1.029,2.297-2.297
	S15.157,6.308,13.888,6.308L13.888,6.308z M22.52,19.411c-1.385,0-2.508,1.123-2.508,2.507c0,1.387,1.123,2.51,2.508,2.51
	s2.508-1.123,2.508-2.51C25.025,20.534,23.904,19.411,22.52,19.411L22.52,19.411z"/>
<path display="none" fill="#333333" d="M29.616,11.27c-0.071-0.027-0.151-0.046-0.234-0.046h-6.696
	c0.299-0.053,0.532-0.302,0.532-0.615c0-0.356-0.286-0.642-0.638-0.642H11.865c-0.352,0-0.637,0.286-0.637,0.642
	c0,0.352,0.286,0.637,0.637,0.637h8.633c-0.295,0.051-0.521,0.295-0.521,0.605c0,0.315,0.233,0.562,0.535,0.61h8.203
	c0.708,0,1.282,0.571,1.282,1.279c0,0.021-0.011,0.031-0.011,0.051c0,0.01,0.006,0.02,0.006,0.029v9.934
	c0,0.684-0.555,1.24-1.243,1.24c-0.687,0-1.242-0.557-1.242-1.24v-8.732h-4.724L16.46,18.45c-0.797,0.432-2.088,0.432-2.885,0
	L0.598,11.416c-0.797-0.432-0.797-1.132,0-1.562l12.977-7.035c0.797-0.432,2.088-0.432,2.885,0l12.978,7.035
	C30.154,10.24,30.191,10.84,29.616,11.27L29.616,11.27z M23.732,17.355v4.998l-8.197,5.151L5.012,21.542v-5.31l10.541,5.061
	L23.732,17.355L23.732,17.355z"/>
<path display="none" fill="#333333" d="M21.793,15.023c-1.098,0-2.131-0.248-3.068-0.672L8.497,24.4c0,0,3.949,1.742,5.986,1.273
	c2.039-0.467,2.675-2.48,2.675-2.48h-1.35c0,0,0.553-1.307,1.953-2.069c1.188-0.649,4.764-0.679,4.764-0.679
	s-2.201,5.816-4.877,7.81C14.976,30.25,0.74,29.953,0.74,29.953s-0.072-9.284,0.086-12.262C1.233,9.967,9.824,6.88,9.824,6.88
	s0.117,2.035-0.464,4.3c-0.572,2.215-2.296,2.504-2.296,2.504v-1.36c0,0-1.665,0.349-2.215,2.207
	c-0.681,2.294,1.147,7.345,1.147,7.345l9.63-10.107c-0.825-1.202-1.313-2.657-1.313-4.226c0-4.131,3.349-7.48,7.48-7.48
	c4.133,0,7.482,3.349,7.482,7.48C29.275,11.676,25.926,15.023,21.793,15.023L21.793,15.023z M21.764,4.18
	c-1.877,0-3.396,1.52-3.396,3.393c0,1.877,1.519,3.397,3.396,3.397c1.873,0,3.396-1.52,3.396-3.397
	C25.158,5.7,23.637,4.18,21.764,4.18L21.764,4.18z"/>
<path display="none" fill="#333333" d="M28.52,29.956H17.682c-0.793,0-1.436-0.642-1.436-1.433V17.648
	c0-0.789,0.643-1.433,1.436-1.433H28.52c0.791,0,1.434,0.644,1.434,1.433v10.875C29.952,29.314,29.311,29.956,28.52,29.956
	L28.52,29.956z M24.316,20.025c0.469,0,0.908,0.115,1.307,0.301v-0.055c0.007,0,0.014,0.004,0.021,0.004
	c0.364,0,0.662-0.297,0.662-0.662c0-0.364-0.298-0.661-0.662-0.661c-0.008,0-0.015,0.005-0.021,0.005v-0.025
	c-0.4-0.121-0.816-0.207-1.258-0.207c-2.418,0-4.379,1.963-4.379,4.381s1.961,4.381,4.379,4.381c0.445,0,0.863-0.086,1.267-0.215
	c0.015,0,0.026,0.008,0.041,0.008c0.38,0,0.688-0.309,0.688-0.69c0-0.38-0.309-0.69-0.688-0.69c-0.149,0-0.278,0.061-0.394,0.139
	c-0.303,0.104-0.622,0.178-0.963,0.178c-1.707,0-3.092-1.385-3.092-3.093S22.609,20.025,24.316,20.025L24.316,20.025z
	 M19.805,13.746H8.963c-0.79,0-1.433-0.64-1.433-1.433V1.467c0-0.792,0.643-1.433,1.433-1.433h10.842
	c0.793,0,1.432,0.64,1.432,1.433v10.846C21.236,13.105,20.598,13.746,19.805,13.746L19.805,13.746z M15.254,2.568l-1.727-0.017
	l-3.54,8.706h2.503l0.7-2.444h2.4l0.684,2.444h2.518L15.254,2.568L15.254,2.568z M14.405,4.58l0.835,2.98h-1.689L14.405,4.58
	L14.405,4.58z M13.75,17.729v10.795c0,0.793-0.641,1.434-1.433,1.434H1.479c-0.792,0-1.435-0.641-1.435-1.434V17.729
	c0-0.791,0.643-1.433,1.435-1.433h10.838C13.109,16.296,13.75,16.938,13.75,17.729L13.75,17.729z M9.988,21.637
	c0-1.598-1.295-2.896-2.894-2.896c-0.799,0-1.523,0.321-2.047,0.848v7.129c0.526,0.464,1.21,0.755,1.967,0.755
	c1.653,0,2.993-1.34,2.993-2.992c0-0.529-0.149-1.019-0.389-1.451C9.845,22.613,9.988,22.145,9.988,21.637L9.988,21.637z
	 M7.528,26.221c-0.684,0-1.236-0.535-1.236-1.201c0-0.664,0.553-1.199,1.236-1.199c0.681,0,1.233,0.535,1.233,1.199
	C8.761,25.686,8.209,26.221,7.528,26.221L7.528,26.221z M7.511,22.518c-0.688,0-1.248-0.566-1.248-1.265
	c0-0.696,0.56-1.265,1.248-1.265c0.688,0,1.248,0.568,1.248,1.265C8.759,21.95,8.199,22.518,7.511,22.518L7.511,22.518z"/>
<path display="none" fill="#333333" d="M14.917,15.005c-4.13,0-7.477-3.35-7.477-7.479s3.347-7.478,7.477-7.478
	c4.132,0,7.478,3.349,7.478,7.478C22.395,11.656,19.049,15.005,14.917,15.005L14.917,15.005z M6.833,24.959
	C3.06,24.959,0,21.898,0,18.126c0-3.773,3.06-6.833,6.833-6.833s6.833,3.06,6.833,6.833C13.666,21.898,10.606,24.959,6.833,24.959
	L6.833,24.959z M23.115,24.917c-3.762,0-6.811-3.05-6.811-6.812c0-3.763,3.049-6.813,6.811-6.813s6.813,3.05,6.813,6.813
	C29.928,21.867,26.877,24.917,23.115,24.917L23.115,24.917z M19.958,28.675V30H9.961v-1.197c0,0,2.604-0.719,3.218-2.771
	c0.743-2.479,0.452-6.372,0.452-6.372l-2.735-5.897l0.128-0.469l8.375-0.086l-2.991,6.409c0,0-0.265,3.979,0.532,6.547
	C17.443,27.803,19.958,28.675,19.958,28.675L19.958,28.675z"/>
<path display="none" fill="#333333" d="M25.714,24.286h-5.337l1.131,1.43h2.063c1.185,0,2.144,0.958,2.144,2.142
	s-0.959,2.144-2.144,2.144H6.429c-1.183,0-2.143-0.96-2.143-2.144s0.96-2.142,2.143-2.142h1.945l1.28-1.43H4.286
	C1.917,24.286,0,22.366,0,20V4.284C0,1.919,1.917,0,4.286,0h21.428C28.082,0,30,1.919,30,4.284V20
	C30,22.366,28.082,24.286,25.714,24.286L25.714,24.286z M25.703,6.052c0-1.781-1.444-3.224-3.227-3.224H7.52
	c-1.78,0-3.223,1.443-3.223,3.224v10.725C4.297,18.559,5.739,20,7.52,20h14.958c1.78,0,3.226-1.441,3.226-3.225L25.703,6.052
	L25.703,6.052z"/>
<path display="none" fill="#333333" d="M24.762,30.076V26.33L0.076,7.155V0.102h7.053l19.395,24.684h3.473v5.291L24.762,30.076
	L24.762,30.076z M19.471,30.021h-3.525V26.99l10.634-10.965l3.418-0.057v3.527L19.471,30.021L19.471,30.021z M10.931,25.988
	l-5.438,4.033v-5.418L0.076,24.55l2.72-5.391l8.177-1.341L10.931,25.988L10.931,25.988z M24.92,6.133l-4.814,4.895l-2.166-2.024
	l4.809-5.05l-3.596-3.831l9.447,0.02l0.07,9.519L24.92,6.133L24.92,6.133z"/>
<path display="none" fill="#333333" d="M29.708,11.481c-0.438,0.979-0.742,1.395-0.742,1.395l-3.362-0.772l-3.269,1.91l0.548-2.31
	l-3.047,2.497l-1.792-2.362l-3.584,4.563l-0.621-4.446l-2.972,3.237c0,0-0.343-2.967-1.07-2.807
	c-1.365,0.303-2.805,2.835-2.805,2.835s-2.839-0.718-4.342-1.063c-1.345-0.308-2.615-0.286-2.615-0.286
	c0-0.001,1.638-3.216,3.555-5.146c1.328-1.337,3.153-1.615,3.153-1.615S6.604,5.875,5.861,4.92c-0.801-1.032-2.21-1.79-2.21-1.79
	s1.502-0.728,3.251-0.783c2.433-0.074,5.342,0.52,5.342,0.52s-0.061-0.681-0.448-1.376c-0.4-0.721-1.125-1.453-1.125-1.453
	s2.654,0.151,4.798,0.818c2.072,0.643,3.642,1.802,3.642,1.802s0.191-0.453,0.117-1.043c-0.082-0.665-0.434-1.473-0.434-1.473
	s2.612,0.675,4.225,2.068c1.834,1.583,2.694,3.905,2.694,3.905s0.966-0.462,1.62-1.045c0.502-0.445,0.736-1.05,0.736-1.05
	s0.441,1.385,0.466,2.725c0.028,1.62-0.36,3.25-0.36,3.25l1.783,0.104C29.962,10.099,30.002,10.832,29.708,11.481L29.708,11.481z
	 M11.864,16.232c0.097,0.623,0.725,1.34,1.714,2.05l0.187,0.784l0.359-0.409c1.299,0.817,3.019,1.575,4.86,2.045
	c3.164,0.806,6.623,0.989,8.611,1.026c-0.225,0.758-0.496,1.492-0.832,2.154C24.145,29.055,17.716,30,17.716,30
	s-8.021-2.688-9.123-5.311C7.49,22.068,7.22,16.385,7.22,16.385l2.924,1.643L11.864,16.232L11.864,16.232z M9.985,23.725
	c-0.467,0.234,3.816,1.248,3.816,1.248l-1.324-1.947l0.039-4.752C12.517,18.273,10.453,23.492,9.985,23.725L9.985,23.725z
	 M28.627,14.028c0,0,0.02,2.882-0.586,5.902c-1.982,0.016-5.539-0.125-8.29-1.16c-1.125-0.422-2.867-1.189-4.172-1.776l2.58-2.948
	l1.214,1.754l2.297-2.072l-0.544,2.067l4.421-2.431L28.627,14.028L28.627,14.028z"/>
<path display="none" fill="#333333" d="M15,30c-1.462,0-2.871-0.218-4.206-0.609c1.858,0.233,11.538,0.896,14.571-10.285
	C28.693,6.846,22.43,2.32,20.32,1.176c-0.396-0.248-0.676-0.327-0.676-0.327s0.27,0.107,0.676,0.327
	c1.457,0.924,4.58,4.345,1.783,16.223c-2.744,11.662-10.294,11.971-11.475,11.949c-0.104-0.031-0.203-0.076-0.307-0.109
	c-0.026-0.014-0.198-0.118-0.488-0.316c-1.523-1.109-5.86-5.361-3.122-16.464C9.434,1.435,17.83,0.744,19.227,0.704
	c6.197,1.825,10.73,7.548,10.73,14.34C29.957,23.303,23.258,30,15,30L15,30z M19.73,0.878c-1.273-0.411-4.5,5.561-7.043,13.419
	c-2.542,7.857-3.638,14.529-2.365,14.939c1.272,0.414,4.428-5.59,6.974-13.448C19.84,7.932,21.002,1.29,19.73,0.878L19.73,0.878z
	 M0.043,15.043C0.043,6.782,6.739,0.087,15,0.087c1.438,0,2.816,0.213,4.131,0.591C17.322,0.577,7.284,0.519,3.665,11.28
	c-3.441,10.221,4.114,16.23,6.17,17.641c0.266,0.196,0.444,0.298,0.481,0.317C4.352,27.27,0.043,21.665,0.043,15.043L0.043,15.043z"
	/>
<path display="none" fill="#333333" d="M18.982,11.264c-1.551,0.048-2.094,1.373-2.094,1.373l0.049,3.71c0,0,6.571,3.035,6.58,7.426
	c-2.75,0.011-17.274-0.02-17.274-0.02l1.23-3.697l1.92-0.048l0.009-3.034c0,0-1.406-0.609-1.36-2.351
	c0.047-1.736,0.784-2.299,0.784-2.299s-1.13-8.978,5.448-12.266c0.375,0.986,0.658,1.838,0.658,1.838s7.937,4.414,8.968,5.776
	c1.059,1.112,1.09,2.642,0.035,4.493C23.012,13.439,20.531,11.216,18.982,11.264L18.982,11.264z M15.711,5.054
	c-0.706,0-1.277,0.573-1.277,1.28c0,0.706,0.572,1.281,1.277,1.281c0.709,0,1.281-0.575,1.281-1.281
	C16.992,5.627,16.42,5.054,15.711,5.054L15.711,5.054z M26.869,30L3.131,29.992l2.646-4.938l18.569-0.002L26.869,30L26.869,30z"/>
<path display="none" fill="#333333" d="M13.507,28.887c0,0,2.595-3.314,4.491-5.424c0.956-1.061,1.91-1.681,1.91-1.681
	s0.715-0.253,1.186,0.04c0.366,0.228,0.516,1.017,0.516,1.017s0.349,2.354,1.846,3.114c2.045,1.04,4.025-0.473,4.025-0.473
	s2.066-1.699,1.271-3.307c-0.761-1.533-4.382-2.979-4.382-2.979s-1.4-0.672-1.217-1.359c0.195-0.723,1.979-1.458,1.979-1.458
	l4.873-2.643l-4.521-4.698c0,0-1.092-0.77-1.818-0.526c-0.85,0.281-1.352,1.586-1.352,1.586s-0.584,1.943-2.541,2.125
	c-1.422,0.131-3.272-1.422-3.272-1.422s-1.551-1.129-0.597-2.18c1.039-1.146,4.591-2.224,4.591-2.224s0.845-0.592,0.696-1.172
	c-0.146-0.563-1.283-1.118-1.283-1.118l-4.934-2.994c0,0-1.685,2.358-3.298,4.09c-1.11,1.188-2.221,1.84-2.221,1.84
	S8.612,7.679,8.223,7.226c-0.298-0.343-0.119-1.06-0.284-1.613C7.738,4.945,7.222,4.46,7.222,4.46S6.238,3.868,5.175,3.988
	c-1.244,0.142-2.59,1-2.59,1S1.079,6.08,1.397,7.009c0.326,0.948,2.479,1.737,2.479,1.737S5.92,9.374,5.883,10.27
	c-0.068,1.62-1.832,1.941-1.832,1.941L0,14.265l3.406,4.344c0,0,1.154,0.771,2.057,0.438c0.634-0.236,1.114-1.611,1.114-1.611
	s0.768-1.602,2.808-1.811c2.059-0.211,2.948,1.284,2.948,1.284c0-0.001,1.835,1.434,1.088,2.694
	c-0.749,1.265-4.085,2.354-4.085,2.354s-1.831,0.987-1.845,1.881c-0.017,1.086,1.787,2.111,1.787,2.111L13.507,28.887L13.507,28.887
	z"/>
<path display="none" fill="#333333" d="M26.329,17.534V13.78h3.754v3.754H26.329L26.329,17.534z M25.102,13.741v3.793h-3.754v-3.793
	H25.102L25.102,13.741z M27.593,25.604c-5.636,5.861-17.729,5.861-23.366,0c-5.636-5.856-5.636-15.358,0-21.218
	c5.637-5.859,17.73-5.859,23.366,0L16.688,14.999L27.593,25.604L27.593,25.604z M21.378,5.162c-1.431-0.717-3.207-1.44-4.905-1.44
	c-6.014,0-12.699,3.837-12.699,11.321c0,7.369,6.685,11.323,12.699,11.323c1.896,0,3.803-0.583,5.356-1.466l-8.02-9.681
	L21.378,5.162L21.378,5.162z M11.319,7.506h3.753v3.751h-3.753V7.506L11.319,7.506z"/>
<path display="none" fill="#333333" d="M26.486,25.088l-8.002,4.541c-0.576,0.241-1.826,0.338-1.959,0.338h-2.3
	c-0.242,0-1.691-0.111-2.275-0.391l-8.797-3.93C1.451,24.835,0.07,22.63,0.07,20.723V6.669c-0.012-0.146-0.012-0.291,0-0.436
	l0.102-0.498c0.102-0.297,0.267-0.55,0.509-0.665l12.186-4.668c0.841-0.403,2.204-0.403,3.043,0L29.342,5.07
	c0.264,0.127,0.438,0.415,0.533,0.754c0,0,0.064,0.454,0.064,1.007c0,0.553,0,13.351,0,13.351
	C29.939,22.091,28.393,24.286,26.486,25.088L26.486,25.088z M2.555,11.182v8.021c0,1.195,0.866,2.576,1.934,3.086l7.333,3.771
	c1.069,0.51,1.934-0.049,1.934-1.242v-9.041c0-1.195-0.864-2.578-1.934-3.088L4.489,9.94C3.421,9.431,2.555,9.985,2.555,11.182
	L2.555,11.182z M24.674,5.494l-9.202-3.173c-0.534-0.231-1.399-0.231-1.931,0L5.038,5.494c-0.534,0.23-0.534,0.602,0,0.829
	l8.346,3.55c0.533,0.228,1.399,0.228,1.931,0l9.359-3.55C25.207,6.096,25.207,5.724,24.674,5.494L24.674,5.494z M27.469,11.142
	c0-1.189-0.861-1.744-1.924-1.238l-7.379,3.003c-1.061,0.506-1.924,1.884-1.924,3.073v8.871c0,1.188,0.863,1.742,1.924,1.235
	l7.379-3.286c1.063-0.509,1.924-1.885,1.924-3.074V11.142L27.469,11.142z M23.707,20.055c-0.691,0-1.252-0.561-1.252-1.25
	c0-0.695,0.561-1.256,1.252-1.256s1.254,0.561,1.254,1.256C24.961,19.494,24.398,20.055,23.707,20.055L23.707,20.055z M23.68,15.023
	c-0.686,0-1.244-0.557-1.244-1.243c0-0.686,0.56-1.242,1.244-1.242c0.686,0,1.242,0.557,1.242,1.242
	C24.922,14.466,24.365,15.023,23.68,15.023L23.68,15.023z M19.986,22.523c-0.697,0-1.262-0.566-1.262-1.264
	c0-0.699,0.563-1.264,1.262-1.264c0.699,0,1.266,0.564,1.266,1.264C21.252,21.957,20.686,22.523,19.986,22.523L19.986,22.523z
	 M19.965,17.549c-0.705,0-1.281-0.572-1.281-1.281s0.576-1.283,1.281-1.283c0.711,0,1.285,0.574,1.285,1.283
	S20.676,17.549,19.965,17.549L19.965,17.549z M14.945,7.542c-0.68,0-1.232-0.552-1.232-1.236c0-0.679,0.552-1.231,1.232-1.231
	c0.682,0,1.235,0.552,1.235,1.231C16.18,6.99,15.627,7.542,14.945,7.542L14.945,7.542z M10.037,21.277
	c-0.687,0-1.244-0.559-1.244-1.244s0.558-1.242,1.244-1.242c0.688,0,1.244,0.557,1.244,1.242
	C11.281,20.721,10.724,21.277,10.037,21.277L10.037,21.277z M7.542,15.021c-0.683,0-1.234-0.552-1.234-1.233
	s0.552-1.234,1.234-1.234c0.681,0,1.233,0.554,1.233,1.234C8.774,14.469,8.222,15.021,7.542,15.021L7.542,15.021z M5.025,18.751
	c-0.688,0-1.244-0.558-1.244-1.244c0-0.685,0.557-1.241,1.244-1.241s1.244,0.557,1.244,1.241C6.27,18.193,5.712,18.751,5.025,18.751
	L5.025,18.751z"/>
<path display="none" fill="#333333" d="M15,30C6.713,30,0,23.282,0,15C0,6.715,6.713-0.001,15-0.001
	c8.285,0,14.998,6.716,14.998,15.001C29.998,23.282,23.285,30,15,30L15,30z M15,1.875C7.752,1.875,1.875,7.75,1.875,15
	c0,7.248,5.877,13.122,13.125,13.122S28.125,22.248,28.125,15C28.125,7.75,22.248,1.875,15,1.875L15,1.875z M15.079,21.896
	c0,0-11.894-8.103-5.833-12.144c3.498-2.332,5.771,2.399,5.771,2.399s2.277-4.731,5.772-2.399
	C26.852,13.795,15.079,21.896,15.079,21.896L15.079,21.896z"/>
<path display="none" fill="#333333" d="M15.029,30C6.73,30,0,23.27,0,14.969C0,6.667,6.73-0.063,15.029-0.063
	c8.303,0,15.032,6.73,15.032,15.033C30.063,23.27,23.332,30,15.029,30L15.029,30z M15.029,1.817
	c-7.264,0-13.152,5.886-13.152,13.152c0,7.263,5.888,13.149,13.152,13.149c7.264,0,13.153-5.886,13.153-13.149
	C28.182,7.703,22.293,1.817,15.029,1.817L15.029,1.817z M20.75,22.309H9.354c-0.385,0-0.702-0.306-0.702-0.682
	c0,0-1.116-1.425-1.116-2.04c0-1.433,1.904-1.892,3.977-2.726c2.053-0.82,1.528-1.828,1.528-1.828h0.05
	c-0.351-0.323-0.653-0.725-0.901-1.177c-0.743-0.398-1.324-2.123-1.106-2.576c0.133-0.277,0.296-0.21,0.405-0.118
	c0-0.035-0.008-0.07-0.008-0.108c0-3.743,1.613-4.553,3.549-4.553c0.66,0,1.826,0.185,1.996,1.082
	c1.408-0.314,1.623,1.779,1.537,3.472c0,0.031-0.006,0.063-0.006,0.092c0.104-0.082,0.258-0.125,0.379,0.134
	c0.221,0.457-0.367,2.197-1.111,2.582l0.009-0.05c-0.245,0.473-0.554,0.889-0.897,1.221h0.047c0,0-0.479,1.157,1.553,1.829
	c2.119,0.705,3.977,1.291,3.977,2.725c0,0.615-1.059,2.04-1.059,2.04C21.451,22.003,21.139,22.309,20.75,22.309L20.75,22.309z"/>
<path display="none" fill="#333333" d="M15.036,0C6.733,0,0,6.731,0,15.036c0,8.305,6.733,15.036,15.036,15.036
	c8.305,0,15.038-6.73,15.038-15.036C30.072,6.731,23.341,0,15.036,0z M22.128,11.312c-2.163-1.716-5.546-4.277-5.546-7.959
	C19.293,7.232,22.251,7.531,22.128,11.312z M16.605,26.456c3.233-3.531-1.192-5.919-1.988-8.704
	c-0.746,3.135-5.073,4.676-2.784,8.007c-8.704-1.094-4.626-12.831-4.626-12.831s1.442,2.66,2.96,3.208
	c-2.189-4.949,0.472-9.476,4.848-11.962c0.945,5.471,5.594,7.335,7.163,10.321C23.744,17.479,24.066,24.938,16.605,26.456z"/>
<g display="none">
	<circle display="inline" fill="#333333" cx="12.238" cy="9.979" r="3.147"/>
	<path display="inline" fill="#333333" d="M14.986,0C6.71,0,0,6.708,0,14.984s6.71,14.987,14.986,14.987s14.985-6.711,14.985-14.987
		S23.262,0,14.986,0z M20.541,22.396h-0.025c0,0.008,0.006,0.016,0.006,0.023c0,0.594-0.48,1.074-1.074,1.074
		c-0.592,0-1.074-0.48-1.074-1.074c0-0.009,0.006-0.016,0.006-0.023H18.37c0.046-0.303,0.075-0.61,0.075-0.928
		c0-3.42-2.772-6.194-6.191-6.194c-3.421,0-6.194,2.774-6.194,6.194c0,0.305,0.028,0.602,0.073,0.893
		c0.001,0.021,0.013,0.039,0.013,0.063c0,0.599-0.482,1.081-1.079,1.081c-0.519,0-0.933-0.374-1.037-0.861v0.187
		c-0.074-0.442-0.121-0.896-0.121-1.36c0-3.332,1.959-6.202,4.784-7.538c-1.086-0.976-1.784-2.377-1.784-3.953
		c0-2.943,2.385-5.33,5.33-5.33c2.943,0,5.33,2.386,5.33,5.33c0,1.572-0.693,2.969-1.773,3.944c2.835,1.335,4.803,4.207,4.803,7.545
		C20.596,21.782,20.575,22.092,20.541,22.396z M24.825,22.059c-0.507,0-0.913-0.408-0.918-0.914c0,0-0.009-0.666-0.027-1.008
		c-0.147-2.59-1.918-4.708-4.251-5.481c0,0-1.219-0.366-1.318-1.592c0-1.252,1.213-1.749,1.213-1.749
		c0.826-0.563,1.371-1.511,1.371-2.587c0-1.557-1.139-2.834-2.629-3.072c0,0-1.132-0.041-1.132-1.154c0-1.04,1.038-1.052,1.515-0.98
		c2.529,0.382,4.455,2.566,4.455,5.207c0,1.716-0.826,3.229-2.088,4.202c2.795,1.24,4.744,4.033,4.744,7.287
		c0,0.257-0.014,0.861-0.014,0.921C25.746,21.646,25.336,22.059,24.825,22.059z"/>
</g>
<path display="none" fill="#333333" d="M28.563,26.42c0,0.489-0.027,0.973-0.08,1.449c0,0.012,0.004,0.021,0.004,0.033
	c0,1.1-0.891,1.99-1.991,1.99c-1.099,0-1.988-0.892-1.988-1.99c0-0.01,0.003-0.02,0.003-0.026H24.5
	c0.07-0.478,0.119-0.959,0.119-1.456c0-5.365-4.35-9.716-9.715-9.716c-5.365,0-9.715,4.351-9.715,9.716
	c0,0.497,0.052,1.456,0.052,1.456c-0.015,1.077-0.887,1.94-1.963,1.94c-0.9,0-1.741-0.541-1.87-1.383
	c-0.057-0.186-0.162-1.563-0.162-2.015c0-5.369,3.106-10.002,7.614-12.232c-1.444-1.503-2.339-3.542-2.339-5.791
	c0-4.616,3.745-8.359,8.361-8.359c4.617,0,8.359,3.743,8.359,8.359c0,2.241-0.888,4.274-2.324,5.776
	C25.439,16.396,28.563,21.038,28.563,26.42L28.563,26.42z M14.88,4.03c-2.412,0-4.368,1.956-4.368,4.369
	c0,2.406,1.945,4.354,4.351,4.366c0.014,0,0.026-0.002,0.039-0.002c0.003,0,0.005,0,0.009,0c2.397-0.018,4.336-1.963,4.336-4.364
	C19.248,5.986,17.293,4.03,14.88,4.03L14.88,4.03z"/>
<path display="none" fill="#333333" d="M23.284,21.002l3.208,4.768c0.717,1.067,0.436,2.515-0.633,3.231l-0.965,0.649
	c-1.065,0.718-2.514,0.436-3.23-0.631l-3.209-4.769c-0.527-0.785-0.514-1.771-0.045-2.524l-1.012-1.504
	c-1.184,0.465-2.464,0.728-3.813,0.728C7.8,20.95,3.11,16.262,3.11,10.474C3.111,4.69,7.801,0,13.587,0
	c5.784,0,10.476,4.69,10.476,10.474c0,3.393-1.621,6.398-4.119,8.314l0.852,1.262C21.716,19.82,22.723,20.167,23.284,21.002
	L23.284,21.002z M13.587,3.417c-3.899,0-7.059,3.16-7.059,7.057c0,3.899,3.16,7.059,7.059,7.059c3.897,0,7.06-3.16,7.06-7.059
	C20.646,6.577,17.484,3.417,13.587,3.417L13.587,3.417z"/>
<path display="none" fill="#333333" d="M29.893,15.999c-0.037,1.058-0.928,1.888-1.984,1.851L24.6,17.734
	c-0.295,1.014-0.76,1.951-1.336,2.805l2.233,2.48c0.708,0.785,0.646,1.998-0.144,2.707l-0.713,0.645
	c-0.785,0.708-2,0.645-2.709-0.145l-2.229-2.476c-0.705,0.379-1.458,0.685-2.256,0.884v3.313c0,1.062-0.857,1.919-1.918,1.919H14.57
	c-1.058,0-1.919-0.857-1.919-1.919v-3.29c-1.038-0.251-2.01-0.669-2.893-1.214l-2.357,2.274c-0.763,0.738-1.976,0.716-2.711-0.046
	l-0.667-0.689c-0.735-0.762-0.713-1.976,0.049-2.713l2.333-2.254c-0.533-0.902-0.908-1.902-1.138-2.957l-3.24-0.113
	c-1.059-0.037-1.888-0.924-1.849-1.983l0.032-0.959c0.037-1.059,0.926-1.888,1.985-1.85l3.2,0.112
	c0.294-1.045,0.769-2.011,1.365-2.889L4.604,6.983C3.896,6.196,3.96,4.982,4.748,4.273L5.46,3.632
	c0.786-0.709,1.999-0.646,2.708,0.141l2.15,2.386c0.731-0.39,1.509-0.699,2.334-0.9V2.051c0-1.058,0.861-1.917,1.919-1.917h0.958
	c1.062,0,1.918,0.86,1.918,1.917v3.23c1.047,0.264,2.025,0.693,2.912,1.257L22.7,4.281c0.762-0.735,1.976-0.715,2.712,0.047
	l0.665,0.689c0.735,0.763,0.716,1.978-0.048,2.714l-2.354,2.273c0.516,0.897,0.881,1.889,1.096,2.935l3.304,0.116
	c1.059,0.038,1.889,0.926,1.85,1.984L29.893,15.999L29.893,15.999z M15.01,9.654c-2.93,0-5.307,2.375-5.307,5.304
	c0,2.933,2.377,5.306,5.307,5.306c2.931,0,5.306-2.373,5.306-5.306C20.316,12.03,17.941,9.654,15.01,9.654L15.01,9.654z"/>
<path display="none" fill="#333333" d="M18.109,29.081H8.204v-0.035c-1.246-0.008-2.25-1.014-2.25-2.261
	c0-1.25,1.011-2.264,2.262-2.264c0.006,0,0.014,0.002,0.02,0.002h9.918c4.025,0,7.287-3.262,7.287-7.285s-3.262-7.284-7.287-7.284
	H8.218l-0.014,5.629L0.048,8.25l8.191-7.33L8.23,5.397h9.879c6.539,0,11.843,5.301,11.843,11.841
	C29.952,23.779,24.648,29.081,18.109,29.081L18.109,29.081z"/>
<path display="none" fill="#333333" d="M15.016,0C6.722,0,0,6.722,0,15.016c0,8.294,6.722,15.018,15.016,15.018
	c8.294,0,15.018-6.724,15.018-15.018C30.033,6.722,23.311,0,15.016,0z M22.243,22.241c0,0.888-0.72,1.606-1.604,1.606h-0.453V16.62
	h-0.013V9.356c0-0.676-0.545-1.225-1.221-1.225h-1.501v6.081c0,0.444-0.359,0.803-0.803,0.803h-0.428
	c-0.443,0-0.803-0.359-0.803-0.803v-6.08h-4.386c-0.676,0-1.223,0.549-1.223,1.225v11.27c0,0.676,0.547,1.223,1.223,1.223h5.59v0.02
	c0.543,0.008,0.979,0.445,0.979,0.988c0,0.545-0.437,0.982-0.979,0.99v0.002H9.397c-0.888,0-1.606-0.72-1.606-1.606V7.79
	c0-0.887,0.718-1.605,1.606-1.605h11.24c0.887,0,1.605,0.718,1.605,1.605L22.243,22.241L22.243,22.241z"/>
<path display="none" fill="#333333" d="M15.046,0.065c-8.258,0-14.952,6.694-14.952,14.952s6.694,14.954,14.952,14.954
	C23.305,29.971,30,23.275,30,15.017S23.305,0.065,15.046,0.065z M23.721,10.498C23.227,11.08,13.965,21.343,13.7,21.607
	c-0.265,0.264-1.095,1.076-2.278,0.017c-1.253-1.199-4.836-4.449-5.085-4.714c-0.247-0.264-0.424-0.688,0-1.112
	c0.424-0.422,0.438-0.455,0.809-0.738c0.371-0.282,0.743-0.371,1.148,0c0.406,0.371,2.917,2.398,3.339,2.769
	c0.548,0.44,1.219,0.405,1.661,0c0.441-0.405,8.44-8.439,8.865-8.88c0.422-0.441,0.899-0.249,1.146,0
	c0.246,0.246,0.275,0.189,0.437,0.384C23.898,9.526,24.215,9.916,23.721,10.498z"/>
<path display="none" fill="#333333" d="M2.313,26.703c-0.998,0-2.075-1.264-2.075-2.262v-8.319c0-0.998,1.077-2.148,2.075-2.148
	c1,0,2.143-0.233,2.143,0.765v11.125C4.456,26.861,3.313,26.703,2.313,26.703L2.313,26.703z M29.671,19.426
	c-0.303,2.45-2.099,6.676-2.642,7.736c-1.291,2.523-2.795,2.836-6.797,2.836c-3.258,0-5.675-1.229-7.955-1.898
	c-3.431-1.009-5.601-1.727-5.601-1.727V13.97C15.613,9.688,16.956,2.861,19.375,0.684c2.029-1.826,3.105,0.627,3.27,3.201
	c0.153,2.514-1.758,6.22-1.758,6.22s0.693-0.07,3.584-0.07c3.561,0,4.656,3.526,4.656,3.526S30.051,16.383,29.671,19.426
	L29.671,19.426z"/>
<path display="none" fill="#333333" d="M14.978,29.876c-8.217,0-14.875-6.66-14.875-14.874c0-8.217,6.658-14.878,14.875-14.878
	c8.213,0,14.875,6.661,14.875,14.878C29.854,23.216,23.191,29.876,14.978,29.876L14.978,29.876z M14.978,1.986
	c-7.188,0-13.017,5.825-13.017,13.016c0,7.188,5.829,13.014,13.017,13.014s13.017-5.824,13.017-13.014
	C27.995,7.811,22.166,1.986,14.978,1.986L14.978,1.986z M9.074,13.513h2.928V6.122h5.951v7.391h3.02l-5.995,5.997L9.074,13.513
	L9.074,13.513z M20.881,23.882H9.074V20.95h11.807V23.882L20.881,23.882z"/>
<path display="none" fill="#333333" d="M26.848,16.42c0.025-3.365-5.469-3.183-4.152-7.79c-3.129,3.453,2.138,5.192,0.195,7.483
	c-1.943,2.291-3.721,1.451-3.721,4.048s3.582,0.476,2.998,2.61c-0.23,0.85-1.281,1.877-2.463,2.811
	c0.297-0.666,0.52-1.463,0.52-2.35c0-2.596-4.271,0.06-4.854-2.537c-0.583-2.596,6.562-4.812,5.009-9.087
	c-1.557-4.279-3.984-2.217-4.761-4.202c-0.777-1.986,3.216-3.267-0.195-7.331c1.358,3.513-3.108,3.971-4.661,9.164
	c-1.555,5.195,4.024,3.515,4.607,6.57s-4.143,2.476-5.352,6.276c-0.346,1.086-0.543,1.94-0.526,2.64
	c-0.761-0.699-1.024-3.227-1.191-3.84c-0.583-2.139,2.999-0.016,2.999-2.611s-0.695-0.914-2.639-3.206
	c-1.943-2.291,2.257-3.055-0.872-6.508c1.317,4.609-4.961,4.232-4.936,7.596c0.021,2.859,0.668,1.375,1.64,4.275
	c0.972,2.901-2.59,2.409-1.035,5.771c1.553,3.359,12.085,3.855,13.061,3.693c2.211-0.151,8.871-0.832,10.16-3.627
	c1.555-3.36-2.006-2.869-1.035-5.771C26.615,17.6,26.824,19.277,26.848,16.42L26.848,16.42z"/>
<path display="none" fill-rule="evenodd" clip-rule="evenodd" fill="#333333" d="M29.965,16.337c0,0,0.039,0.708-1.024,0.712
	c-0.837,0.006-2.699,0.127-2.699,0.127L14.986,5.998h-0.018L3.904,16.971c0,0-2.157,0.111-2.923,0.11
	c-0.909-0.004-0.945-0.709-0.945-0.709L14.968,2.124h0.018l6.925,6.571V6.001h2.91v5.455L29.965,16.337L29.965,16.337z
	 M5.122,17.415L5.122,17.415 M14.968,8.197h0.018l9.848,9.243v8.596c0,1.016-0.769,1.841-1.719,1.841h-4.843l-0.038-6.986
	c0-1.098-0.63-1.772-1.656-1.772h-3.216c-1.027,0-1.657,0.675-1.657,1.772l0.006,6.986h-4.87c-0.948,0-1.719-0.825-1.719-1.841
	v-8.62L14.968,8.197L14.968,8.197z"/>
<path display="none" fill-rule="evenodd" clip-rule="evenodd" fill="#333333" d="M15.016,30.032C6.723,30.032,0,23.309,0,15.016
	C0,6.723,6.723,0,15.016,0C23.307,0,30.03,6.723,30.03,15.016C30.03,23.309,23.307,30.032,15.016,30.032L15.016,30.032z
	 M14.993,3.715c-6.253,0-11.322,5.069-11.322,11.32c0,6.253,5.069,11.322,11.322,11.322c6.251,0,11.32-5.068,11.32-11.322
	C26.313,8.784,21.244,3.715,14.993,3.715L14.993,3.715z M18.618,21.667l-4.055-2.796c-0.685-0.438-0.885-1.351-0.446-2.035
	c0.437-0.685,1.349-0.886,2.033-0.447l4.055,2.796c0.684,0.438,0.885,1.349,0.446,2.033C20.213,21.905,19.303,22.105,18.618,21.667
	L18.618,21.667z M14.641,15.396c-0.813,0-1.474-0.66-1.474-1.474v-6.55c0-0.813,0.661-1.472,1.474-1.472s1.473,0.659,1.473,1.472
	v6.55C16.114,14.735,15.454,15.396,14.641,15.396L14.641,15.396z"/>
<path display="none" fill-rule="evenodd" clip-rule="evenodd" fill="#333333" d="M27.491,29.99h-8.558
	c-1.418,0-2.566-1.149-2.566-2.565v-8.558c0-1.418,1.148-2.567,2.566-2.567h8.558c1.418,0,2.567,1.149,2.567,2.567v8.558
	C30.059,28.841,28.909,29.99,27.491,29.99L27.491,29.99z M27.491,13.733h-8.558c-1.418,0-2.566-1.15-2.566-2.565V2.61
	c0-1.417,1.148-2.567,2.566-2.567h8.558c1.418,0,2.567,1.15,2.567,2.567v8.558C30.059,12.583,28.909,13.733,27.491,13.733
	L27.491,13.733z M27.481,4.22c0-0.884-0.718-1.601-1.6-1.601h-5.338c-0.886,0-1.601,0.717-1.601,1.601v5.338
	c0,0.884,0.715,1.601,1.601,1.601h5.338c0.882,0,1.6-0.717,1.6-1.601V4.22L27.481,4.22z M11.235,29.99H2.677
	c-1.418,0-2.567-1.149-2.567-2.565v-8.558c0-1.418,1.149-2.567,2.567-2.567h8.558c1.417,0,2.567,1.149,2.567,2.567v8.558
	C13.802,28.841,12.652,29.99,11.235,29.99L11.235,29.99z M11.235,13.733H2.677c-1.418,0-2.567-1.15-2.567-2.565V2.61
	c0-1.417,1.149-2.567,2.567-2.567h8.558c1.417,0,2.567,1.15,2.567,2.567v8.558C13.802,12.583,12.652,13.733,11.235,13.733
	L11.235,13.733z"/>
<path fill-rule="evenodd" clip-rule="evenodd" fill="#333333" d="M27.68,29.134c-1.47,1.248-3.677,1.07-4.923-0.404l-1.575-1.793
	c-0.801-0.942-1.014-2.183-0.68-3.283c-2.299,1.438-4.99,2.096-7.748,1.87c-3.387-0.276-6.458-1.855-8.65-4.438
	c-2.194-2.584-3.252-5.871-2.976-9.255c0.277-3.387,1.855-6.461,4.44-8.656C10.91-1.358,18.944-0.701,23.479,4.64
	c4.112,4.852,3.949,11.92-0.111,16.573c1.143-0.155,2.334,0.255,3.14,1.201l1.579,1.796C29.332,25.683,29.152,27.887,27.68,29.134
	L27.68,29.134z M22.181,13.587c0.184-2.228-0.516-4.391-1.967-6.091c-2.998-3.518-8.315-3.953-11.853-0.97
	c-3.535,2.987-3.97,8.275-0.971,11.79c3,3.517,8.639,4.102,12.167,1.127C21.265,18.002,21.997,15.817,22.181,13.587L22.181,13.587z"
	/>
</svg>
