<?xml version="1.0" encoding="utf-8"?>
<!-- Generator: Adobe Illustrator 15.0.0, SVG Export Plug-In . SVG Version: 6.00 Build 0)  -->
<!DOCTYPE svg PUBLIC "-//W3C//DTD SVG 1.1//EN" "http://www.w3.org/Graphics/SVG/1.1/DTD/svg11.dtd">
<svg version="1.1" id="图层_1" xmlns="http://www.w3.org/2000/svg" xmlns:xlink="http://www.w3.org/1999/xlink" x="0px" y="0px"
	 width="30px" height="30px" viewBox="0 0 30 30" enable-background="new 0 0 30 30" xml:space="preserve">
<path display="none" fill="#333333" d="M23.967,10.481l0.227-0.357l0.132,0.489L23.967,10.481L23.967,10.481z M14.322,13.666
	l-0.303,0.114l-1.487-0.528l0.113-0.302L14.322,13.666L14.322,13.666z M12.118,13.137l-0.924-0.188l0.095-0.452l0.942,0.282
	L12.118,13.137L12.118,13.137z M12.118,12.29v-0.414l0.471,0.659L12.118,12.29L12.118,12.29z M3.79,18.242l0.548,0.66l-0.416,0.227
	l-0.545-0.357L3.79,18.242L3.79,18.242z M4.751,19.072l0.527,0.357L4.92,19.787L4.394,19.43L4.751,19.072L4.751,19.072z
	 M24.2,16.869l-0.8-0.943l0.358-0.244l-0.829-0.529l-1.656-0.056l-0.963-0.848l-0.056-1.827l2.146-1.846l1.188-0.114l0.3,0.339
	l-0.074,0.302l0.961,0.3l0.473-0.414l0.357,0.301l0.067,0.003c-0.062-0.202-0.142-0.394-0.217-0.591l-0.099-0.071l-0.053-0.349
	c-0.098-0.229-0.209-0.449-0.32-0.672l-0.529-0.618l-0.15,0.151l0.641,0.884l-0.413,0.604l-0.171-0.716l-0.717-0.528L23.23,9.745
	l-0.244-0.132l-1.356,1.263l-0.489-1.319l0.961,0.056l0.17-0.415L21.914,8.84l0.604-0.471l0.357-0.056l0.658-0.602l-0.188-0.473
	l0.094-0.042c-0.092-0.111-0.194-0.211-0.291-0.318l-0.029,0.003l0.004-0.034c-1.049-1.171-2.318-2.134-3.747-2.831l-0.551,0.85
	l-1.716,0.527l-0.414,1.018l-0.771-0.058L15.037,4.98L14.68,3.153l-0.488-0.372c-0.057,0-0.109-0.008-0.166-0.008
	c-0.233,0-0.465,0.022-0.696,0.035l-0.138,0.044l-0.027-0.036c-0.456,0.031-0.903,0.085-1.345,0.166l2.37,1.941L13.36,5.81
	l-1.544-0.283l0.188-0.96h-0.545l-0.227,0.659l0.171,0.584l-1.188-0.112L9.612,6.525l0.433,0.358l0.83,0.245l0.772,0.884
	l0.282-0.884L11.76,6.939V6.055l1.846,0.3l1.487,1.791l-2.091,1.185v0.641l-0.357-0.056l-0.358,0.358l0.076,0.472l-0.847,0.716
	l0.246,0.772h-0.417l-0.357-0.528h-1.3l-0.489,0.886l0.489,0.47h0.227l0.471-0.282l0.302,0.17l-0.115,0.66l0.473,0.057l0.112,0.715
	h0.848l0.83-0.357l0.584,0.226l1.11,0.038l0.076,0.735h0.724l0.258,0.595l0.035,0.252H15.7l1.282,2.934l-3.375,3.604
	c0.125,0.228,0.164,0.481,0.112,0.771l-0.47,0.473l0.414,0.525l-0.357,0.416l-0.942-1.057v-1.732l0.584-3.391l-0.772-0.357
	l-0.83-2.072l0.358-0.527v-0.604h-0.828l-0.358-0.713l-0.471,0.056l-1.676-0.942l-0.528-0.66h-0.66l-1.79-2.374l0.073-1.19
	L4.864,8.146L4.45,8.259L4.197,7.751c-1.499,2.028-2.396,4.53-2.396,7.247c0,6.751,5.474,12.227,12.225,12.227
	c2.164,0,4.19-0.568,5.951-1.556l0.729,1.666c-1.985,1.078-4.261,1.69-6.68,1.69C6.28,29.027,0,22.748,0,14.999
	C0,7.253,6.28,0.973,14.025,0.973c7.747,0,14.026,6.28,14.026,14.026c0,1.134-0.15,2.231-0.404,3.289L24.2,16.869L24.2,16.869z
	 M4.35,7.546C4.319,7.588,4.288,7.629,4.256,7.672l0.25,0.041L4.35,7.546L4.35,7.546z M19.258,5.281l1.186-0.301l0.529,0.49
	l-1.074,0.772L19.258,5.281L19.258,5.281z M20.803,7.957l0.34-0.602l0.435,0.546l-0.359,0.414L20.803,7.957L20.803,7.957z
	 M21.857,6.713l0.244,0.584l0.527,0.417l-0.057,0.489h-0.829l0.245-0.489l-0.549-0.585L21.857,6.713L21.857,6.713z M29.988,20.674
	l-4.37,1.719l2.807,2.805l-1.604,1.605l-2.76-2.76l-1.576,4.135l-5.641-12.917L29.988,20.674L29.988,20.674z"/>
<path display="none" fill="#333333" d="M28.617,23.626c0,3.519-6.135,6.369-13.707,6.369c-7.569,0-13.708-2.853-13.708-6.369
	c0-3.47,5.974-6.285,13.398-6.362l1.427-5.22c-1.974-1.097-3.31-3.199-3.31-5.616c0-3.547,2.875-6.422,6.423-6.422
	c3.547,0,6.42,2.875,6.42,6.422c0,3.546-2.873,6.421-6.42,6.421c-0.045,0-0.086-0.004-0.129-0.006l-1.246,4.556
	C23.967,18.009,28.617,20.563,28.617,23.626L28.617,23.626z M18.277,4.161c0-0.774-0.629-1.403-1.403-1.403
	c-0.772,0-1.403,0.628-1.403,1.403c0,0.776,0.63,1.403,1.403,1.403C17.648,5.564,18.277,4.937,18.277,4.161L18.277,4.161z
	 M17.301,19.09l-0.475,1.73c2.225,0.309,3.816,1.127,3.816,2.092c0,1.225-2.565,2.219-5.731,2.219S9.18,24.137,9.18,22.912
	c0-1.059,1.91-1.939,4.467-2.162l0.479-1.751C8.48,19.16,4.02,20.984,4.02,23.225c0,2.34,4.876,4.234,10.891,4.234
	c6.015,0,10.89-1.896,10.89-4.234C25.8,21.203,22.165,19.516,17.301,19.09L17.301,19.09z"/>
<path display="none" fill="#333333" d="M26.066,21.211c-0.205,0-0.402-0.031-0.601-0.061c-2.104,3.541-5.954,5.92-10.372,5.92
	c-4.418,0-8.27-2.379-10.374-5.92c-0.197,0.029-0.395,0.061-0.601,0.061c-2.218,0-4.016-1.798-4.016-4.016
	c0-1.883,1.302-3.451,3.05-3.887C3.98,7.445,9.003,2.93,15.095,2.93s11.111,4.515,11.938,10.379
	c1.751,0.436,3.052,2.003,3.052,3.886C30.084,19.413,28.287,21.211,26.066,21.211L26.066,21.211z M26.066,14.929
	c-0.403,0-0.78,0.115-1.108,0.301c0.001-0.078,0.013-0.152,0.013-0.23c0-3.759-2.101-7.026-5.189-8.695
	c0.02,0.085,0.023,0.173,0.039,0.259h0.029c-0.002,0.039-0.01,0.073-0.013,0.11c0.002,0.03,0.013,0.057,0.013,0.085
	c0,0.228-0.041,0.448-0.113,0.66c-0.541,3.192-2.287,4.103-2.287,4.103c0.298-0.929-0.184-1.432-0.184-1.432
	c-0.867,3.542-4.549,3.813-4.549,3.813c1.943-1.607,1.029-4.686,0.799-3.389c-0.239,1.36-2.034,1.976-2.034,1.976
	s1.646-1.104-0.068-2.848c-1.715-1.743-1.053-3.04-1.053-3.04h0.004c0.013-0.099,0.023-0.199,0.044-0.298
	C7.317,7.974,5.217,11.241,5.217,15c0,0.078,0.01,0.152,0.012,0.23c-0.33-0.187-0.703-0.301-1.108-0.301
	c-1.251,0-2.264,1.014-2.264,2.266c0,1.25,1.013,2.266,2.264,2.266c0.724,0,1.364-0.348,1.778-0.877
	c1.435,3.68,5.008,6.293,9.196,6.293s7.76-2.613,9.196-6.293c0.414,0.529,1.052,0.877,1.775,0.877c1.252,0,2.267-1.016,2.267-2.266
	C28.333,15.943,27.318,14.929,26.066,14.929L26.066,14.929z M14.729,24.146c-1.616,0-2.927-1.313-2.927-2.928
	c0-0.855,0.374-1.617,0.959-2.152c-0.141-0.225-0.227-0.487-0.227-0.772c0-0.81,0.654-1.465,1.463-1.465h1.463
	c0.808,0,1.462,0.655,1.462,1.465c0,0.285-0.084,0.547-0.227,0.772c0.586,0.535,0.959,1.297,0.959,2.152
	C17.654,22.834,16.346,24.146,14.729,24.146L14.729,24.146z M16.046,19.65c-0.233,0.494-0.734,0.836-1.317,0.836
	c-0.584,0-1.083-0.344-1.317-0.836c-0.449,0.379-0.741,0.937-0.741,1.567c0,1.136,0.922,2.058,2.058,2.058s2.058-0.922,2.058-2.058
	C16.786,20.587,16.495,20.027,16.046,19.65L16.046,19.65z"/>
<path display="none" fill="#333333" d="M7.44,16.117l2.377-2.377l3.608-0.287L12,14.879l14.123,3.783L22.339,4.539l-4.569,4.57
	l-3.748,0.425L23.557,0l5.898,22.016L7.44,16.117z M23.223,9.306l-3.158,6.997l-2.344-0.582l1.657-3.67L4.827,13.504l8.532,11.873
	l2.816-6.234l2.308,0.662l-4.64,10.273L0.544,11.569L23.223,9.306z"/>
<path display="none" fill="#333333" d="M28.146,20.09c-1.131,0.652-2.461,0.619-3.531,0.043l-6.27,5.076
	c0.389,1.535-0.253,3.201-1.691,4.031c-1.735,1.004-3.958,0.408-4.96-1.33c-0.515-0.889-0.603-1.906-0.337-2.82l-5.761-3.742
	c-0.051,0.033-0.093,0.072-0.147,0.105c-1.738,1.004-3.958,0.406-4.961-1.33c-1.003-1.736-0.409-3.957,1.33-4.961
	c0.385-0.222,0.795-0.353,1.209-0.424l2.019-7.534C4.722,6.936,4.432,6.617,4.209,6.231C3.207,4.496,3.801,2.273,5.538,1.272
	C7.275,0.269,9.498,0.863,10.5,2.6c0.12,0.208,0.213,0.423,0.29,0.643l7.054-0.371c0.256-0.859,0.819-1.63,1.657-2.114
	c1.737-1.003,3.958-0.409,4.961,1.329c0.909,1.573,0.497,3.537-0.88,4.637l2.537,6.609c1.326-0.078,2.646,0.565,3.355,1.794
	C30.479,16.867,29.883,19.088,28.146,20.09L28.146,20.09z M13.545,26.842c0.412,0.715,1.327,0.959,2.042,0.547
	c0.716-0.412,0.958-1.326,0.547-2.041c-0.413-0.715-1.327-0.959-2.043-0.547C13.375,25.213,13.132,26.127,13.545,26.842
	L13.545,26.842z M4.891,17.58c-0.4-0.695-1.29-0.934-1.985-0.531c-0.696,0.4-0.933,1.289-0.533,1.986
	c0.403,0.691,1.292,0.932,1.987,0.531C5.054,19.164,5.293,18.275,4.891,17.58L4.891,17.58z M8.638,3.676
	c-0.41-0.709-1.315-0.951-2.025-0.543c-0.708,0.411-0.95,1.315-0.542,2.023c0.41,0.709,1.316,0.953,2.024,0.543
	C8.805,5.291,9.046,4.384,8.638,3.676L8.638,3.676z M22.575,3.176c-0.401-0.695-1.289-0.932-1.985-0.533
	c-0.695,0.403-0.933,1.292-0.531,1.986c0.402,0.696,1.291,0.934,1.985,0.533S22.977,3.873,22.575,3.176L22.575,3.176z M21.422,7.516
	c-1.29,0.036-2.561-0.6-3.249-1.796c-0.091-0.158-0.153-0.322-0.217-0.485l-7.189,0.377c-0.276,0.792-0.813,1.496-1.596,1.95
	c-0.587,0.339-1.226,0.479-1.858,0.47l-1.908,7.121c0.55,0.308,1.034,0.753,1.373,1.337c0.544,0.945,0.604,2.029,0.277,2.984
	l5.675,3.686c0.099-0.07,0.186-0.148,0.292-0.211c1.33-0.77,2.941-0.594,4.074,0.311l5.947-4.814
	c-0.678-1.485-0.287-3.222,0.938-4.26L21.422,7.516L21.422,7.516z M27.611,16.205c-0.407-0.709-1.313-0.951-2.022-0.542
	c-0.706,0.407-0.95,1.313-0.542,2.022c0.41,0.709,1.316,0.951,2.023,0.543C27.777,17.818,28.021,16.912,27.611,16.205L27.611,16.205
	z"/>
<path display="none" fill="#333333" d="M15.084,30.014c-6.868,0-13.72-1.021-12.437-8.031C3.839,15.459,9.18,10.926,15.148,10.62
	c-0.195-1.261-0.808-3.688-2.593-3.392l0.003-0.015c-0.656,0.323-1.406,0.522-2.216,0.522c-2.484,0-4.497-1.734-4.497-3.875
	c0-2.138,2.012-3.873,4.497-3.873c1.502,0,2.716,0.611,3.335,1.296c0.619,0.685,3.16,3.782,2.953,9.349
	c5.763,0.453,10.103,5.519,10.894,11.349C28.473,28.98,21.953,30.014,15.084,30.014L15.084,30.014z M22.372,25.979l1.405-1.168
	l-0.461-0.52l-1.403,1.169L22.372,25.979L22.372,25.979z M7,26.277l1.404-1.166l-0.459-0.518L6.54,25.762L7,26.277L7,26.277z
	 M5.79,26l1.405-1.17l-0.459-0.518L5.33,25.48L5.79,26L5.79,26z M4.384,25.979l1.406-1.168l-0.46-0.52L3.924,25.46L4.384,25.979
	L4.384,25.979z M19.58,12.712c-1.855,0-3.491,0.971-4.496,2.457c-1.006-1.485-2.643-2.457-4.498-2.457
	c-3.056,0-5.534,2.627-5.534,5.868c0,3.24,2.478,5.865,5.534,5.865c1.855,0,3.492-0.969,4.498-2.455
	c1.005,1.486,2.641,2.455,4.496,2.455c3.059,0,5.536-2.625,5.536-5.865C25.116,15.339,22.639,12.712,19.58,12.712L19.58,12.712z
	 M24.725,24.313l-1.406,1.168L23.777,26l1.404-1.17L24.725,24.313L24.725,24.313z M25.936,24.596l-1.404,1.166l0.459,0.518
	l1.402-1.166L25.936,24.596L25.936,24.596z M17.159,21.016c-0.955,0-1.729-0.772-1.729-1.729s0.773-1.729,1.729-1.729
	s1.729,0.773,1.729,1.729S18.113,21.016,17.159,21.016L17.159,21.016z M16.813,18.248c-0.381,0-0.69,0.311-0.69,0.691
	c0,0.383,0.31,0.69,0.69,0.69c0.383,0,0.692-0.308,0.692-0.69C17.505,18.559,17.195,18.248,16.813,18.248L16.813,18.248z
	 M13.007,21.016c-0.954,0-1.728-0.772-1.728-1.729s0.774-1.729,1.728-1.729c0.957,0,1.73,0.773,1.73,1.729
	S13.963,21.016,13.007,21.016L13.007,21.016z M12.662,18.248c-0.383,0-0.692,0.311-0.692,0.691c0,0.383,0.31,0.69,0.692,0.69
	c0.382,0,0.693-0.308,0.693-0.69C13.355,18.559,13.044,18.248,12.662,18.248L12.662,18.248z"/>
<path display="none" fill="#333333" d="M25.581,27.107c-3.914,3.914-10.263,3.914-14.177,0L3.74,19.443
	c-3.469-3.469-1.152-6.143,2.143-9.429C5.544,9.489,5.578,8.797,6.038,8.335C5.363,7.62,4.315,6.148,5.25,4.597
	C6.554,2.43,4.771,0.765,4.771,0.765L5.537,0c0,0,2.206,2.153,0.9,4.32C5.554,5.788,6.256,6.966,6.801,7.572l0.005-0.006
	C7.267,7.106,7.963,7.07,8.488,7.41c3.287-3.296,5.961-5.612,9.431-2.144l7.663,7.664C29.495,16.846,29.495,23.193,25.581,27.107
	L25.581,27.107z M7.826,10.503c-3.111,3.083-5.345,5.259-2.145,8.459l1.763,1.763l5.301-5.301l-0.902-0.903
	c-0.667,0.236-1.439,0.092-1.972-0.441l-0.767-0.765C8.57,12.78,8.427,12.009,8.663,11.34L7.826,10.503L7.826,10.503z
	 M11.788,12.164l-0.767-0.765c-0.317-0.319-0.833-0.319-1.149,0c-0.318,0.317-0.318,0.831,0,1.148l0.765,0.767
	c0.317,0.317,0.833,0.317,1.15,0C12.105,12.998,12.105,12.481,11.788,12.164L11.788,12.164z M17.432,7.215
	c-3.201-3.2-5.375-0.972-8.456,2.139l0.837,0.837c0.669-0.236,1.44-0.093,1.975,0.441l0.765,0.767
	c0.533,0.533,0.678,1.304,0.441,1.971l0.902,0.902l5.295-5.296L17.432,7.215L17.432,7.215z M24.076,13.861l-3.735-3.736
	L8.593,21.873l3.735,3.734c3.396,3.396,8.626,3.67,12.021,0.272C27.744,22.486,27.471,17.255,24.076,13.861L24.076,13.861z"/>
<path display="none" fill="#333333" d="M28.616,26.006h-3.669v-3.668h3.669c0.403,0,0.733-0.328,0.733-0.734V6.929
	c0-0.406-0.33-0.734-0.733-0.734h-3.669V4.728h3.669c0.812,0,1.468,0.657,1.468,1.467v18.344
	C30.084,25.35,29.428,26.006,28.616,26.006L28.616,26.006z M22.012,28.207H8.072c-1.216,0-2.201-0.984-2.201-2.201V3.994
	c0-1.216,0.985-2.201,2.201-2.201h13.94c1.217,0,2.201,0.985,2.201,2.201v22.012C24.213,27.223,23.229,28.207,22.012,28.207
	L22.012,28.207z M15.043,26.738c1.014,0,1.833-0.819,1.833-1.834c0-1.012-0.819-1.834-1.833-1.834c-1.014,0-1.835,0.822-1.835,1.834
	C13.208,25.919,14.029,26.738,15.043,26.738L15.043,26.738z M18.711,2.526h-7.336c-0.205,0-0.368,0.166-0.368,0.368
	S11.17,3.26,11.375,3.26h7.336c0.203,0,0.366-0.165,0.366-0.367S18.914,2.526,18.711,2.526L18.711,2.526z M22.747,4.728
	c0-0.406-0.329-0.734-0.735-0.734H8.072c-0.405,0-0.733,0.328-0.733,0.734V20.87c0,0.403,0.328,0.733,0.733,0.733h13.94
	c0.406,0,0.735-0.33,0.735-0.733V4.728L22.747,4.728z M0,24.539V6.195c0-0.81,0.657-1.467,1.467-1.467h3.669v1.467H1.467
	c-0.404,0-0.733,0.328-0.733,0.734v14.674c0,0.405,0.329,0.733,0.733,0.733h3.669v3.668H1.467C0.657,26.006,0,25.35,0,24.539
	L0,24.539z"/>
<path display="none" fill="#333333" d="M26.686,23.549c1.844,2.446,3.605,4.76,1.674,6.159c-1.043,0.757-2.277-0.269-3.855-1.86
	c-2.095-2.106-7.1-8.775-7.1-8.775s-2.083,1.004-3.382,2.848c-0.873,1.234,0.287,1.947,1.501,4.071
	c0.621,1.081,0.692,2.715-0.198,3.157c-1.356,0.677-2.252-0.517-4.438-4.276c-0.593-1.021-1.828-3.392-0.976-4.253
	c2.539-2.575,4.813-4.745,4.813-4.745l-2.638-3.024c0,0-1,0.536-2.272,1.201c-1.083,0.567-2.314,1.27-3.767,1.344
	c-1.579,0.08-2.703-1.775-4.343-4.067C0.43,9.551,0.659,8.298,1.45,7.918c1.125-0.543,2.198-0.213,2.83,0.918
	c1.425,2.569,2.087,2.719,2.087,2.719s3.733-1.294,4.391-3.202c0.378-1.098,5.125-0.557,5.125-0.557s6.196,0.581,6.684,1.03
	c0.488,0.449-1.578,7.854-1.578,7.854s-0.315-0.131,1.074,1.438C23.366,19.587,25.238,21.634,26.686,23.549L26.686,23.549z
	 M16.816,10.875l2.943,3.199l0.04-2.518L16.816,10.875L16.816,10.875z M11.485,6.399c-1.767,0-3.198-1.434-3.198-3.2
	C8.288,1.432,9.718,0,11.485,0s3.199,1.432,3.199,3.199C14.684,4.965,13.252,6.399,11.485,6.399L11.485,6.399z"/>
<path display="none" fill="#333333" d="M11.859,29.938c-4.991,0.07-9.098-2.412-9.179-5.549c-0.078-3.136,3.903-5.738,8.893-5.81
	c4.99-0.073,9.099,2.411,9.179,5.548C20.83,27.264,16.85,29.861,11.859,29.938L11.859,29.938z M19.708,25.084
	c-0.696,0.163-1.396-0.271-1.56-0.969L13.669,1.741c-0.164-0.7,0.271-1.397,0.968-1.561c0.698-0.161,1.397,0.271,1.558,0.971
	l4.48,22.375C20.839,24.223,20.406,24.922,19.708,25.084L19.708,25.084z M25.875,14.598c0,0-0.497-4.1-2.438-5.815
	c-1.941-1.72-5.982,0.008-5.982,0.008l-2.563-8.644c0,0,10.377,2.094,12.062,7.862C28.197,12.274,25.875,14.598,25.875,14.598
	L25.875,14.598z"/>
<path display="none" fill="#333333" d="M15.042,15.31c-2.767,0-5.012-2.776-5.012-6.199c0-3.425,2.245-6.2,5.012-6.2
	c2.767,0,5.011,2.774,5.011,6.2C20.053,12.533,17.809,15.31,15.042,15.31L15.042,15.31z M21.305,27.861H8.985
	c0,0-4.019,0.418-4.019-3.6c0-4.687,1.276-8.813,3.475-8.813c2.994,0,2.946,2.441,2.946,2.441h7.281c0,0,0.709-2.533,2.77-2.533
	c3.521,0,3.625,6.135,3.625,8.849C25.063,28.229,21.305,27.861,21.305,27.861L21.305,27.861z M25.051,11.588
	c-2.076,0-3.758-1.961-3.758-4.379s1.682-4.376,3.758-4.376c2.073,0,3.756,1.958,3.756,4.376S27.124,11.588,25.051,11.588
	L25.051,11.588z M30.021,19.092h-3.68c0,0,0.018-2.279-0.699-3.527c-0.945-1.644-4.326-1.469-4.326-1.469l0.008-1.268
	c0,0,0.713-0.147,0.984-0.703c0.342-0.703,0.262-1.853,0.262-1.853h3.771c0,0-0.232,2.078,0.781,2.504
	c0.77,0.325,2.023,0.638,2.419,1.723C30.255,16.436,30.021,19.092,30.021,19.092L30.021,19.092z M5.007,11.588
	c-2.073,0-3.754-1.961-3.754-4.379s1.681-4.376,3.754-4.376c2.075,0,3.757,1.958,3.757,4.376S7.082,11.588,5.007,11.588
	L5.007,11.588z M4.416,15.564c-0.718,1.248-0.699,3.527-0.699,3.527H0.036c0,0-0.231-2.656,0.477-4.593
	c0.398-1.085,1.651-1.398,2.419-1.723c1.017-0.426,0.785-2.504,0.785-2.504h3.771c0,0-0.081,1.15,0.263,1.853
	c0.27,0.556,0.982,0.703,0.982,0.703l0.007,1.268C8.74,14.095,5.36,13.921,4.416,15.564L4.416,15.564z"/>
<path display="none" fill="#333333" d="M29.932,8.238l-5.92,16.334c-0.197,0.488-0.748,0.721-1.232,0.525
	c-0.486-0.193-0.721-0.746-0.526-1.23l5.922-16.333c0.194-0.484,0.746-0.721,1.229-0.527C29.893,7.201,30.125,7.754,29.932,8.238
	L29.932,8.238z M18.979,25.143H1.934c-1.044,0-1.894-0.847-1.894-1.893L7.871,2.609c0.395-0.953,0.848-1.895,1.895-1.895h17.044
	c1.519,0,2.112,1.328,1.896,1.895c-0.218,0.567-7.521,19.604-7.831,20.641S20.025,25.143,18.979,25.143L18.979,25.143z
	 M24.499,6.121c0-0.752-0.608-1.361-1.36-1.361H12.235c-0.749,0-1.358,0.609-1.358,1.361c0,0.751,0.609,1.361,1.358,1.361h10.902
	C23.891,7.482,24.499,6.873,24.499,6.121L24.499,6.121z M22.982,10.892c0-0.368-0.299-0.669-0.668-0.669H8.838
	c-0.371,0-0.669,0.301-0.669,0.669c0,0.371,0.298,0.672,0.669,0.672h13.477C22.684,11.563,22.982,11.263,22.982,10.892
	L22.982,10.892z M1.379,26.527h19.063c0.761,0,1.379,0.617,1.379,1.377c0,0.768-0.618,1.383-1.379,1.383H1.379
	C0.617,29.287,0,28.672,0,27.904C0,27.145,0.617,26.527,1.379,26.527L1.379,26.527z"/>
<path display="none" fill-rule="evenodd" clip-rule="evenodd" fill="#333333" d="M29.99,21.896h-2.404
	c-0.024,2.765-2.273,5.001-5.045,5.001c-2.776,0-5.023-2.235-5.047-5.006l-4.944-0.003c-0.015,2.772-2.257,5.009-5.028,5.009
	c-2.771,0-5.021-2.246-5.031-5.014H0.034c0,0-0.891-18.713,6.398-18.713c3.899,0,8.183-0.594,11.312,1.749
	c2.69,2.014,1.817,4.272,3.324,5.779c1.507,1.506,1.839,1.329,3.935,1.329C30.988,12.027,29.99,21.896,29.99,21.896L29.99,21.896z
	 M7.526,24.405c1.384,0,2.509-1.121,2.509-2.507c0-1.384-1.125-2.509-2.509-2.509c-1.384,0-2.506,1.125-2.506,2.509
	C5.02,23.284,6.143,24.405,7.526,24.405L7.526,24.405z M13.888,6.308H7.002c-1.271,0-2.298,1.027-2.298,2.295S5.731,10.9,7.002,10.9
	h6.886c1.27,0,2.297-1.029,2.297-2.297S15.157,6.308,13.888,6.308L13.888,6.308z M22.52,19.411c-1.385,0-2.509,1.123-2.509,2.507
	c0,1.387,1.124,2.51,2.509,2.51s2.507-1.123,2.507-2.51C25.026,20.534,23.904,19.411,22.52,19.411L22.52,19.411z"/>
<path display="none" fill-rule="evenodd" clip-rule="evenodd" fill="#333333" d="M29.616,11.27
	c-0.071-0.027-0.151-0.046-0.234-0.046h-6.696c0.298-0.053,0.532-0.302,0.532-0.615c0-0.356-0.286-0.642-0.638-0.642H11.865
	c-0.352,0-0.637,0.286-0.637,0.642c0,0.352,0.286,0.637,0.637,0.637h8.633c-0.295,0.051-0.522,0.295-0.522,0.605
	c0,0.315,0.234,0.562,0.535,0.61h8.204c0.708,0,1.282,0.571,1.282,1.279c0,0.02-0.01,0.031-0.01,0.051
	c0,0.01,0.005,0.02,0.005,0.029v9.934c0,0.684-0.555,1.24-1.243,1.24c-0.686,0-1.242-0.557-1.242-1.24v-8.732h-4.724l-6.323,3.428
	c-0.797,0.432-2.088,0.432-2.885,0L0.598,11.416c-0.797-0.432-0.797-1.132,0-1.562l12.977-7.035c0.797-0.432,2.088-0.432,2.885,0
	l12.978,7.035C30.155,10.24,30.192,10.84,29.616,11.27L29.616,11.27z M23.732,17.355v4.999l-8.197,5.151L5.012,21.542v-5.31
	l10.541,5.061L23.732,17.355L23.732,17.355z"/>
<path display="none" fill-rule="evenodd" clip-rule="evenodd" fill="#333333" d="M21.793,15.023c-1.097,0-2.131-0.248-3.068-0.672
	L8.497,24.401c0,0,3.949,1.742,5.986,1.273c2.038-0.467,2.675-2.48,2.675-2.48h-1.35c0,0,0.553-1.307,1.954-2.07
	c1.188-0.65,4.764-0.678,4.764-0.678s-2.202,5.816-4.877,7.809c-2.673,1.995-16.909,1.698-16.909,1.698s-0.072-9.284,0.086-12.262
	C1.233,9.967,9.824,6.88,9.824,6.88S9.941,8.915,9.36,11.18c-0.572,2.215-2.296,2.504-2.296,2.504v-1.36
	c0,0-1.665,0.349-2.215,2.207c-0.681,2.294,1.147,7.345,1.147,7.345l9.63-10.107c-0.825-1.202-1.313-2.657-1.313-4.226
	c0-4.131,3.349-7.48,7.48-7.48c4.133,0,7.482,3.349,7.482,7.48C29.275,11.676,25.926,15.023,21.793,15.023L21.793,15.023z
	 M21.763,4.18c-1.876,0-3.395,1.52-3.395,3.393c0,1.877,1.519,3.397,3.395,3.397c1.873,0,3.396-1.52,3.396-3.397
	C25.158,5.7,23.636,4.18,21.763,4.18L21.763,4.18z"/>
<path display="none" fill="#333333" d="M28.519,29.956H17.681c-0.792,0-1.435-0.641-1.435-1.433V17.649
	c0-0.79,0.643-1.433,1.435-1.433h10.838c0.791,0,1.434,0.643,1.434,1.433v10.874C29.952,29.315,29.31,29.956,28.519,29.956
	L28.519,29.956z M24.317,20.026c0.468,0,0.907,0.115,1.306,0.3v-0.055c0.007,0,0.013,0.005,0.021,0.005
	c0.365,0,0.662-0.297,0.662-0.662s-0.297-0.662-0.662-0.662c-0.008,0-0.014,0.005-0.021,0.005v-0.025
	c-0.401-0.122-0.817-0.207-1.258-0.207c-2.418,0-4.379,1.962-4.379,4.381c0,2.417,1.961,4.38,4.379,4.38
	c0.445,0,0.864-0.086,1.267-0.215c0.014,0,0.026,0.008,0.041,0.008c0.38,0,0.689-0.309,0.689-0.69c0-0.38-0.31-0.69-0.689-0.69
	c-0.15,0-0.278,0.06-0.393,0.138c-0.303,0.104-0.623,0.178-0.963,0.178c-1.708,0-3.093-1.385-3.093-3.093
	S22.609,20.026,24.317,20.026L24.317,20.026z M19.804,13.746H8.963c-0.79,0-1.433-0.64-1.433-1.433V1.467
	c0-0.792,0.643-1.433,1.433-1.433h10.841c0.793,0,1.433,0.64,1.433,1.433v10.846C21.236,13.105,20.597,13.746,19.804,13.746
	L19.804,13.746z M15.254,2.568l-1.727-0.017l-3.54,8.706h2.503l0.7-2.444h2.4l0.683,2.444h2.518L15.254,2.568L15.254,2.568z
	 M14.405,4.58l0.835,2.98h-1.689L14.405,4.58L14.405,4.58z M13.75,17.729v10.795c0,0.792-0.641,1.433-1.433,1.433H1.479
	c-0.792,0-1.435-0.641-1.435-1.433V17.729c0-0.792,0.643-1.433,1.435-1.433h10.838C13.109,16.296,13.75,16.937,13.75,17.729
	L13.75,17.729z M9.988,21.637c0-1.598-1.295-2.896-2.894-2.896c-0.799,0-1.523,0.322-2.047,0.848v7.129
	c0.526,0.463,1.21,0.755,1.967,0.755c1.653,0,2.993-1.34,2.993-2.993c0-0.529-0.149-1.018-0.389-1.45
	C9.845,22.614,9.988,22.145,9.988,21.637L9.988,21.637z M7.528,26.221c-0.684,0-1.236-0.536-1.236-1.201
	c0-0.664,0.553-1.2,1.236-1.2c0.681,0,1.233,0.536,1.233,1.2C8.761,25.685,8.209,26.221,7.528,26.221L7.528,26.221z M7.511,22.518
	c-0.688,0-1.248-0.567-1.248-1.265c0-0.696,0.56-1.264,1.248-1.264c0.688,0,1.248,0.567,1.248,1.264
	C8.759,21.95,8.199,22.518,7.511,22.518L7.511,22.518z"/>
<path display="none" fill="#333333" d="M14.917,15.005c-4.13,0-7.477-3.35-7.477-7.479c0-4.129,3.347-7.478,7.477-7.478
	c4.132,0,7.478,3.349,7.478,7.478C22.395,11.656,19.049,15.005,14.917,15.005L14.917,15.005z M6.833,24.959
	C3.06,24.959,0,21.899,0,18.126c0-3.773,3.06-6.833,6.833-6.833c3.773,0,6.833,3.06,6.833,6.833
	C13.666,21.899,10.606,24.959,6.833,24.959L6.833,24.959z M23.115,24.917c-3.761,0-6.811-3.05-6.811-6.812
	c0-3.762,3.05-6.813,6.811-6.813c3.762,0,6.812,3.05,6.812,6.813C29.927,21.867,26.877,24.917,23.115,24.917L23.115,24.917z
	 M19.958,28.675V30H9.961v-1.197c0,0,2.604-0.719,3.218-2.771c0.743-2.48,0.452-6.372,0.452-6.372l-2.735-5.897l0.128-0.469
	l8.374-0.086l-2.991,6.409c0,0-0.264,3.979,0.532,6.547C17.443,27.802,19.958,28.675,19.958,28.675L19.958,28.675z"/>
<path display="none" fill-rule="evenodd" clip-rule="evenodd" fill="#333333" d="M25.714,24.286h-5.337l1.131,1.43h2.063
	c1.184,0,2.143,0.958,2.143,2.142c0,1.183-0.959,2.143-2.143,2.143H6.429c-1.183,0-2.143-0.96-2.143-2.143
	c0-1.184,0.96-2.142,2.143-2.142h1.945l1.28-1.43H4.286C1.917,24.286,0,22.366,0,20V4.284C0,1.919,1.917,0,4.286,0h21.428
	C28.082,0,30,1.919,30,4.284V20C30,22.366,28.082,24.286,25.714,24.286L25.714,24.286z M25.703,6.052
	c0-1.781-1.444-3.224-3.226-3.224H7.52c-1.78,0-3.223,1.443-3.223,3.224v10.725C4.297,18.558,5.739,20,7.52,20h14.958
	c1.781,0,3.226-1.442,3.226-3.224V6.052L25.703,6.052z"/>
<path display="none" fill="#333333" d="M24.762,30.076V26.33L0.076,7.155V0.102h7.053l19.395,24.684h3.472v5.291H24.762
	L24.762,30.076z M19.471,30.021h-3.525V26.99l10.633-10.964l3.418-0.057v3.527L19.471,30.021L19.471,30.021z M10.931,25.989
	l-5.438,4.032v-5.417l-5.417-0.054l2.72-5.391l8.177-1.34L10.931,25.989L10.931,25.989z M24.92,6.133l-4.814,4.895L17.94,9.004
	l4.808-5.05l-3.596-3.831l9.448,0.02l0.07,9.519L24.92,6.133L24.92,6.133z"/>
<path display="none" fill-rule="evenodd" clip-rule="evenodd" fill="#333333" d="M29.708,11.481
	c-0.438,0.979-0.742,1.395-0.742,1.395l-3.363-0.772l-3.268,1.91l0.548-2.31l-3.047,2.497l-1.792-2.362l-3.584,4.563l-0.621-4.446
	l-2.972,3.237c0,0-0.343-2.967-1.07-2.807c-1.365,0.303-2.805,2.835-2.805,2.835s-2.839-0.718-4.342-1.063
	c-1.345-0.308-2.615-0.286-2.615-0.286c0-0.001,1.638-3.216,3.555-5.146c1.328-1.337,3.153-1.615,3.153-1.615
	S6.604,5.875,5.861,4.92c-0.801-1.032-2.21-1.79-2.21-1.79s1.502-0.728,3.251-0.783c2.433-0.074,5.342,0.52,5.342,0.52
	s-0.061-0.681-0.448-1.376c-0.4-0.721-1.125-1.453-1.125-1.453s2.654,0.151,4.798,0.818c2.072,0.643,3.642,1.802,3.642,1.802
	s0.192-0.453,0.118-1.043c-0.083-0.665-0.434-1.473-0.434-1.473s2.612,0.675,4.225,2.068c1.834,1.583,2.694,3.905,2.694,3.905
	s0.965-0.462,1.62-1.045c0.502-0.445,0.737-1.05,0.737-1.05s0.44,1.385,0.465,2.725c0.028,1.62-0.36,3.25-0.36,3.25l1.783,0.104
	C29.962,10.099,30.002,10.832,29.708,11.481L29.708,11.481z M11.864,16.233c0.097,0.622,0.725,1.34,1.714,2.049l0.187,0.785
	l0.359-0.41c1.299,0.818,3.018,1.575,4.861,2.045c3.163,0.806,6.622,0.99,8.611,1.026c-0.225,0.759-0.497,1.493-0.832,2.155
	C24.145,29.054,17.716,30,17.716,30s-8.021-2.687-9.123-5.311c-1.103-2.62-1.373-8.304-1.373-8.304l2.924,1.642L11.864,16.233
	L11.864,16.233z M9.985,23.725c-0.467,0.234,3.816,1.247,3.816,1.247l-1.324-1.947l0.039-4.751
	C12.517,18.273,10.453,23.492,9.985,23.725L9.985,23.725z M28.627,14.028c0,0,0.02,2.882-0.586,5.902
	c-1.982,0.015-5.539-0.126-8.29-1.16c-1.125-0.423-2.867-1.19-4.172-1.777l2.58-2.948l1.214,1.754l2.297-2.072l-0.544,2.067
	l4.421-2.431L28.627,14.028L28.627,14.028z"/>
<path display="none" fill-rule="evenodd" clip-rule="evenodd" fill="#333333" d="M15,30c-1.462,0-2.871-0.218-4.206-0.609
	c1.858,0.233,11.538,0.896,14.571-10.286C28.693,6.846,22.43,2.32,20.32,1.176c-0.396-0.248-0.676-0.327-0.676-0.327
	s0.27,0.107,0.676,0.327c1.457,0.924,4.58,4.345,1.783,16.223c-2.744,11.662-10.294,11.97-11.474,11.949
	c-0.104-0.032-0.203-0.076-0.307-0.109c-0.026-0.015-0.198-0.119-0.488-0.317c-1.523-1.11-5.86-5.362-3.122-16.464
	C9.434,1.435,17.83,0.744,19.227,0.704c6.197,1.825,10.73,7.548,10.73,14.34C29.957,23.302,23.258,30,15,30L15,30z M19.73,0.878
	c-1.273-0.411-4.5,5.561-7.043,13.419c-2.542,7.857-3.638,14.529-2.365,14.94c1.272,0.414,4.428-5.591,6.974-13.449
	C19.84,7.932,21.002,1.29,19.73,0.878L19.73,0.878z M0.043,15.043C0.043,6.782,6.739,0.087,15,0.087
	c1.438,0,2.816,0.213,4.131,0.591C17.322,0.577,7.284,0.519,3.665,11.28c-3.441,10.221,4.114,16.23,6.17,17.641
	c0.266,0.196,0.444,0.298,0.481,0.317C4.352,27.269,0.043,21.665,0.043,15.043L0.043,15.043z"/>
<path display="none" fill-rule="evenodd" clip-rule="evenodd" fill="#333333" d="M18.982,11.264
	c-1.551,0.048-2.094,1.373-2.094,1.373l0.049,3.711c0,0,6.572,3.035,6.58,7.426c-2.75,0.01-17.274-0.02-17.274-0.02l1.23-3.698
	l1.92-0.047l0.009-3.035c0,0-1.406-0.609-1.36-2.35c0.047-1.736,0.784-2.299,0.784-2.299S7.696,3.347,14.274,0.059
	c0.375,0.986,0.658,1.838,0.658,1.838s7.937,4.414,8.968,5.776c1.059,1.112,1.09,2.642,0.035,4.493
	C23.012,13.439,20.531,11.216,18.982,11.264L18.982,11.264z M15.711,5.054c-0.706,0-1.277,0.573-1.277,1.28
	c0,0.706,0.572,1.281,1.277,1.281c0.709,0,1.281-0.575,1.281-1.281C16.992,5.627,16.42,5.054,15.711,5.054L15.711,5.054z M26.869,30
	L3.131,29.992l2.646-4.937l18.568-0.002L26.869,30L26.869,30z"/>
<path display="none" fill-rule="evenodd" clip-rule="evenodd" fill="#333333" d="M13.507,28.887c0,0,2.595-3.315,4.491-5.424
	c0.956-1.06,1.91-1.681,1.91-1.681s0.715-0.253,1.186,0.04c0.366,0.228,0.516,1.017,0.516,1.017s0.348,2.354,1.845,3.114
	c2.045,1.04,4.026-0.472,4.026-0.472s2.066-1.7,1.27-3.307c-0.761-1.534-4.382-2.978-4.382-2.978s-1.401-0.673-1.216-1.36
	c0.195-0.722,1.979-1.458,1.979-1.458l4.873-2.643l-4.521-4.698c0,0-1.091-0.77-1.818-0.526c-0.849,0.281-1.352,1.586-1.352,1.586
	s-0.583,1.943-2.54,2.125c-1.422,0.131-3.273-1.422-3.273-1.422s-1.551-1.129-0.597-2.18c1.04-1.146,4.591-2.224,4.591-2.224
	s0.845-0.592,0.696-1.172c-0.145-0.563-1.283-1.118-1.283-1.118l-4.934-2.994c0,0-1.685,2.358-3.298,4.09
	c-1.11,1.188-2.221,1.84-2.221,1.84S8.612,7.679,8.223,7.226c-0.298-0.343-0.119-1.06-0.284-1.613
	C7.738,4.945,7.222,4.46,7.222,4.46S6.238,3.868,5.175,3.988c-1.244,0.142-2.59,1-2.59,1S1.079,6.08,1.397,7.009
	c0.326,0.948,2.479,1.737,2.479,1.737S5.92,9.374,5.883,10.27c-0.068,1.62-1.832,1.941-1.832,1.941L0,14.265l3.406,4.344
	c0,0,1.154,0.771,2.057,0.438c0.634-0.237,1.114-1.611,1.114-1.611s0.768-1.602,2.808-1.811c2.059-0.211,2.948,1.284,2.948,1.284
	c0-0.001,1.835,1.434,1.088,2.694c-0.749,1.265-4.085,2.355-4.085,2.355s-1.831,0.988-1.845,1.881
	c-0.017,1.086,1.787,2.111,1.787,2.111L13.507,28.887L13.507,28.887z"/>
<path display="none" fill-rule="evenodd" clip-rule="evenodd" fill="#333333" d="M26.329,17.534V13.78h3.754v3.754H26.329
	L26.329,17.534z M25.102,13.741v3.793h-3.754v-3.793H25.102L25.102,13.741z M27.593,25.604c-5.636,5.861-17.729,5.861-23.366,0
	c-5.636-5.857-5.636-15.359,0-21.219c5.637-5.859,17.73-5.859,23.366,0L16.688,14.999L27.593,25.604L27.593,25.604z M21.378,5.162
	c-1.43-0.717-3.207-1.44-4.905-1.44c-6.014,0-12.699,3.837-12.699,11.321c0,7.369,6.685,11.323,12.699,11.323
	c1.896,0,3.803-0.583,5.356-1.466l-8.02-9.681L21.378,5.162L21.378,5.162z M11.319,7.506h3.753v3.751h-3.753V7.506L11.319,7.506z"/>
<path display="none" fill-rule="evenodd" clip-rule="evenodd" fill="#333333" d="M26.486,25.088l-8.002,4.541
	c-0.576,0.241-1.826,0.338-1.959,0.338h-2.3c-0.242,0-1.691-0.111-2.275-0.391l-8.797-3.929C1.451,24.835,0.07,22.63,0.07,20.722
	V6.669c-0.012-0.146-0.012-0.291,0-0.436l0.102-0.498C0.274,5.438,0.439,5.185,0.681,5.07l12.186-4.668
	c0.841-0.403,2.204-0.403,3.043,0L29.342,5.07c0.264,0.127,0.438,0.415,0.533,0.754c0,0,0.064,0.454,0.064,1.007s0,13.351,0,13.351
	C29.939,22.091,28.393,24.286,26.486,25.088L26.486,25.088z M2.555,11.182v8.021c0,1.196,0.866,2.577,1.934,3.086l7.333,3.771
	c1.069,0.51,1.934-0.048,1.934-1.241v-9.041c0-1.196-0.864-2.579-1.934-3.089L4.489,9.94C3.421,9.431,2.555,9.985,2.555,11.182
	L2.555,11.182z M24.674,5.494l-9.202-3.173c-0.534-0.231-1.399-0.231-1.931,0L5.038,5.494c-0.534,0.23-0.534,0.602,0,0.829
	l8.346,3.55c0.533,0.228,1.399,0.228,1.931,0l9.359-3.55C25.207,6.096,25.207,5.724,24.674,5.494L24.674,5.494z M27.469,11.142
	c0-1.189-0.861-1.744-1.924-1.238l-7.379,3.003c-1.061,0.506-1.924,1.884-1.924,3.073v8.871c0,1.189,0.863,1.743,1.924,1.236
	l7.379-3.286c1.063-0.509,1.924-1.885,1.924-3.074V11.142L27.469,11.142z M23.707,20.055c-0.691,0-1.252-0.561-1.252-1.251
	c0-0.695,0.561-1.255,1.252-1.255s1.254,0.56,1.254,1.255C24.961,19.494,24.398,20.055,23.707,20.055L23.707,20.055z M23.68,15.023
	c-0.686,0-1.244-0.557-1.244-1.243c0-0.686,0.559-1.242,1.244-1.242s1.242,0.557,1.242,1.242
	C24.922,14.466,24.365,15.023,23.68,15.023L23.68,15.023z M19.986,22.524c-0.697,0-1.262-0.567-1.262-1.264
	c0-0.699,0.564-1.264,1.262-1.264c0.699,0,1.266,0.564,1.266,1.264C21.252,21.957,20.686,22.524,19.986,22.524L19.986,22.524z
	 M19.965,17.549c-0.705,0-1.281-0.572-1.281-1.281s0.576-1.283,1.281-1.283c0.711,0,1.285,0.574,1.285,1.283
	S20.676,17.549,19.965,17.549L19.965,17.549z M14.945,7.542c-0.68,0-1.232-0.552-1.232-1.236c0-0.679,0.552-1.231,1.232-1.231
	c0.682,0,1.235,0.552,1.235,1.231C16.18,6.99,15.627,7.542,14.945,7.542L14.945,7.542z M10.037,21.277
	c-0.687,0-1.244-0.558-1.244-1.244c0-0.686,0.558-1.242,1.244-1.242c0.688,0,1.244,0.557,1.244,1.242
	C11.281,20.72,10.724,21.277,10.037,21.277L10.037,21.277z M7.542,15.021c-0.683,0-1.234-0.552-1.234-1.233
	c0-0.681,0.552-1.234,1.234-1.234c0.681,0,1.233,0.554,1.233,1.234C8.774,14.469,8.222,15.021,7.542,15.021L7.542,15.021z
	 M5.025,18.751c-0.688,0-1.244-0.558-1.244-1.244c0-0.685,0.557-1.242,1.244-1.242c0.687,0,1.244,0.558,1.244,1.242
	C6.27,18.193,5.712,18.751,5.025,18.751L5.025,18.751z"/>
<path display="none" fill-rule="evenodd" clip-rule="evenodd" fill="#333333" d="M15,30C6.713,30,0,23.282,0,15
	C0,6.715,6.713-0.001,15-0.001c8.285,0,14.998,6.716,14.998,15.001C29.998,23.282,23.285,30,15,30L15,30z M15,1.875
	C7.752,1.875,1.875,7.75,1.875,15c0,7.248,5.877,13.122,13.125,13.122S28.125,22.248,28.125,15C28.125,7.75,22.248,1.875,15,1.875
	L15,1.875z M15.079,21.896c0,0-11.894-8.102-5.833-12.143c3.498-2.332,5.771,2.399,5.771,2.399s2.277-4.731,5.772-2.399
	C26.851,13.795,15.079,21.896,15.079,21.896L15.079,21.896z"/>
<path fill-rule="evenodd" clip-rule="evenodd" fill="#333333" d="M15.029,30C6.73,30,0,23.269,0,14.969
	C0,6.667,6.73-0.063,15.029-0.063c8.303,0,15.032,6.73,15.032,15.033C30.062,23.269,23.332,30,15.029,30L15.029,30z M15.029,1.817
	c-7.264,0-13.152,5.886-13.152,13.152c0,7.263,5.888,13.149,13.152,13.149c7.264,0,13.152-5.886,13.152-13.149
	C28.182,7.703,22.293,1.817,15.029,1.817L15.029,1.817z M20.75,22.309H9.354c-0.385,0-0.702-0.306-0.702-0.682
	c0,0-1.116-1.425-1.116-2.04c0-1.433,1.904-1.891,3.977-2.725c2.053-0.821,1.528-1.829,1.528-1.829h0.05
	c-0.351-0.323-0.653-0.725-0.901-1.177c-0.743-0.398-1.324-2.123-1.106-2.576c0.133-0.277,0.296-0.21,0.405-0.118
	c0-0.035-0.008-0.07-0.008-0.108c0-3.743,1.613-4.553,3.549-4.553c0.659,0,1.825,0.185,1.995,1.082
	c1.409-0.314,1.623,1.779,1.538,3.472c0,0.031-0.007,0.063-0.007,0.092c0.105-0.082,0.258-0.125,0.38,0.134
	c0.22,0.457-0.367,2.197-1.112,2.582l0.009-0.05c-0.245,0.473-0.553,0.889-0.898,1.221h0.047c0,0-0.479,1.157,1.553,1.829
	c2.12,0.705,3.976,1.292,3.976,2.725c0,0.615-1.058,2.04-1.058,2.04C21.451,22.003,21.138,22.309,20.75,22.309L20.75,22.309z"/>
</svg>
