<?xml version="1.0" encoding="utf-8"?>
<!-- Generator: Adobe Illustrator 14.0.0, SVG Export Plug-In . SVG Version: 6.00 Build 43363)  -->
<!DOCTYPE svg PUBLIC "-//W3C//DTD SVG 1.1//EN" "http://www.w3.org/Graphics/SVG/1.1/DTD/svg11.dtd">
<svg version="1.1" id="图层_1" xmlns="http://www.w3.org/2000/svg" xmlns:xlink="http://www.w3.org/1999/xlink" x="0px" y="0px"
	 width="30px" height="30px" viewBox="0 0 30 30" enable-background="new 0 0 30 30" xml:space="preserve">
<g>
	<g>
		<path d="M21.969,12.98h-5v-5c0-0.552-0.448-1-1-1h-2c-0.552,0-1,0.448-1,1v5h-5c-0.552,0-1,0.447-1,1v2c0,0.553,0.448,1,1,1h5v5
			c0,0.553,0.448,1,1,1h2c0.552,0,1-0.447,1-1v-5h5c0.552,0,1-0.447,1-1v-2C22.969,13.428,22.521,12.98,21.969,12.98z M14.963,0
			C6.699,0,0,6.7,0,14.964c0,8.265,6.7,14.964,14.964,14.964c8.265,0,14.964-6.699,14.964-14.964C29.928,6.7,23.229,0,14.963,0z
			 M14.964,26.939c-6.614,0-11.976-5.361-11.976-11.976c0-6.614,5.362-11.975,11.976-11.975S26.939,8.35,26.939,14.964
			C26.939,21.578,21.578,26.939,14.964,26.939z"/>
	</g>
	<g>
		<path fill="none" stroke="#FFFFFF" d="M21.969,12.98h-5v-5c0-0.552-0.448-1-1-1h-2c-0.552,0-1,0.448-1,1v5h-5
			c-0.552,0-1,0.447-1,1v2c0,0.553,0.448,1,1,1h5v5c0,0.553,0.448,1,1,1h2c0.552,0,1-0.447,1-1v-5h5c0.552,0,1-0.447,1-1v-2
			C22.969,13.428,22.521,12.98,21.969,12.98z M14.963,0C6.699,0,0,6.7,0,14.964c0,8.265,6.7,14.964,14.964,14.964
			c8.265,0,14.964-6.699,14.964-14.964C29.928,6.7,23.229,0,14.963,0z M14.964,26.939c-6.614,0-11.976-5.361-11.976-11.976
			c0-6.614,5.362-11.975,11.976-11.975S26.939,8.35,26.939,14.964C26.939,21.578,21.578,26.939,14.964,26.939z"/>
	</g>
</g>
<path stroke="#FFFFFF" d="M13.234-0.234"/>
</svg>
