<?xml version="1.0" encoding="utf-8"?>
<!-- Generator: Adobe Illustrator 14.0.0, SVG Export Plug-In . SVG Version: 6.00 Build 43363)  -->
<!DOCTYPE svg PUBLIC "-//W3C//DTD SVG 1.1//EN" "http://www.w3.org/Graphics/SVG/1.1/DTD/svg11.dtd">
<svg version="1.1" id="图层_1" xmlns="http://www.w3.org/2000/svg" xmlns:xlink="http://www.w3.org/1999/xlink" x="0px" y="0px"
	 width="30px" height="30px" viewBox="0 0 30 30" enable-background="new 0 0 30 30" xml:space="preserve">
<g>
	<g>
		<path d="M21,9.058h-2.03v16.961H21V9.058z M16.059,9.056h-2.116v16.962h2.116V9.056z M10.995,8.998H9.022v17.021h1.973V8.998z
			 M29.897,6.839c0-1.276-1.034-1.892-2.31-1.892h-3.133c-0.113-0.014-0.229-0.025-0.357-0.025h-3.092V2.253
			c0-1.275-1.034-2.31-2.311-2.31h-7.348c-1.275,0-2.31,1.034-2.31,2.31v2.669H6.25c-0.128,0-0.252,0.012-0.375,0.025H2.362
			c-1.275,0-2.31,0.616-2.31,1.892c0,0-0.171,1.094,1.809,1.094h2.078v19.721c0,1.276,1.035,2.31,2.311,2.31h17.848
			c1.275,0,1.83-1.033,1.83-2.31V7.933h2.161C30.069,7.933,29.897,6.839,29.897,6.839z M10.934,4.31c0,0.001,0,0.002,0,0.003
			c0.183-2.122,0.161-2.243,3.969-2.304c3.994,0,4.091-0.001,4.151,2.302c0,0.222-0.087,0.433-0.208,0.636h-7.72
			c-0.112-0.203-0.191-0.413-0.192-0.634c0,0.002,0,0.004,0,0.006V4.31z M24.038,9.183v16.459c0,1.276-0.826,2.311-2.102,2.311
			H8.261c-1.276,0-2.31-1.034-2.31-2.311V9.183c0-0.462,0.139-0.89,0.372-1.25h17.954C24.169,8.293,24.038,8.721,24.038,9.183z"/>
	</g>
	<g>
		<path fill="none" stroke="#FFFFFF" d="M21,9.058h-2.03v16.961H21V9.058z M16.059,9.056h-2.116v16.962h2.116V9.056z M10.995,8.998
			H9.022v17.021h1.973V8.998z M29.897,6.839c0-1.276-1.034-1.892-2.31-1.892h-3.133c-0.113-0.014-0.229-0.025-0.357-0.025h-3.092
			V2.253c0-1.275-1.034-2.31-2.311-2.31h-7.348c-1.275,0-2.31,1.034-2.31,2.31v2.669H6.25c-0.128,0-0.252,0.012-0.375,0.025H2.362
			c-1.275,0-2.31,0.616-2.31,1.892c0,0-0.171,1.094,1.809,1.094h2.078v19.721c0,1.276,1.035,2.31,2.311,2.31h17.848
			c1.275,0,1.83-1.033,1.83-2.31V7.933h2.161C30.069,7.933,29.897,6.839,29.897,6.839z M10.934,4.31c0,0.001,0,0.002,0,0.003
			c0.183-2.122,0.161-2.243,3.969-2.304c3.994,0,4.091-0.001,4.151,2.302c0,0.222-0.087,0.433-0.208,0.636h-7.72
			c-0.112-0.203-0.191-0.413-0.192-0.634c0,0.002,0,0.004,0,0.006V4.31z M24.038,9.183v16.459c0,1.276-0.826,2.311-2.102,2.311
			H8.261c-1.276,0-2.31-1.034-2.31-2.311V9.183c0-0.462,0.139-0.89,0.372-1.25h17.954C24.169,8.293,24.038,8.721,24.038,9.183z"/>
	</g>
</g>
</svg>
