<?xml version="1.0" encoding="utf-8"?>
<!-- Generator: Adobe Illustrator 14.0.0, SVG Export Plug-In . SVG Version: 6.00 Build 43363)  -->
<!DOCTYPE svg PUBLIC "-//W3C//DTD SVG 1.1//EN" "http://www.w3.org/Graphics/SVG/1.1/DTD/svg11.dtd">
<svg version="1.1" id="图层_1" xmlns="http://www.w3.org/2000/svg" xmlns:xlink="http://www.w3.org/1999/xlink" x="0px" y="0px"
	 width="30px" height="30px" viewBox="0 0 30 30" enable-background="new 0 0 30 30" xml:space="preserve">
<g>
	<g>
		<path d="M14.963,0C6.699,0,0,6.7,0,14.964c0,8.265,6.699,14.964,14.963,14.964c8.265,0,14.964-6.699,14.964-14.964
			C29.928,6.7,23.229,0,14.963,0z M15.027,27.064c-6.648,0-12.038-5.389-12.038-12.037c0-6.649,5.39-12.039,12.038-12.039
			s12.038,5.389,12.038,12.039C27.065,21.676,21.676,27.064,15.027,27.064z M20.528,13.059H18V8.043c0-0.552-0.448-1-1-1h-4
			c-0.553,0-1,0.448-1,1v5.016H9.969c-2.485,0-2.76,0.701-1.375,2.645c1.26,1.77,2.885,3.749,4.281,5.532
			c1.835,2.348,2.71,2.365,4.421-0.033c1.387-1.942,3.136-4.05,4.471-5.793C23.004,13.791,22.756,13.059,20.528,13.059z"/>
	</g>
	<g>
		<path fill="none" stroke="#FFFFFF" d="M14.963,0C6.699,0,0,6.7,0,14.964c0,8.265,6.699,14.964,14.963,14.964
			c8.265,0,14.964-6.699,14.964-14.964C29.928,6.7,23.229,0,14.963,0z M15.027,27.064c-6.648,0-12.038-5.389-12.038-12.037
			c0-6.649,5.39-12.039,12.038-12.039s12.038,5.389,12.038,12.039C27.065,21.676,21.676,27.064,15.027,27.064z M20.528,13.059H18
			V8.043c0-0.552-0.448-1-1-1h-4c-0.553,0-1,0.448-1,1v5.016H9.969c-2.485,0-2.76,0.701-1.375,2.645
			c1.26,1.77,2.885,3.749,4.281,5.532c1.835,2.348,2.71,2.365,4.421-0.033c1.387-1.942,3.136-4.05,4.471-5.793
			C23.004,13.791,22.756,13.059,20.528,13.059z"/>
	</g>
</g>
</svg>
