<?xml version="1.0" encoding="utf-8"?>
<!-- Generator: Adobe Illustrator 14.0.0, SVG Export Plug-In . SVG Version: 6.00 Build 43363)  -->
<!DOCTYPE svg PUBLIC "-//W3C//DTD SVG 1.1//EN" "http://www.w3.org/Graphics/SVG/1.1/DTD/svg11.dtd">
<svg version="1.1" id="图层_1" xmlns="http://www.w3.org/2000/svg" xmlns:xlink="http://www.w3.org/1999/xlink" x="0px" y="0px"
	 width="30px" height="30px" viewBox="0 0 30 30" enable-background="new 0 0 30 30" xml:space="preserve">
<g>
	<g>
		<path d="M14.953-0.043c-8.271,0-14.976,5.385-14.976,12.026c0,6.105,5.671,11.137,13.011,11.911v6.075
			c0,0,5.559-3.088,10.596-8.169c3.834-2.178,6.345-5.76,6.345-9.817C29.929,5.342,23.224-0.043,14.953-0.043z M20.188,20.098
			c-2.692,2.4-5.206,3.91-5.206,3.91v-3.012c-6.624-0.005-11.993-4.042-11.993-9.021c0-4.982,5.374-9.021,12.003-9.021
			c6.629,0,12.002,4.039,12.002,9.021C26.994,15.556,24.211,18.641,20.188,20.098z M6.995,12.999h4.015V8.984H6.995V12.999z
			 M13.002,12.999h3.984V9.015h-3.984V12.999z M19.01,12.968h3.984V8.984H19.01V12.968z"/>
	</g>
	<g>
		<path fill="none" stroke="#FFFFFF" d="M14.953-0.043c-8.271,0-14.976,5.385-14.976,12.026c0,6.105,5.671,11.137,13.011,11.911
			v6.075c0,0,5.559-3.088,10.596-8.169c3.834-2.178,6.345-5.76,6.345-9.817C29.929,5.342,23.224-0.043,14.953-0.043z M20.188,20.098
			c-2.692,2.4-5.206,3.91-5.206,3.91v-3.012c-6.624-0.005-11.993-4.042-11.993-9.021c0-4.982,5.374-9.021,12.003-9.021
			c6.629,0,12.002,4.039,12.002,9.021C26.994,15.556,24.211,18.641,20.188,20.098z M6.995,12.999h4.015V8.984H6.995V12.999z
			 M13.002,12.999h3.984V9.015h-3.984V12.999z M19.01,12.968h3.984V8.984H19.01V12.968z"/>
	</g>
</g>
</svg>
