<?xml version="1.0" encoding="utf-8"?>
<!-- Generator: Adobe Illustrator 14.0.0, SVG Export Plug-In . SVG Version: 6.00 Build 43363)  -->
<!DOCTYPE svg PUBLIC "-//W3C//DTD SVG 1.1//EN" "http://www.w3.org/Graphics/SVG/1.1/DTD/svg11.dtd">
<svg version="1.1" id="图层_1" xmlns="http://www.w3.org/2000/svg" xmlns:xlink="http://www.w3.org/1999/xlink" x="0px" y="0px"
	 width="30px" height="30px" viewBox="0 0 30 30" enable-background="new 0 0 30 30" xml:space="preserve">
<g>
	<g>
		<path d="M26.181,13.547v3.751H30v-3.751H26.181z M15.217,7.62H11.29v3.858h3.927V7.62z M28.396,4.396
			c-5.725-5.847-18.007-5.847-23.733,0c-5.725,5.847-5.725,15.326,0,21.172c5.726,5.847,18.008,5.847,23.733,0L17.319,14.985
			L28.396,4.396z M22.541,24.744c-1.576,0.883-3.515,1.464-5.439,1.464c-6.11,0-12.897-3.946-12.897-11.297
			c0-7.469,6.788-11.297,12.897-11.297c1.724,0,3.527,0.721,4.982,1.439l-7.688,10.034L22.541,24.744z M25.014,17.299v-3.751h-3.819
			v3.751H25.014z"/>
	</g>
	<g>
		<path fill="none" stroke="#FFFFFF" d="M26.181,13.547v3.751H30v-3.751H26.181z M15.217,7.62H11.29v3.858h3.927V7.62z
			 M28.396,4.396c-5.725-5.847-18.007-5.847-23.733,0c-5.725,5.847-5.725,15.326,0,21.172c5.726,5.847,18.008,5.847,23.733,0
			L17.319,14.985L28.396,4.396z M22.541,24.744c-1.576,0.883-3.515,1.464-5.439,1.464c-6.11,0-12.897-3.946-12.897-11.297
			c0-7.469,6.788-11.297,12.897-11.297c1.724,0,3.527,0.721,4.982,1.439l-7.688,10.034L22.541,24.744z M25.014,17.299v-3.751h-3.819
			v3.751H25.014z"/>
	</g>
</g>
</svg>
