<?xml version="1.0" encoding="utf-8"?>
<!-- Generator: Adobe Illustrator 14.0.0, SVG Export Plug-In . SVG Version: 6.00 Build 43363)  -->
<!DOCTYPE svg PUBLIC "-//W3C//DTD SVG 1.1//EN" "http://www.w3.org/Graphics/SVG/1.1/DTD/svg11.dtd">
<svg version="1.1" id="图层_1" xmlns="http://www.w3.org/2000/svg" xmlns:xlink="http://www.w3.org/1999/xlink" x="0px" y="0px"
	 width="30px" height="30px" viewBox="0 0 30 30" enable-background="new 0 0 30 30" xml:space="preserve">
<g>
	<g>
		<path d="M28.091,7.531l-0.044,0.025c-1.317-2.293-3.219-4.208-5.503-5.538l0.007-0.013c-0.08-0.046-0.163-0.086-0.243-0.131
			c-0.093-0.052-0.187-0.102-0.281-0.151c-0.355-0.189-0.718-0.367-1.091-0.527c-0.028-0.013-0.057-0.027-0.085-0.04
			c-0.396-0.167-0.804-0.313-1.217-0.446c-0.103-0.033-0.206-0.065-0.31-0.096c-0.406-0.122-0.816-0.231-1.236-0.319
			c-0.017-0.003-0.032-0.008-0.049-0.012c-0.433-0.088-0.874-0.151-1.318-0.202c-0.111-0.013-0.222-0.024-0.333-0.034
			c-0.451-0.041-0.905-0.069-1.367-0.069c-0.462,0-0.917,0.028-1.368,0.069c-0.108,0.01-0.216,0.02-0.324,0.032
			c-0.443,0.05-0.883,0.113-1.314,0.201c-0.034,0.007-0.067,0.017-0.102,0.024c-0.404,0.085-0.8,0.19-1.191,0.307
			c-0.1,0.03-0.2,0.06-0.299,0.092c-0.411,0.132-0.815,0.278-1.209,0.444C9.161,1.17,9.11,1.196,9.058,1.219
			c-0.354,0.154-0.7,0.322-1.04,0.502C7.931,1.767,7.844,1.813,7.757,1.86C7.692,1.896,7.625,1.928,7.561,1.965l0.006,0.011
			C3.05,4.573,0,9.446,0,15.042c0,2.371,0.558,4.606,1.532,6.599c0.023,0.047,0.046,0.095,0.07,0.142
			c0.119,0.236,0.24,0.47,0.371,0.698c0.013,0.023,0.024,0.047,0.037,0.07l0.003-0.002c1.958,3.395,5.194,5.955,9.056,7.01
			c0.057,0.017,0.115,0.029,0.171,0.045c0.435,0.113,0.875,0.207,1.323,0.281c0.214,0.036,0.428,0.071,0.645,0.099
			c0.187,0.022,0.374,0.041,0.563,0.057c0.375,0.032,0.753,0.054,1.135,0.058c0.039,0,0.076,0.006,0.115,0.006
			c0.01,0,0.019-0.001,0.029-0.001c0.01,0,0.02,0.001,0.03,0.001c2.715,0,5.263-0.723,7.459-1.986l-0.019-0.033
			c2.284-1.327,4.189-3.239,5.51-5.533l0.021,0.012c1.285-2.22,2.021-4.799,2.021-7.551C30.071,12.289,29.351,9.735,28.091,7.531z
			 M21.569,3.705c1.988,1.156,3.645,2.822,4.794,4.817l-2.471,1.417c-0.898-1.562-2.193-2.861-3.751-3.763L21.569,3.705z
			 M8.533,3.668L9.955,6.16c-1.563,0.9-2.864,2.2-3.768,3.763L3.702,8.48C4.862,6.482,6.531,4.818,8.533,3.668z M8.503,26.427
			c-2.002-1.157-3.669-2.829-4.824-4.834l2.493-1.43c0.901,1.569,2.203,2.874,3.767,3.778L8.503,26.427z M15.026,23.318
			c-4.556,0-8.249-3.704-8.249-8.271c0-4.568,3.693-8.271,8.249-8.271c4.557,0,8.248,3.703,8.248,8.271
			C23.274,19.614,19.583,23.318,15.026,23.318z M21.567,26.414L20.15,23.93c1.559-0.905,2.855-2.209,3.753-3.775l2.462,1.43
			C25.217,23.586,23.558,25.255,21.567,26.414z"/>
	</g>
	<g>
		<path fill="none" stroke="#FFFFFF" d="M28.091,7.531l-0.044,0.025c-1.317-2.293-3.219-4.208-5.503-5.538l0.007-0.013
			c-0.08-0.046-0.163-0.086-0.243-0.131c-0.093-0.052-0.187-0.102-0.281-0.151c-0.355-0.189-0.718-0.367-1.091-0.527
			c-0.028-0.013-0.057-0.027-0.085-0.04c-0.396-0.167-0.804-0.313-1.217-0.446c-0.103-0.033-0.206-0.065-0.31-0.096
			c-0.406-0.122-0.816-0.231-1.236-0.319c-0.017-0.003-0.032-0.008-0.049-0.012c-0.433-0.088-0.874-0.151-1.318-0.202
			c-0.111-0.013-0.222-0.024-0.333-0.034c-0.451-0.041-0.905-0.069-1.367-0.069c-0.462,0-0.917,0.028-1.368,0.069
			c-0.108,0.01-0.216,0.02-0.324,0.032c-0.443,0.05-0.883,0.113-1.314,0.201c-0.034,0.007-0.067,0.017-0.102,0.024
			c-0.404,0.085-0.8,0.19-1.191,0.307c-0.1,0.03-0.2,0.06-0.299,0.092c-0.411,0.132-0.815,0.278-1.209,0.444
			C9.161,1.17,9.11,1.196,9.058,1.219c-0.354,0.154-0.7,0.322-1.04,0.502C7.931,1.767,7.844,1.813,7.757,1.86
			C7.692,1.896,7.625,1.928,7.561,1.965l0.006,0.011C3.05,4.573,0,9.446,0,15.042c0,2.371,0.558,4.606,1.532,6.599
			c0.023,0.047,0.046,0.095,0.07,0.142c0.119,0.236,0.24,0.47,0.371,0.698c0.013,0.023,0.024,0.047,0.037,0.07l0.003-0.002
			c1.958,3.395,5.194,5.955,9.056,7.01c0.057,0.017,0.115,0.029,0.171,0.045c0.435,0.113,0.875,0.207,1.323,0.281
			c0.214,0.036,0.428,0.071,0.645,0.099c0.187,0.022,0.374,0.041,0.563,0.057c0.375,0.032,0.753,0.054,1.135,0.058
			c0.039,0,0.076,0.006,0.115,0.006c0.01,0,0.019-0.001,0.029-0.001c0.01,0,0.02,0.001,0.03,0.001c2.715,0,5.263-0.723,7.459-1.986
			l-0.019-0.033c2.284-1.327,4.189-3.239,5.51-5.533l0.021,0.012c1.285-2.22,2.021-4.799,2.021-7.551
			C30.071,12.289,29.351,9.735,28.091,7.531z M21.569,3.705c1.988,1.156,3.645,2.822,4.794,4.817l-2.471,1.417
			c-0.898-1.562-2.193-2.861-3.751-3.763L21.569,3.705z M8.533,3.668L9.955,6.16c-1.563,0.9-2.864,2.2-3.768,3.763L3.702,8.48
			C4.862,6.482,6.531,4.818,8.533,3.668z M8.503,26.427c-2.002-1.157-3.669-2.829-4.824-4.834l2.493-1.43
			c0.901,1.569,2.203,2.874,3.767,3.778L8.503,26.427z M15.026,23.318c-4.556,0-8.249-3.704-8.249-8.271
			c0-4.568,3.693-8.271,8.249-8.271c4.557,0,8.248,3.703,8.248,8.271C23.274,19.614,19.583,23.318,15.026,23.318z M21.567,26.414
			L20.15,23.93c1.559-0.905,2.855-2.209,3.753-3.775l2.462,1.43C25.217,23.586,23.558,25.255,21.567,26.414z"/>
	</g>
</g>
</svg>
