<?xml version="1.0" encoding="utf-8"?>
<!-- Generator: Adobe Illustrator 14.0.0, SVG Export Plug-In . SVG Version: 6.00 Build 43363)  -->
<!DOCTYPE svg PUBLIC "-//W3C//DTD SVG 1.1//EN" "http://www.w3.org/Graphics/SVG/1.1/DTD/svg11.dtd">
<svg version="1.1" id="图层_1" xmlns="http://www.w3.org/2000/svg" xmlns:xlink="http://www.w3.org/1999/xlink" x="0px" y="0px"
	 width="30px" height="30px" viewBox="0 0 30 30" enable-background="new 0 0 30 30" xml:space="preserve">
<g>
	<g>
		<path d="M13.444,8.689H24.82c0.568,0,1.029-0.431,1.029-0.962c0-0.532-0.461-0.962-1.029-0.962H13.444
			c-0.569,0-1.029,0.431-1.029,0.962C12.415,8.258,12.875,8.689,13.444,8.689z M13.423,12.533h11.415
			c0.557,0,1.009-0.422,1.009-0.943s-0.452-0.942-1.009-0.942H13.423c-0.557,0-1.008,0.421-1.008,0.942S12.867,12.533,13.423,12.533
			z M26.081-0.015H3.923C1.756-0.015,0,1.628,0,3.654v22.678C0,28.358,1.756,30,3.923,30h22.158c2.166,0,3.922-1.642,3.922-3.668
			V3.654C30.003,1.628,28.247-0.015,26.081-0.015z M6.193,4.83c1.143,0,2.07,0.867,2.07,1.936s-0.927,1.936-2.07,1.936
			s-2.07-0.867-2.07-1.936S5.05,4.83,6.193,4.83z M6.169,10.59c1.147,0,2.078,0.87,2.078,1.943s-0.931,1.943-2.078,1.943
			s-2.078-0.87-2.078-1.943S5.021,10.59,6.169,10.59z M8.247,18.354c0,1.064-0.923,1.928-2.061,1.928
			c-1.139,0-2.062-0.863-2.062-1.928s0.923-1.929,2.062-1.929C7.324,16.425,8.247,17.289,8.247,18.354z M6.201,26.117
			c-1.147,0-2.078-0.87-2.078-1.943c0-1.072,0.931-1.942,2.078-1.942c1.147,0,2.078,0.87,2.078,1.942
			C8.279,25.247,7.349,26.117,6.201,26.117z M27.945,25.244c0,1.012-0.879,1.833-1.962,1.833H12.318
			c-1.083,0-1.962-0.821-1.962-1.833V5.67c0-1.013,0.878-1.834,1.962-1.834h13.665c1.083,0,1.962,0.821,1.962,1.834V25.244z
			 M13.436,16.427h11.392c0.563,0,1.021-0.427,1.021-0.953c0-0.527-0.457-0.954-1.021-0.954H13.436
			c-0.564,0-1.021,0.427-1.021,0.954C12.415,16,12.872,16.427,13.436,16.427z M13.444,20.295h11.352c0.568,0,1.03-0.432,1.03-0.964
			c0-0.531-0.462-0.963-1.03-0.963H13.444c-0.569,0-1.029,0.432-1.029,0.963C12.415,19.863,12.875,20.295,13.444,20.295z
			 M24.844,22.259H13.451c-0.559,0-1.011,0.423-1.011,0.945s0.453,0.946,1.011,0.946h11.393c0.559,0,1.012-0.424,1.012-0.946
			S25.402,22.259,24.844,22.259z"/>
	</g>
	<g>
		<path fill="none" stroke="#FFFFFF" d="M13.444,8.689H24.82c0.568,0,1.029-0.431,1.029-0.962c0-0.532-0.461-0.962-1.029-0.962
			H13.444c-0.569,0-1.029,0.431-1.029,0.962C12.415,8.258,12.875,8.689,13.444,8.689z M13.423,12.533h11.415
			c0.557,0,1.009-0.422,1.009-0.943s-0.452-0.942-1.009-0.942H13.423c-0.557,0-1.008,0.421-1.008,0.942S12.867,12.533,13.423,12.533
			z M26.081-0.015H3.923C1.756-0.015,0,1.628,0,3.654v22.678C0,28.358,1.756,30,3.923,30h22.158c2.166,0,3.922-1.642,3.922-3.668
			V3.654C30.003,1.628,28.247-0.015,26.081-0.015z M6.193,4.83c1.143,0,2.07,0.867,2.07,1.936s-0.927,1.936-2.07,1.936
			s-2.07-0.867-2.07-1.936S5.05,4.83,6.193,4.83z M6.169,10.59c1.147,0,2.078,0.87,2.078,1.943s-0.931,1.943-2.078,1.943
			s-2.078-0.87-2.078-1.943S5.021,10.59,6.169,10.59z M8.247,18.354c0,1.064-0.923,1.928-2.061,1.928
			c-1.139,0-2.062-0.863-2.062-1.928s0.923-1.929,2.062-1.929C7.324,16.425,8.247,17.289,8.247,18.354z M6.201,26.117
			c-1.147,0-2.078-0.87-2.078-1.943c0-1.072,0.931-1.942,2.078-1.942c1.147,0,2.078,0.87,2.078,1.942
			C8.279,25.247,7.349,26.117,6.201,26.117z M27.945,25.244c0,1.012-0.879,1.833-1.962,1.833H12.318
			c-1.083,0-1.962-0.821-1.962-1.833V5.67c0-1.013,0.878-1.834,1.962-1.834h13.665c1.083,0,1.962,0.821,1.962,1.834V25.244z
			 M13.436,16.427h11.392c0.563,0,1.021-0.427,1.021-0.953c0-0.527-0.457-0.954-1.021-0.954H13.436
			c-0.564,0-1.021,0.427-1.021,0.954C12.415,16,12.872,16.427,13.436,16.427z M13.444,20.295h11.352c0.568,0,1.03-0.432,1.03-0.964
			c0-0.531-0.462-0.963-1.03-0.963H13.444c-0.569,0-1.029,0.432-1.029,0.963C12.415,19.863,12.875,20.295,13.444,20.295z
			 M24.844,22.259H13.451c-0.559,0-1.011,0.423-1.011,0.945s0.453,0.946,1.011,0.946h11.393c0.559,0,1.012-0.424,1.012-0.946
			S25.402,22.259,24.844,22.259z"/>
	</g>
</g>
</svg>
