<?xml version="1.0" encoding="utf-8"?>
<!-- Generator: Adobe Illustrator 14.0.0, SVG Export Plug-In . SVG Version: 6.00 Build 43363)  -->
<!DOCTYPE svg PUBLIC "-//W3C//DTD SVG 1.1//EN" "http://www.w3.org/Graphics/SVG/1.1/DTD/svg11.dtd">
<svg version="1.1" id="图层_1" xmlns="http://www.w3.org/2000/svg" xmlns:xlink="http://www.w3.org/1999/xlink" x="0px" y="0px"
	 width="30px" height="30px" viewBox="0 0 30 30" enable-background="new 0 0 30 30" xml:space="preserve">
<g>
	<g>
		<path d="M14.949,3.953c-4.968,0-8.995,4.027-8.995,8.995s4.027,8.995,8.995,8.995c4.969,0,8.996-4.027,8.996-8.995
			S19.918,3.953,14.949,3.953z M19.035,18.819l-4.075-2.792l-4.063,2.81l1.396-4.738l-3.927-2.996l4.938-0.137l1.636-4.661
			l1.656,4.654l4.938,0.115l-3.914,3.013L19.035,18.819z M30.063,23.994l-4.061-4.13c1.25-1.997,1.984-4.35,1.984-6.879
			c0-7.18-5.82-13-13-13c-7.18,0-13,5.82-13,13c0,2.403,0.664,4.647,1.801,6.578l-3.867,4.432l5.065-0.004l0.021,5.944l3.078-2.517
			c0.06,0.03,0.119,0.061,0.176,0.061c0,0,2.109-1.174,4.525-1.687c0.715,0.125,1.449,0.192,2.2,0.192
			c0.722,0,1.429-0.063,2.118-0.179c2.463,0.508,4.482,1.614,4.482,1.614c0.05,0,0.104-0.028,0.157-0.051l3.264,2.624l-0.01-6.003
			L30.063,23.994z M14.991,24.035c-6.1,0-11.045-4.945-11.045-11.045c0-6.1,4.945-11.045,11.045-11.045
			c6.1,0,11.044,4.945,11.044,11.045C26.035,19.09,21.091,24.035,14.991,24.035z"/>
	</g>
	<g>
		<path fill="none" stroke="#FFFFFF" d="M14.949,3.953c-4.968,0-8.995,4.027-8.995,8.995s4.027,8.995,8.995,8.995
			c4.969,0,8.996-4.027,8.996-8.995S19.918,3.953,14.949,3.953z M19.035,18.819l-4.075-2.792l-4.063,2.81l1.396-4.738l-3.927-2.996
			l4.938-0.137l1.636-4.661l1.656,4.654l4.938,0.115l-3.914,3.013L19.035,18.819z M30.063,23.994l-4.061-4.13
			c1.25-1.997,1.984-4.35,1.984-6.879c0-7.18-5.82-13-13-13c-7.18,0-13,5.82-13,13c0,2.403,0.664,4.647,1.801,6.578l-3.867,4.432
			l5.065-0.004l0.021,5.944l3.078-2.517c0.06,0.03,0.119,0.061,0.176,0.061c0,0,2.109-1.174,4.525-1.687
			c0.715,0.125,1.449,0.192,2.2,0.192c0.722,0,1.429-0.063,2.118-0.179c2.463,0.508,4.482,1.614,4.482,1.614
			c0.05,0,0.104-0.028,0.157-0.051l3.264,2.624l-0.01-6.003L30.063,23.994z M14.991,24.035c-6.1,0-11.045-4.945-11.045-11.045
			c0-6.1,4.945-11.045,11.045-11.045c6.1,0,11.044,4.945,11.044,11.045C26.035,19.09,21.091,24.035,14.991,24.035z"/>
	</g>
</g>
</svg>
