<?xml version="1.0" encoding="utf-8"?>
<!-- Generator: Adobe Illustrator 14.0.0, SVG Export Plug-In . SVG Version: 6.00 Build 43363)  -->
<!DOCTYPE svg PUBLIC "-//W3C//DTD SVG 1.1//EN" "http://www.w3.org/Graphics/SVG/1.1/DTD/svg11.dtd">
<svg version="1.1" id="图层_1" xmlns="http://www.w3.org/2000/svg" xmlns:xlink="http://www.w3.org/1999/xlink" x="0px" y="0px"
	 width="30px" height="30px" viewBox="0 0 30 30" enable-background="new 0 0 30 30" xml:space="preserve">
<g>
	<g>
		<path d="M26.966,24.23V0.591c0-0.327-0.264-0.591-0.59-0.591H9.571C9.245,0,8.98,0.264,8.98,0.591V14.01
			c-0.58-0.067-1.185-0.063-1.8,0.022c-3.329,0.463-5.647,3.117-5.102,5.903c0.543,2.776,3.703,4.53,6.983,3.944
			c2.712-0.485,4.652-2.429,4.878-4.627c0.032-0.072,0.051-0.151,0.051-0.236V5.991h7.994v13.085
			c-0.761-0.136-1.567-0.16-2.391-0.045c-3.618,0.509-6.138,3.416-5.544,6.469c0.59,3.042,4.024,4.965,7.589,4.322
			C24.8,29.252,26.995,26.848,26.966,24.23z"/>
	</g>
	<g>
		<path fill="none" stroke="#FFFFFF" d="M26.966,24.23V0.591c0-0.327-0.264-0.591-0.59-0.591H9.571C9.245,0,8.98,0.264,8.98,0.591
			V14.01c-0.58-0.067-1.185-0.063-1.8,0.022c-3.329,0.463-5.647,3.117-5.102,5.903c0.543,2.776,3.703,4.53,6.983,3.944
			c2.712-0.485,4.652-2.429,4.878-4.627c0.032-0.072,0.051-0.151,0.051-0.236V5.991h7.994v13.085
			c-0.761-0.136-1.567-0.16-2.391-0.045c-3.618,0.509-6.138,3.416-5.544,6.469c0.59,3.042,4.024,4.965,7.589,4.322
			C24.8,29.252,26.995,26.848,26.966,24.23z"/>
	</g>
</g>
</svg>
