<?xml version="1.0" encoding="utf-8"?>
<!-- Generator: Adobe Illustrator 14.0.0, SVG Export Plug-In . SVG Version: 6.00 Build 43363)  -->
<!DOCTYPE svg PUBLIC "-//W3C//DTD SVG 1.1//EN" "http://www.w3.org/Graphics/SVG/1.1/DTD/svg11.dtd">
<svg version="1.1" id="图层_1" xmlns="http://www.w3.org/2000/svg" xmlns:xlink="http://www.w3.org/1999/xlink" x="0px" y="0px"
	 width="30px" height="30px" viewBox="0 0 30 30" enable-background="new 0 0 30 30" xml:space="preserve">
<g>
	<g>
		<path d="M19.613,18.572c-3.114,4.815-8.058-19.955-14.781,0.245c-0.151,0.452-0.708,1.997-0.71,2.745
			c-0.002,0.633-0.129,1.397-0.131,2.063c-0.003,0.877,0.468,1.579,1.277,1.579c3.977,0.001,16.063,0.004,19.907,0.005
			c0.751,0,1.055-0.771,0.776-1.829C25.137,20.283,22.856,13.559,19.613,18.572z M27,0H3C1.343,0,0,1.612,0,3.6v22.8
			C0,28.388,1.343,30,3,30h24c1.656,0,3-1.612,3-3.601V3.6C30,1.612,28.656,0,27,0z M28,25.199c0,1.326-0.896,2.4-2,2.4H4
			c-1.104,0-2-1.074-2-2.4V4.8C2,3.475,2.895,2.4,4,2.4h22c1.104,0,2,1.074,2,2.399V25.199z M20.433,13.237
			c1.383,0,2.505-1.346,2.505-3.006c0-1.659-1.122-3.005-2.505-3.005s-2.505,1.346-2.505,3.005
			C17.928,11.892,19.05,13.237,20.433,13.237z"/>
	</g>
	<g>
		<path fill="none" stroke="#FFFFFF" d="M19.613,18.572c-3.114,4.815-8.058-19.955-14.781,0.245
			c-0.151,0.452-0.708,1.997-0.71,2.745c-0.002,0.633-0.129,1.397-0.131,2.063c-0.003,0.877,0.468,1.579,1.277,1.579
			c3.977,0.001,16.063,0.004,19.907,0.005c0.751,0,1.055-0.771,0.776-1.829C25.137,20.283,22.856,13.559,19.613,18.572z M27,0H3
			C1.343,0,0,1.612,0,3.6v22.8C0,28.388,1.343,30,3,30h24c1.656,0,3-1.612,3-3.601V3.6C30,1.612,28.656,0,27,0z M28,25.199
			c0,1.326-0.896,2.4-2,2.4H4c-1.104,0-2-1.074-2-2.4V4.8C2,3.475,2.895,2.4,4,2.4h22c1.104,0,2,1.074,2,2.399V25.199z
			 M20.433,13.237c1.383,0,2.505-1.346,2.505-3.006c0-1.659-1.122-3.005-2.505-3.005s-2.505,1.346-2.505,3.005
			C17.928,11.892,19.05,13.237,20.433,13.237z"/>
	</g>
</g>
</svg>
