<?xml version="1.0" encoding="utf-8"?>
<!-- Generator: Adobe Illustrator 14.0.0, SVG Export Plug-In . SVG Version: 6.00 Build 43363)  -->
<!DOCTYPE svg PUBLIC "-//W3C//DTD SVG 1.1//EN" "http://www.w3.org/Graphics/SVG/1.1/DTD/svg11.dtd">
<svg version="1.1" id="图层_1" xmlns="http://www.w3.org/2000/svg" xmlns:xlink="http://www.w3.org/1999/xlink" x="0px" y="0px"
	 width="30px" height="30px" viewBox="0 0 30 30" enable-background="new 0 0 30 30" xml:space="preserve">
<g>
	<g>
		<path d="M10.8,15.986c0-0.555-0.441-1.005-0.985-1.005H4.893c-0.544,0-0.985,0.45-0.985,1.005c0,0.556,0.441,1.006,0.985,1.006
			h4.922C10.359,16.992,10.8,16.542,10.8,15.986z M4.89,23.003c-0.53,0-0.959,0.438-0.959,0.979c0,0.54,0.429,0.979,0.959,0.979
			h2.971c0.53,0,0.959-0.438,0.959-0.979c0-0.541-0.43-0.979-0.959-0.979H4.89z M9.805,19.997c0-0.554-0.439-1.002-0.981-1.002
			H4.916c-0.542,0-0.981,0.448-0.981,1.002c0,0.553,0.439,1.001,0.981,1.001h3.908C9.365,20.998,9.805,20.55,9.805,19.997z
			 M16.677,7.981c0-0.556-0.442-1.007-0.987-1.007H4.9c-0.546,0-0.987,0.451-0.987,1.007c0,0.557,0.441,1.007,0.987,1.007h10.79
			C16.234,8.988,16.677,8.538,16.677,7.981z M24.542,25.876c0,1.164-0.925,2.107-2.065,2.107H4.013
			c-1.141,0-2.066-0.943-2.066-2.107V6.079c0-1.164,0.925-2.107,2.066-2.107h18.463c0.22,0,0.428,0.044,0.627,0.109
			c0.626-0.512,1.699-1.198,3.079-1.387C25.569,1.118,24.069,0,22.305,0H4.179C1.871,0,0,1.908,0,4.263v21.456
			c0,2.354,1.871,4.263,4.179,4.263h18.126c2.309,0,4.179-1.909,4.179-4.263v-7.04l-1.941,2.483V25.876z M28.51,6.256
			c-3.099-2.168-5.297,0.534-5.297,0.534l-10.42,13.211l-0.038,5.993l5.015-0.025l12.137-15.542
			C29.906,10.427,30.854,8.139,28.51,6.256z M13.745,11.976c0-0.546-0.434-0.988-0.969-0.988H4.907
			c-0.536,0-0.969,0.442-0.969,0.988c0,0.547,0.434,0.989,0.969,0.989h7.869C13.311,12.965,13.745,12.522,13.745,11.976z"/>
	</g>
	<g>
		<path fill="none" stroke="#FFFFFF" d="M10.8,15.986c0-0.555-0.441-1.005-0.985-1.005H4.893c-0.544,0-0.985,0.45-0.985,1.005
			c0,0.556,0.441,1.006,0.985,1.006h4.922C10.359,16.992,10.8,16.542,10.8,15.986z M4.89,23.003c-0.53,0-0.959,0.438-0.959,0.979
			c0,0.54,0.429,0.979,0.959,0.979h2.971c0.53,0,0.959-0.438,0.959-0.979c0-0.541-0.43-0.979-0.959-0.979H4.89z M9.805,19.997
			c0-0.554-0.439-1.002-0.981-1.002H4.916c-0.542,0-0.981,0.448-0.981,1.002c0,0.553,0.439,1.001,0.981,1.001h3.908
			C9.365,20.998,9.805,20.55,9.805,19.997z M16.677,7.981c0-0.556-0.442-1.007-0.987-1.007H4.9c-0.546,0-0.987,0.451-0.987,1.007
			c0,0.557,0.441,1.007,0.987,1.007h10.79C16.234,8.988,16.677,8.538,16.677,7.981z M24.542,25.876c0,1.164-0.925,2.107-2.065,2.107
			H4.013c-1.141,0-2.066-0.943-2.066-2.107V6.079c0-1.164,0.925-2.107,2.066-2.107h18.463c0.22,0,0.428,0.044,0.627,0.109
			c0.626-0.512,1.699-1.198,3.079-1.387C25.569,1.118,24.069,0,22.305,0H4.179C1.871,0,0,1.908,0,4.263v21.456
			c0,2.354,1.871,4.263,4.179,4.263h18.126c2.309,0,4.179-1.909,4.179-4.263v-7.04l-1.941,2.483V25.876z M28.51,6.256
			c-3.099-2.168-5.297,0.534-5.297,0.534l-10.42,13.211l-0.038,5.993l5.015-0.025l12.137-15.542
			C29.906,10.427,30.854,8.139,28.51,6.256z M13.745,11.976c0-0.546-0.434-0.988-0.969-0.988H4.907
			c-0.536,0-0.969,0.442-0.969,0.988c0,0.547,0.434,0.989,0.969,0.989h7.869C13.311,12.965,13.745,12.522,13.745,11.976z"/>
	</g>
</g>
</svg>
