<?xml version="1.0" encoding="utf-8"?>
<!-- Generator: Adobe Illustrator 14.0.0, SVG Export Plug-In . SVG Version: 6.00 Build 43363)  -->
<!DOCTYPE svg PUBLIC "-//W3C//DTD SVG 1.1//EN" "http://www.w3.org/Graphics/SVG/1.1/DTD/svg11.dtd">
<svg version="1.1" id="图层_1" xmlns="http://www.w3.org/2000/svg" xmlns:xlink="http://www.w3.org/1999/xlink" x="0px" y="0px"
	 width="30px" height="30px" viewBox="0 0 30 30" enable-background="new 0 0 30 30" xml:space="preserve">
<g>
	<g>
		<path d="M14.977,8.034c-3.85,0-6.971,3.121-6.971,6.972c0,3.85,3.121,6.971,6.971,6.971s6.971-3.121,6.971-6.971
			C21.947,11.155,18.826,8.034,14.977,8.034z M14.933,19.053c-2.23,0-4.039-1.808-4.039-4.038s1.808-4.039,4.039-4.039
			c2.231,0,4.038,1.809,4.038,4.039S17.164,19.053,14.933,19.053z M29.786,12.751l-2.124-0.655
			c-0.338-1.508-0.938-2.914-1.749-4.173l1.022-1.934c-0.874-1.157-1.91-2.181-3.078-3.042l-1.93,1.021
			c-1.253-0.794-2.646-1.383-4.139-1.712l-0.637-2.064c-0.712-0.104-1.434-0.175-2.175-0.175s-1.463,0.072-2.176,0.175l-0.637,2.065
			c-1.493,0.329-2.886,0.918-4.138,1.712L6.097,2.948C4.929,3.81,3.894,4.833,3.019,5.991l1.022,1.933
			c-0.812,1.259-1.411,2.666-1.749,4.173l-2.123,0.655c-0.112,0.739-0.188,1.491-0.188,2.261c0,0.685,0.062,1.353,0.15,2.013
			l2.127,0.656c0.328,1.535,0.932,2.965,1.749,4.247l-1.062,2.009c0.844,1.135,1.841,2.145,2.966,3.002l2.012-1.063
			c1.289,0.834,2.732,1.448,4.282,1.785l0.674,2.185c0.688,0.097,1.384,0.164,2.099,0.164c0.714,0,1.411-0.067,2.099-0.164
			l0.674-2.185c1.549-0.337,2.992-0.951,4.281-1.785l2.013,1.063c1.125-0.856,2.122-1.866,2.966-3.002l-1.063-2.009
			c0.817-1.282,1.421-2.712,1.749-4.247l2.128-0.656c0.089-0.66,0.15-1.328,0.15-2.013C29.975,14.242,29.898,13.491,29.786,12.751z
			 M14.961,24.99c-5.55,0-10.05-4.499-10.05-10.05S9.411,4.89,14.961,4.89s10.05,4.5,10.05,10.051S20.512,24.99,14.961,24.99z"/>
	</g>
	<g>
		<path fill="none" stroke="#FFFFFF" d="M14.977,8.034c-3.85,0-6.971,3.121-6.971,6.972c0,3.85,3.121,6.971,6.971,6.971
			s6.971-3.121,6.971-6.971C21.947,11.155,18.826,8.034,14.977,8.034z M14.933,19.053c-2.23,0-4.039-1.808-4.039-4.038
			s1.808-4.039,4.039-4.039c2.231,0,4.038,1.809,4.038,4.039S17.164,19.053,14.933,19.053z M29.786,12.751l-2.124-0.655
			c-0.338-1.508-0.938-2.914-1.749-4.173l1.022-1.934c-0.874-1.157-1.91-2.181-3.078-3.042l-1.93,1.021
			c-1.253-0.794-2.646-1.383-4.139-1.712l-0.637-2.064c-0.712-0.104-1.434-0.175-2.175-0.175s-1.463,0.072-2.176,0.175l-0.637,2.065
			c-1.493,0.329-2.886,0.918-4.138,1.712L6.097,2.948C4.929,3.81,3.894,4.833,3.019,5.991l1.022,1.933
			c-0.812,1.259-1.411,2.666-1.749,4.173l-2.123,0.655c-0.112,0.739-0.188,1.491-0.188,2.261c0,0.685,0.062,1.353,0.15,2.013
			l2.127,0.656c0.328,1.535,0.932,2.965,1.749,4.247l-1.062,2.009c0.844,1.135,1.841,2.145,2.966,3.002l2.012-1.063
			c1.289,0.834,2.732,1.448,4.282,1.785l0.674,2.185c0.688,0.097,1.384,0.164,2.099,0.164c0.714,0,1.411-0.067,2.099-0.164
			l0.674-2.185c1.549-0.337,2.992-0.951,4.281-1.785l2.013,1.063c1.125-0.856,2.122-1.866,2.966-3.002l-1.063-2.009
			c0.817-1.282,1.421-2.712,1.749-4.247l2.128-0.656c0.089-0.66,0.15-1.328,0.15-2.013C29.975,14.242,29.898,13.491,29.786,12.751z
			 M14.961,24.99c-5.55,0-10.05-4.499-10.05-10.05S9.411,4.89,14.961,4.89s10.05,4.5,10.05,10.051S20.512,24.99,14.961,24.99z"/>
	</g>
</g>
</svg>
