<?xml version="1.0" encoding="utf-8"?>
<!-- Generator: Adobe Illustrator 14.0.0, SVG Export Plug-In . SVG Version: 6.00 Build 43363)  -->
<!DOCTYPE svg PUBLIC "-//W3C//DTD SVG 1.1//EN" "http://www.w3.org/Graphics/SVG/1.1/DTD/svg11.dtd">
<svg version="1.1" id="图层_1" xmlns="http://www.w3.org/2000/svg" xmlns:xlink="http://www.w3.org/1999/xlink" x="0px" y="0px"
	 width="30px" height="30px" viewBox="0 0 30 30" enable-background="new 0 0 30 30" xml:space="preserve">
<g>
	<g>
		<path d="M21.525,17.942c-1.562,0-2.969,0.651-3.973,1.694l-3.727-2.703c0.126-0.462,0.199-0.946,0.199-1.448
			c0-0.567-0.086-1.114-0.245-1.629l4.251-3.428c1.056,0.943,2.445,1.521,3.973,1.521c3.3,0,5.975-2.675,5.975-5.975
			S25.303,0,22.003,0s-5.975,2.675-5.975,5.975c0,0.784,0.155,1.53,0.429,2.215l-4.125,3.326c-0.991-0.954-2.335-1.543-3.82-1.543
			C5.468,9.973,3,12.44,3,15.485c0,3.044,2.468,5.512,5.512,5.512c1.539,0,2.928-0.632,3.928-1.647l3.751,2.722
			c-0.115,0.444-0.184,0.909-0.184,1.39c0,3.048,2.471,5.519,5.518,5.519c3.048,0,5.519-2.471,5.519-5.519
			S24.573,17.942,21.525,17.942z M22.018,1.965c2.223,0,4.024,1.802,4.024,4.024s-1.802,4.024-4.024,4.024
			c-2.224,0-4.025-1.802-4.025-4.024S19.794,1.965,22.018,1.965z"/>
	</g>
	<g>
		<path fill="none" stroke="#FFFFFF" d="M21.525,17.942c-1.562,0-2.969,0.651-3.973,1.694l-3.727-2.703
			c0.126-0.462,0.199-0.946,0.199-1.448c0-0.567-0.086-1.114-0.245-1.629l4.251-3.428c1.056,0.943,2.445,1.521,3.973,1.521
			c3.3,0,5.975-2.675,5.975-5.975S25.303,0,22.003,0s-5.975,2.675-5.975,5.975c0,0.784,0.155,1.53,0.429,2.215l-4.125,3.326
			c-0.991-0.954-2.335-1.543-3.82-1.543C5.468,9.973,3,12.44,3,15.485c0,3.044,2.468,5.512,5.512,5.512
			c1.539,0,2.928-0.632,3.928-1.647l3.751,2.722c-0.115,0.444-0.184,0.909-0.184,1.39c0,3.048,2.471,5.519,5.518,5.519
			c3.048,0,5.519-2.471,5.519-5.519S24.573,17.942,21.525,17.942z M22.018,1.965c2.223,0,4.024,1.802,4.024,4.024
			s-1.802,4.024-4.024,4.024c-2.224,0-4.025-1.802-4.025-4.024S19.794,1.965,22.018,1.965z"/>
	</g>
</g>
</svg>
