<?xml version="1.0" encoding="utf-8"?>
<!-- Generator: Adobe Illustrator 14.0.0, SVG Export Plug-In . SVG Version: 6.00 Build 43363)  -->
<!DOCTYPE svg PUBLIC "-//W3C//DTD SVG 1.1//EN" "http://www.w3.org/Graphics/SVG/1.1/DTD/svg11.dtd">
<svg version="1.1" id="图层_1" xmlns="http://www.w3.org/2000/svg" xmlns:xlink="http://www.w3.org/1999/xlink" x="0px" y="0px"
	 width="30px" height="30px" viewBox="0 0 30 30" enable-background="new 0 0 30 30" xml:space="preserve">
<g>
	<g>
		<path d="M28.841,10.581c0,0-3.846-10.225-3.894-10.351c-0.048-0.126-0.22-0.274-0.427-0.239
			c-0.206,0.034-11.043,1.803-11.043,1.803s-0.446,0.083-0.582,0.317L2.003,20.8c-0.078,0.134-0.008,0.319,0.157,0.414l15.409,8.813
			c0.165,0.095,0.362,0.063,0.44-0.072l10.892-18.69C29.012,11.037,28.841,10.581,28.841,10.581z M23.681,7.501
			c-0.696,1.169-2.237,1.569-3.443,0.895c-1.206-0.676-1.619-2.171-0.923-3.34c0.696-1.169,2.238-1.569,3.443-0.895
			C23.964,4.837,24.377,6.332,23.681,7.501z"/>
	</g>
	<g>
		<path fill="none" stroke="#FFFFFF" d="M28.841,10.581c0,0-3.846-10.225-3.894-10.351c-0.048-0.126-0.22-0.274-0.427-0.239
			c-0.206,0.034-11.043,1.803-11.043,1.803s-0.446,0.083-0.582,0.317L2.003,20.8c-0.078,0.134-0.008,0.319,0.157,0.414l15.409,8.813
			c0.165,0.095,0.362,0.063,0.44-0.072l10.892-18.69C29.012,11.037,28.841,10.581,28.841,10.581z M23.681,7.501
			c-0.696,1.169-2.237,1.569-3.443,0.895c-1.206-0.676-1.619-2.171-0.923-3.34c0.696-1.169,2.238-1.569,3.443-0.895
			C23.964,4.837,24.377,6.332,23.681,7.501z"/>
	</g>
</g>
</svg>
