<?xml version="1.0" encoding="utf-8"?>
<!-- Generator: Adobe Illustrator 14.0.0, SVG Export Plug-In . SVG Version: 6.00 Build 43363)  -->
<!DOCTYPE svg PUBLIC "-//W3C//DTD SVG 1.1//EN" "http://www.w3.org/Graphics/SVG/1.1/DTD/svg11.dtd">
<svg version="1.1" id="图层_1" xmlns="http://www.w3.org/2000/svg" xmlns:xlink="http://www.w3.org/1999/xlink" x="0px" y="0px"
	 width="30px" height="30px" viewBox="0 0 30 30" enable-background="new 0 0 30 30" xml:space="preserve">
<g>
	<g>
		<path d="M16.964,14h-2.559c-0.345-0.574-0.827-1.048-1.405-1.388V9.955c0-1.108-0.898-2.007-2.007-2.007
			c-1.108,0-2.006,0.898-2.006,2.007v2.656C8.407,12.95,7.925,13.425,7.579,14H4.999c-1.107,0-2.004,0.897-2.004,2.004
			c0,1.107,0.897,2.006,2.004,2.006h2.535c0.348,0.611,0.846,1.117,1.453,1.473v2.511c0,1.108,0.898,2.007,2.006,2.007
			C12.102,24,13,23.102,13,21.993V19.48c0.605-0.354,1.103-0.86,1.451-1.471h2.513c1.107,0,2.005-0.898,2.005-2.006
			C18.969,14.897,18.071,14,16.964,14z M17.991,4.004c-1.65,0-2.987,1.337-2.987,2.987s1.337,2.987,2.987,2.987
			c1.649,0,2.987-1.337,2.987-2.987S19.641,4.004,17.991,4.004z M24.375,0H5.625C2.518,0,0,2.518,0,5.625v18.75
			C0,27.481,2.518,30,5.625,30h18.75C27.481,30,30,27.481,30,24.375V5.625C30,2.518,27.481,0,24.375,0z M28.007,22.295
			c0,2.043-1.656,3.699-3.7,3.699H5.69c-2.043,0-3.7-1.656-3.7-3.699V5.706c0-2.044,1.657-3.7,3.7-3.7h18.616
			c2.044,0,3.7,1.656,3.7,3.7V22.295z M23.999,8.973c-1.672,0-3.026,1.355-3.026,3.026c0,1.671,1.354,3.026,3.026,3.026
			c1.671,0,3.025-1.355,3.025-3.026C27.024,10.328,25.67,8.973,23.999,8.973z"/>
	</g>
	<g>
		<path fill="none" stroke="#FFFFFF" d="M16.964,14h-2.559c-0.345-0.574-0.827-1.048-1.405-1.388V9.955
			c0-1.108-0.898-2.007-2.007-2.007c-1.108,0-2.006,0.898-2.006,2.007v2.656C8.407,12.95,7.925,13.425,7.579,14H4.999
			c-1.107,0-2.004,0.897-2.004,2.004c0,1.107,0.897,2.006,2.004,2.006h2.535c0.348,0.611,0.846,1.117,1.453,1.473v2.511
			c0,1.108,0.898,2.007,2.006,2.007C12.102,24,13,23.102,13,21.993V19.48c0.605-0.354,1.103-0.86,1.451-1.471h2.513
			c1.107,0,2.005-0.898,2.005-2.006C18.969,14.897,18.071,14,16.964,14z M17.991,4.004c-1.65,0-2.987,1.337-2.987,2.987
			s1.337,2.987,2.987,2.987c1.649,0,2.987-1.337,2.987-2.987S19.641,4.004,17.991,4.004z M24.375,0H5.625C2.518,0,0,2.518,0,5.625
			v18.75C0,27.481,2.518,30,5.625,30h18.75C27.481,30,30,27.481,30,24.375V5.625C30,2.518,27.481,0,24.375,0z M28.007,22.295
			c0,2.043-1.656,3.699-3.7,3.699H5.69c-2.043,0-3.7-1.656-3.7-3.699V5.706c0-2.044,1.657-3.7,3.7-3.7h18.616
			c2.044,0,3.7,1.656,3.7,3.7V22.295z M23.999,8.973c-1.672,0-3.026,1.355-3.026,3.026c0,1.671,1.354,3.026,3.026,3.026
			c1.671,0,3.025-1.355,3.025-3.026C27.024,10.328,25.67,8.973,23.999,8.973z"/>
	</g>
</g>
</svg>
