<?xml version="1.0" encoding="utf-8"?>
<!-- Generator: Adobe Illustrator 14.0.0, SVG Export Plug-In . SVG Version: 6.00 Build 43363)  -->
<!DOCTYPE svg PUBLIC "-//W3C//DTD SVG 1.1//EN" "http://www.w3.org/Graphics/SVG/1.1/DTD/svg11.dtd">
<svg version="1.1" id="图层_1" xmlns="http://www.w3.org/2000/svg" xmlns:xlink="http://www.w3.org/1999/xlink" x="0px" y="0px"
	 width="30px" height="30px" viewBox="0 0 30 30" enable-background="new 0 0 30 30" xml:space="preserve">
<g>
	<g>
		<path d="M30,11.909l-9.743-1.872l-4.79-8.688l-4.79,8.688l-9.743,1.872l6.782,7.241l-1.231,9.844l8.982-4.213l8.982,4.213
			l-1.231-9.844L30,11.909z M15.515,20.813l-5.051,2.369l0.692-5.535l-3.813-4.071l5.479-1.053l2.693-4.885l2.693,4.885l5.479,1.053
			l-3.813,4.071l0.692,5.535L15.515,20.813z"/>
	</g>
	<g>
		<path fill="none" stroke="#FFFFFF" d="M30,11.909l-9.743-1.872l-4.79-8.688l-4.79,8.688l-9.743,1.872l6.782,7.241l-1.231,9.844
			l8.982-4.213l8.982,4.213l-1.231-9.844L30,11.909z M15.515,20.813l-5.051,2.369l0.692-5.535l-3.813-4.071l5.479-1.053l2.693-4.885
			l2.693,4.885l5.479,1.053l-3.813,4.071l0.692,5.535L15.515,20.813z"/>
	</g>
</g>
</svg>
