<?xml version="1.0" encoding="utf-8"?>
<!-- Generator: Adobe Illustrator 14.0.0, SVG Export Plug-In . SVG Version: 6.00 Build 43363)  -->
<!DOCTYPE svg PUBLIC "-//W3C//DTD SVG 1.1//EN" "http://www.w3.org/Graphics/SVG/1.1/DTD/svg11.dtd">
<svg version="1.1" id="图层_1" xmlns="http://www.w3.org/2000/svg" xmlns:xlink="http://www.w3.org/1999/xlink" x="0px" y="0px"
	 width="30px" height="30px" viewBox="0 0 30 30" enable-background="new 0 0 30 30" xml:space="preserve">
<g>
	<g>
		<path d="M26.104,9.126h-2.097c3.043-1.103,5.117-3.081,2.242-6.628c-6.188-7.637-11.033,4.675-11.033,4.675
			S8.357-2.553,3.362,2.13C0.684,4.641,2.831,7.456,6.665,9.126H3.896C1.745,9.126,0,10.813,0,12.892v13.461
			c0,2.08,1.745,3.766,3.896,3.766h22.208c2.151,0,3.896-1.686,3.896-3.766V12.892C30,10.813,28.256,9.126,26.104,9.126z
			 M19.051,5.074c1.745-2.199,2.327-2.045,2.856-1.636c0,0,1.852,2.096,0.053,2.761C20.161,6.863,17.305,7.272,19.051,5.074z
			 M7.26,4.149c2.511-1.158,4.564,3.198,1.883,2.591C6.461,6.134,6.177,4.648,7.26,4.149z M3.088,12.955
			c0-1.04,0.873-1.883,1.948-1.883h8.405v4.302c-1.32,0.462-2.35,1.479-2.804,2.767H3.311c-0.077,0-0.15,0.017-0.222,0.042V12.955z
			 M5.037,28.111c-1.076,0-1.948-0.844-1.948-1.883v-5.167c0.072,0.025,0.146,0.042,0.222,0.042h7.354
			c0.469,1.248,1.485,2.229,2.777,2.682v4.326H5.037z M26.912,26.229c0,1.039-0.872,1.883-1.948,1.883h-8.405v-4.316
			c1.307-0.447,2.336-1.434,2.809-2.691h7.322c0.077,0,0.15-0.017,0.223-0.042V26.229z M26.912,18.183
			c-0.072-0.025-0.146-0.042-0.223-0.042h-7.296c-0.457-1.297-1.5-2.319-2.835-2.776v-4.293h8.405c1.076,0,1.948,0.843,1.948,1.883
			V18.183z"/>
	</g>
	<g>
		<path fill="none" stroke="#FFFFFF" d="M26.104,9.126h-2.097c3.043-1.103,5.117-3.081,2.242-6.628
			c-6.188-7.637-11.033,4.675-11.033,4.675S8.357-2.553,3.362,2.13C0.684,4.641,2.831,7.456,6.665,9.126H3.896
			C1.745,9.126,0,10.813,0,12.892v13.461c0,2.08,1.745,3.766,3.896,3.766h22.208c2.151,0,3.896-1.686,3.896-3.766V12.892
			C30,10.813,28.256,9.126,26.104,9.126z M19.051,5.074c1.745-2.199,2.327-2.045,2.856-1.636c0,0,1.852,2.096,0.053,2.761
			C20.161,6.863,17.305,7.272,19.051,5.074z M7.26,4.149c2.511-1.158,4.564,3.198,1.883,2.591C6.461,6.134,6.177,4.648,7.26,4.149z
			 M3.088,12.955c0-1.04,0.873-1.883,1.948-1.883h8.405v4.302c-1.32,0.462-2.35,1.479-2.804,2.767H3.311
			c-0.077,0-0.15,0.017-0.222,0.042V12.955z M5.037,28.111c-1.076,0-1.948-0.844-1.948-1.883v-5.167
			c0.072,0.025,0.146,0.042,0.222,0.042h7.354c0.469,1.248,1.485,2.229,2.777,2.682v4.326H5.037z M26.912,26.229
			c0,1.039-0.872,1.883-1.948,1.883h-8.405v-4.316c1.307-0.447,2.336-1.434,2.809-2.691h7.322c0.077,0,0.15-0.017,0.223-0.042
			V26.229z M26.912,18.183c-0.072-0.025-0.146-0.042-0.223-0.042h-7.296c-0.457-1.297-1.5-2.319-2.835-2.776v-4.293h8.405
			c1.076,0,1.948,0.843,1.948,1.883V18.183z"/>
	</g>
</g>
</svg>
