<?xml version="1.0" encoding="utf-8"?>
<!-- Generator: Adobe Illustrator 14.0.0, SVG Export Plug-In . SVG Version: 6.00 Build 43363)  -->
<!DOCTYPE svg PUBLIC "-//W3C//DTD SVG 1.1//EN" "http://www.w3.org/Graphics/SVG/1.1/DTD/svg11.dtd">
<svg version="1.1" id="图层_1" xmlns="http://www.w3.org/2000/svg" xmlns:xlink="http://www.w3.org/1999/xlink" x="0px" y="0px"
	 width="30px" height="30px" viewBox="0 0 30 30" enable-background="new 0 0 30 30" xml:space="preserve">
<g>
	<g>
		<path d="M17,17.994c0,1.104-0.895,1.999-1.999,1.999c-1.104,0-1.999-0.895-1.999-1.999V15.01H-0.021v10.857
			c0,1.17,0.948,2.117,2.117,2.117h25.732c1.169,0,2.116-0.947,2.116-2.117V15.01H17V17.994z M27.828,6.988h-4.825V5.111
			c0-1.169-0.947-2.117-2.116-2.117H9.102c-1.168,0-2.116,0.947-2.116,2.117v1.877h-4.89c-1.169,0-2.117,0.947-2.117,2.116v3.884
			h29.966V9.104C29.944,7.936,28.997,6.988,27.828,6.988z M19.015,7.136H10.98V6.4c0-0.784,0.635-1.419,1.419-1.419h5.196
			c0.783,0,1.419,0.635,1.419,1.419V7.136z"/>
	</g>
	<g>
		<path fill="none" stroke="#FFFFFF" d="M17,17.994c0,1.104-0.895,1.999-1.999,1.999c-1.104,0-1.999-0.895-1.999-1.999V15.01H-0.021
			v10.857c0,1.17,0.948,2.117,2.117,2.117h25.732c1.169,0,2.116-0.947,2.116-2.117V15.01H17V17.994z M27.828,6.988h-4.825V5.111
			c0-1.169-0.947-2.117-2.116-2.117H9.102c-1.168,0-2.116,0.947-2.116,2.117v1.877h-4.89c-1.169,0-2.117,0.947-2.117,2.116v3.884
			h29.966V9.104C29.944,7.936,28.997,6.988,27.828,6.988z M19.015,7.136H10.98V6.4c0-0.784,0.635-1.419,1.419-1.419h5.196
			c0.783,0,1.419,0.635,1.419,1.419V7.136z"/>
	</g>
</g>
</svg>
