<?xml version="1.0" encoding="utf-8"?>
<!-- Generator: Adobe Illustrator 14.0.0, SVG Export Plug-In . SVG Version: 6.00 Build 43363)  -->
<!DOCTYPE svg PUBLIC "-//W3C//DTD SVG 1.1//EN" "http://www.w3.org/Graphics/SVG/1.1/DTD/svg11.dtd">
<svg version="1.1" id="图层_1" xmlns="http://www.w3.org/2000/svg" xmlns:xlink="http://www.w3.org/1999/xlink" x="0px" y="0px"
	 width="30px" height="30px" viewBox="0 0 30 30" enable-background="new 0 0 30 30" xml:space="preserve">
<g>
	<g>
		<path d="M13.954,20.975c0-2.205,1.258-3.992,2.81-3.992h2.253v-1.339c0-1.505,1.798-2.725,4.016-2.725s4.016,1.22,4.016,2.725
			v1.339h0.376c1.473-1.44,2.522-3.25,2.505-5.8C29.855,0.716,18.653-0.936,14.957,7.701C11.084-1.295,0.073,0.804,0,11.245
			c-0.04,5.734,5.243,7.878,8.762,10.171c3.41,2.223,5.839,5.264,6.219,6.559c0.166-0.644,0.946-1.767,2.085-3.007h-0.302
			C15.212,24.968,13.954,23.18,13.954,20.975z M27.883,18.973h-2.811v-1.752c0-1.221-0.908-2.21-2.029-2.21s-2.029,0.989-2.029,2.21
			v1.752h-2.683c-1.172,0-2.121,0.895-2.121,1.997s0.949,1.997,2.121,1.997h2.683v2.799c0,1.221,0.908,2.211,2.029,2.211
			s2.029-0.99,2.029-2.211v-2.799h2.811c1.171,0,2.12-0.895,2.12-1.997S29.054,18.973,27.883,18.973z"/>
	</g>
	<g>
		<path fill="none" stroke="#FFFFFF" d="M13.954,20.975c0-2.205,1.258-3.992,2.81-3.992h2.253v-1.339
			c0-1.505,1.798-2.725,4.016-2.725s4.016,1.22,4.016,2.725v1.339h0.376c1.473-1.44,2.522-3.25,2.505-5.8
			C29.855,0.716,18.653-0.936,14.957,7.701C11.084-1.295,0.073,0.804,0,11.245c-0.04,5.734,5.243,7.878,8.762,10.171
			c3.41,2.223,5.839,5.264,6.219,6.559c0.166-0.644,0.946-1.767,2.085-3.007h-0.302C15.212,24.968,13.954,23.18,13.954,20.975z
			 M27.883,18.973h-2.811v-1.752c0-1.221-0.908-2.21-2.029-2.21s-2.029,0.989-2.029,2.21v1.752h-2.683
			c-1.172,0-2.121,0.895-2.121,1.997s0.949,1.997,2.121,1.997h2.683v2.799c0,1.221,0.908,2.211,2.029,2.211s2.029-0.99,2.029-2.211
			v-2.799h2.811c1.171,0,2.12-0.895,2.12-1.997S29.054,18.973,27.883,18.973z"/>
	</g>
</g>
</svg>
