<?xml version="1.0" encoding="utf-8"?>
<!-- Generator: Adobe Illustrator 14.0.0, SVG Export Plug-In . SVG Version: 6.00 Build 43363)  -->
<!DOCTYPE svg PUBLIC "-//W3C//DTD SVG 1.1//EN" "http://www.w3.org/Graphics/SVG/1.1/DTD/svg11.dtd">
<svg version="1.1" id="图层_1" xmlns="http://www.w3.org/2000/svg" xmlns:xlink="http://www.w3.org/1999/xlink" x="0px" y="0px"
	 width="30px" height="30px" viewBox="0 0 30 30" enable-background="new 0 0 30 30" xml:space="preserve">
<g>
	<g>
		<path d="M26.447,12.56V0l-4.438,4.829C19.678,2.618,16.628,1.26,13.27,1.26C5.961,1.26,0.037,7.61,0.037,15.445
			c0,7.833,5.924,14.184,13.233,14.184c5.996,0,11.043-4.283,12.667-10.144c0.162-0.297,0.262-0.639,0.262-1.008
			c0-1.11-0.84-2.011-1.875-2.011c-1.036,0-1.876,0.9-1.876,2.011c0,0.088,0.014,0.173,0.024,0.258l-0.136-0.021
			c-1.291,4.063-4.873,6.988-9.1,6.988c-5.313,0-9.619-4.615-9.619-10.311c0-5.694,4.307-10.311,9.619-10.311
			c2.392,0,4.569,0.946,6.249,2.495l-4.581,4.984H26.447z"/>
	</g>
	<g>
		<path fill="none" stroke="#FFFFFF" d="M26.447,12.56V0l-4.438,4.829C19.678,2.618,16.628,1.26,13.27,1.26
			C5.961,1.26,0.037,7.61,0.037,15.445c0,7.833,5.924,14.184,13.233,14.184c5.996,0,11.043-4.283,12.667-10.144
			c0.162-0.297,0.262-0.639,0.262-1.008c0-1.11-0.84-2.011-1.875-2.011c-1.036,0-1.876,0.9-1.876,2.011
			c0,0.088,0.014,0.173,0.024,0.258l-0.136-0.021c-1.291,4.063-4.873,6.988-9.1,6.988c-5.313,0-9.619-4.615-9.619-10.311
			c0-5.694,4.307-10.311,9.619-10.311c2.392,0,4.569,0.946,6.249,2.495l-4.581,4.984H26.447z"/>
	</g>
</g>
</svg>
