<?xml version="1.0" encoding="utf-8"?>
<!-- Generator: Adobe Illustrator 14.0.0, SVG Export Plug-In . SVG Version: 6.00 Build 43363)  -->
<!DOCTYPE svg PUBLIC "-//W3C//DTD SVG 1.1//EN" "http://www.w3.org/Graphics/SVG/1.1/DTD/svg11.dtd">
<svg version="1.1" id="图层_1" xmlns="http://www.w3.org/2000/svg" xmlns:xlink="http://www.w3.org/1999/xlink" x="0px" y="0px"
	 width="30px" height="30px" viewBox="0 0 30 30" enable-background="new 0 0 30 30" xml:space="preserve">
<g>
	<g>
		<path d="M28.707,22.884L18.361,12.538c1.125-3.314,0.377-7.125-2.266-9.768C13.339,0.014,9.311-0.688,5.901,0.655L8.256,3.01
			c1.78-0.199,3.629,0.356,4.994,1.722c2.383,2.382,2.383,6.245,0,8.628s-6.246,2.383-8.628,0c-1.382-1.382-1.937-3.261-1.715-5.062
			L0.571,5.962c-1.362,3.417-0.663,7.465,2.103,10.231c2.652,2.652,6.481,3.396,9.804,2.252l10.333,10.334
			c1.628,1.628,4.268,1.628,5.896,0S30.335,24.512,28.707,22.884z M24.501,24.573c-0.567,0.567-1.488,0.567-2.056,0l-4.607-4.606
			c-0.567-0.568-0.567-1.488,0-2.057c0.568-0.566,1.488-0.566,2.057,0l4.606,4.607C25.068,23.086,25.068,24.006,24.501,24.573z"/>
	</g>
	<g>
		<path fill="none" stroke="#FFFFFF" d="M28.707,22.884L18.361,12.538c1.125-3.314,0.377-7.125-2.266-9.768
			C13.339,0.014,9.311-0.688,5.901,0.655L8.256,3.01c1.78-0.199,3.629,0.356,4.994,1.722c2.383,2.382,2.383,6.245,0,8.628
			s-6.246,2.383-8.628,0c-1.382-1.382-1.937-3.261-1.715-5.062L0.571,5.962c-1.362,3.417-0.663,7.465,2.103,10.231
			c2.652,2.652,6.481,3.396,9.804,2.252l10.333,10.334c1.628,1.628,4.268,1.628,5.896,0S30.335,24.512,28.707,22.884z
			 M24.501,24.573c-0.567,0.567-1.488,0.567-2.056,0l-4.607-4.606c-0.567-0.568-0.567-1.488,0-2.057
			c0.568-0.566,1.488-0.566,2.057,0l4.606,4.607C25.068,23.086,25.068,24.006,24.501,24.573z"/>
	</g>
</g>
</svg>
