<?xml version="1.0" encoding="utf-8"?>
<!-- Generator: Adobe Illustrator 14.0.0, SVG Export Plug-In . SVG Version: 6.00 Build 43363)  -->
<!DOCTYPE svg PUBLIC "-//W3C//DTD SVG 1.1//EN" "http://www.w3.org/Graphics/SVG/1.1/DTD/svg11.dtd">
<svg version="1.1" id="图层_1" xmlns="http://www.w3.org/2000/svg" xmlns:xlink="http://www.w3.org/1999/xlink" x="0px" y="0px"
	 width="30px" height="30px" viewBox="0 0 30 30" enable-background="new 0 0 30 30" xml:space="preserve">
<g>
	<g>
		<path d="M17.295,8.82c-1.71-2.398-2.585-2.38-4.421-0.033c-1.396,1.784-3.021,3.763-4.281,5.532
			c-1.385,1.945-1.11,2.646,1.375,2.646H12v5.016c0,0.553,0.447,1,1,1h4c0.552,0,1-0.447,1-1v-5.016h2.528
			c2.228,0,2.476-0.732,1.237-2.351C20.431,12.87,18.682,10.763,17.295,8.82z M14.963,0C6.699,0,0,6.7,0,14.964
			c0,8.265,6.699,14.964,14.963,14.964c8.265,0,14.964-6.699,14.964-14.964C29.928,6.7,23.229,0,14.963,0z M14.965,26.939
			c-6.614,0-11.976-5.361-11.976-11.976c0-6.614,5.361-11.976,11.976-11.976c6.613,0,11.976,5.362,11.976,11.976
			C26.94,21.578,21.578,26.939,14.965,26.939z"/>
	</g>
	<g>
		<path fill="none" stroke="#FFFFFF" d="M17.295,8.82c-1.71-2.398-2.585-2.38-4.421-0.033c-1.396,1.784-3.021,3.763-4.281,5.532
			c-1.385,1.945-1.11,2.646,1.375,2.646H12v5.016c0,0.553,0.447,1,1,1h4c0.552,0,1-0.447,1-1v-5.016h2.528
			c2.228,0,2.476-0.732,1.237-2.351C20.431,12.87,18.682,10.763,17.295,8.82z M14.963,0C6.699,0,0,6.7,0,14.964
			c0,8.265,6.699,14.964,14.963,14.964c8.265,0,14.964-6.699,14.964-14.964C29.928,6.7,23.229,0,14.963,0z M14.965,26.939
			c-6.614,0-11.976-5.361-11.976-11.976c0-6.614,5.361-11.976,11.976-11.976c6.613,0,11.976,5.362,11.976,11.976
			C26.94,21.578,21.578,26.939,14.965,26.939z"/>
	</g>
</g>
</svg>
