<?xml version="1.0" encoding="utf-8"?>
<!-- Generator: Adobe Illustrator 14.0.0, SVG Export Plug-In . SVG Version: 6.00 Build 43363)  -->
<!DOCTYPE svg PUBLIC "-//W3C//DTD SVG 1.1//EN" "http://www.w3.org/Graphics/SVG/1.1/DTD/svg11.dtd">
<svg version="1.1" id="图层_1" xmlns="http://www.w3.org/2000/svg" xmlns:xlink="http://www.w3.org/1999/xlink" x="0px" y="0px"
	 width="30px" height="30px" viewBox="0 0 30 30" enable-background="new 0 0 30 30" xml:space="preserve">
<g>
	<g>
		<path d="M30.004,28.045c0-5.794-3.287-10.813-8.094-13.316c1.298-1.561,2.08-3.566,2.08-5.755c0-4.976-4.034-9.009-9.01-9.009
			S5.971,3.998,5.971,8.974c0,2.192,0.784,4.2,2.085,5.762c-4.8,2.505-8.082,7.521-8.082,13.31c0,0.648,0.055,1.282,0.134,1.908
			h1.844c0.051,0.008,0.097,0.03,0.15,0.03h25.626c0.054,0,0.099-0.022,0.15-0.03h1.989C29.949,29.327,30.004,28.693,30.004,28.045z
			 M14.987,2.97c3.318,0,6.008,2.689,6.008,6.007s-2.689,6.007-6.008,6.007c-3.317,0-6.007-2.689-6.007-6.007
			S11.67,2.97,14.987,2.97z M10.545,16.811c1.31,0.742,2.821,1.172,4.435,1.172c1.603,0,3.104-0.423,4.408-1.156
			c4.451,1.77,7.602,6.105,7.604,11.186H2.898C2.899,22.916,6.072,18.568,10.545,16.811z"/>
	</g>
	<g>
		<path fill="none" stroke="#FFFFFF" d="M30.004,28.045c0-5.794-3.287-10.813-8.094-13.316c1.298-1.561,2.08-3.566,2.08-5.755
			c0-4.976-4.034-9.009-9.01-9.009S5.971,3.998,5.971,8.974c0,2.192,0.784,4.2,2.085,5.762c-4.8,2.505-8.082,7.521-8.082,13.31
			c0,0.648,0.055,1.282,0.134,1.908h1.844c0.051,0.008,0.097,0.03,0.15,0.03h25.626c0.054,0,0.099-0.022,0.15-0.03h1.989
			C29.949,29.327,30.004,28.693,30.004,28.045z M14.987,2.97c3.318,0,6.008,2.689,6.008,6.007s-2.689,6.007-6.008,6.007
			c-3.317,0-6.007-2.689-6.007-6.007S11.67,2.97,14.987,2.97z M10.545,16.811c1.31,0.742,2.821,1.172,4.435,1.172
			c1.603,0,3.104-0.423,4.408-1.156c4.451,1.77,7.602,6.105,7.604,11.186H2.898C2.899,22.916,6.072,18.568,10.545,16.811z"/>
	</g>
</g>
</svg>
